<?xml version="1.0" standalone="no"?>
<!DOCTYPE svg PUBLIC "-//W3C//DTD SVG 1.1//EN" "http://www.w3.org/Graphics/SVG/1.1/DTD/svg11.dtd" >
<svg xmlns="http://www.w3.org/2000/svg">
<metadata>Generated by IcoMoon</metadata>
<defs>
<font id="icomoon" horiz-adv-x="1024">
<font-face units-per-em="1024" ascent="960" descent="-64" />
<missing-glyph horiz-adv-x="1024" />
<glyph unicode="&#x20;" horiz-adv-x="512" d="" />
<glyph unicode="&#xe900;" glyph-name="minus" d="M0 448c0 45.511 39.822 85.333 85.333 85.333h853.333c45.511 0 85.333-39.822 85.333-85.333s-39.822-85.333-85.333-85.333h-853.333c-45.511 0-85.333 39.822-85.333 85.333z" />
<glyph unicode="&#xe901;" glyph-name="marker" horiz-adv-x="652" d="M478.754 587.636c0-87.896-71.688-159.585-159.585-159.585s-159.584 71.688-159.584 159.585c0 87.896 71.688 159.585 159.584 159.585s159.585-71.688 159.585-159.585zM638.337 587.636c0 176.416-142.753 319.169-319.169 319.169s-319.169-142.753-319.169-319.169c0-38.026 4.364-77.299 20.571-111.584l227.533-482.494c12.468-27.425 41.142-44.255 71.065-44.255s58.598 16.831 71.688 44.255l226.909 482.494c16.208 34.285 20.571 73.559 20.571 111.584z" />
<glyph unicode="&#xe902;" glyph-name="clock" d="M558.545 647.481c0 11.22-8.727 19.948-19.948 19.948h-39.896c-11.22 0-19.948-8.727-19.948-19.948v-219.429h-139.636c-11.221 0-19.948-8.727-19.948-19.948v-39.896c0-11.221 8.727-19.948 19.948-19.948h199.48c11.221 0 19.948 8.727 19.948 19.948v279.273zM817.87 428.052c0-187.012-152.103-339.116-339.116-339.116s-339.117 152.104-339.117 339.116c0 187.013 152.104 339.117 339.117 339.117s339.116-152.104 339.116-339.117zM957.505 428.052c0 264.312-214.44 478.754-478.752 478.754s-478.754-214.442-478.754-478.754c0-264.311 214.441-478.749 478.754-478.749s478.752 214.438 478.752 478.749z" />
<glyph unicode="&#xe903;" glyph-name="icon-download-file" horiz-adv-x="896" d="M602.353 598.588h240.943l-421.649-421.647-421.647 421.647h240.941v361.412h361.412v-361.412zM0-64v120.474h843.296v-120.474h-843.296z" />
<glyph unicode="&#xe904;" glyph-name="icon-link-url" d="M961.811 560.522l-243.661-243.766c-40.083-39.974-93.311-62.029-150.038-62.029-56.568 0-109.85 22.054-149.93 62.131-20.676 20.783-20.676 54.184 0.053 74.966 20.729 20.73 54.236 20.73 74.965 0 40.027-40.081 109.85-40.081 149.878 0l243.77 243.663c19.987 20.040 31.066 46.655 31.066 74.913 0 28.364-11.078 54.978-31.066 74.965l-37.485 37.535c-20.090 20.040-46.707 31.068-74.963 31.068-28.365 0-54.976-11.027-75.021-31.068l-105.236-105.238c-20.676-20.782-54.289-20.782-75.018 0-20.676 20.73-20.676 54.236 0.106 75.018l105.238 105.185c40.030 40.133 93.31 62.135 149.982 62.135 56.57 0 109.798-22.002 149.875-62.135l37.485-37.535c40.134-39.974 62.189-93.203 62.189-149.93 0-56.675-22.054-109.797-62.189-149.878zM530.641 504.255c-40.028 40.081-109.85 40.081-149.93 0l-243.716-243.66c-41.299-41.357-41.299-108.582 0-149.984l37.483-37.376c40.133-40.192 109.903-40.134 149.93 0l115.204 115.040c20.73 20.73 54.236 20.73 74.965 0 20.73-20.723 20.73-54.285 0-75.014l-115.204-115.098c-40.028-40.032-93.256-62.138-149.877-62.138-56.675 0-109.903 22.054-149.983 62.24l-37.483 37.376c-82.705 82.707-82.705 217.21 0 299.916l243.716 243.716c40.080 40.028 93.309 62.083 149.93 62.083s109.956-22.055 150.036-62.188l37.38-37.43c20.672-20.676 20.672-54.289 0-74.965-20.732-20.73-54.239-20.73-74.968 0l-37.482 37.482z" />
<glyph unicode="&#xe905;" glyph-name="arrow-short-right" horiz-adv-x="951" d="M436 873.415c12 10.667 23.333 10.667 34 0l417.998-419.999c12.003-10.667 12.003-21.334 0-32l-417.998-420.004c-10.666-10.664-22-10.664-34 0l-40 40.002c-3.999 4.001-6 9.333-6 16.004 0 6.663 2 12.668 6 18l310 309.998h-682c-16 0-24 8-24 24v56c0 16 8 24 24 24h682l-310 310c-10.666 12.001-10.666 23.333 0 34l40 40z" />
<glyph unicode="&#xe906;" glyph-name="arrow-very-long-left" horiz-adv-x="5248" d="M426.038-7.84l-407.293 407.292c-24.994 24.994-24.994 65.516 0 90.51l407.294 407.293c24.993 24.994 65.516 24.994 90.509 0s24.994-65.516 0-90.51l-298.038-298.038 5029.49-0.001v-128l-5029.49 0.001 298.038-298.038c24.993-24.992 24.993-65.517 0-90.509-24.994-24.998-65.516-24.998-90.51 0z" />
<glyph unicode="&#xe907;" glyph-name="arrow-very-long-right" horiz-adv-x="5248" d="M4821.958 897.255l407.296-407.293c24.992-24.994 24.992-65.516 0-90.51l-407.296-407.292c-24.992-24.998-65.51-24.998-90.509 0-24.992 24.992-24.992 65.517 0 90.509l298.042 298.038h-5029.491v128h5029.491l-298.042 298.038c-24.992 24.994-24.992 65.516 0 90.51 24.998 24.994 65.517 24.994 90.509 0z" />
<glyph unicode="&#xe908;" glyph-name="wedge1" horiz-adv-x="614" d="M614.4-64v1024l-614.4-1024h614.4z" />
<glyph unicode="&#xe909;" glyph-name="quote" horiz-adv-x="1707" d="M407.402 594.408c37.932 141.806 138.461 198.109 254.096 230.848 11.406 3.622 9.478 14.557 9.478 14.557l-17.038 112.696c0 0-1.923 9.090-17.038 7.243-405.893-41.755-678.973-338.093-631.56-698.041 49.266-250.886 254.096-347.182 439.974-321.746 187.724 29.116 316.702 196.352 286.415 376.286-24.673 159.984-163.122 272.677-324.326 278.157zM1378.401 594.401c159.363-7.326 299.674-120.014 324.341-278.155l-0.006-0.011c28.444-179.94-100.528-347.17-288.25-376.286-187.813-25.418-390.724 70.878-438.135 319.915-51.189 359.96 223.807 656.289 629.623 699.89 15.115 1.846 17.038-7.243 17.038-7.243l18.967-112.696c0 0 1.929-10.936-9.483-14.557-117.561-32.74-214.238-89.044-254.094-230.856z" />
<glyph unicode="&#xe90a;" glyph-name="arrow-right-long" horiz-adv-x="3151" d="M3113.771 406.226c23.072 23.071 23.072 60.477 0 83.547l-375.958 375.963c-23.072 23.071-60.479 23.071-83.551 0s-23.072-60.477 0-83.547l334.186-334.189-334.186-334.186c-23.072-23.072-23.072-60.479 0-83.551s60.479-23.072 83.551 0l375.958 375.963zM0 388.923h3072v118.154h-3072v-118.154z" />
<glyph unicode="&#xe90b;" glyph-name="arrow-short-left" horiz-adv-x="951" d="M497.371 835.657c14.629-14.629 14.629-21.943 0-36.571l-307.2-307.2h680.229c14.629 0 21.943-7.314 21.943-21.943v-58.514c0-14.629-7.314-21.943-21.943-21.943h-680.229l307.2-307.2c7.314-7.314 7.314-14.629 7.314-14.629 0-7.314 0-14.629-7.314-14.629l-36.571-36.571c-14.629-7.314-21.943-7.314-36.571 0l-416.914 402.286c-7.314 14.629-7.314 21.943 0 36.571l416.914 416.914c14.629 14.629 21.943 14.629 36.571 0l36.571-36.571z" />
<glyph unicode="&#xe90c;" glyph-name="hamburger" horiz-adv-x="1280" d="M0 919.5h1280v-153.6h-1280v153.6zM0 509.9h1280v-153.6h-1280v153.6zM0 100.301h1280v-153.6h-1280v153.6z" />
<glyph unicode="&#xe90d;" glyph-name="wedge2" horiz-adv-x="1654" d="M39.384-20.244h1575.385l-1575.385 945.234v-945.234z" />
<glyph unicode="&#xe90e;" glyph-name="close" d="M24.869 82.295l861.998 861.998 103.439-103.439-861.997-861.997-103.44 103.439zM122.392 960l861.999-861.998-103.444-103.439-861.995 861.997 103.44 103.44z" />
<glyph unicode="&#xe90f;" glyph-name="plus" d="M0 448c0 47.128 38.205 85.333 85.333 85.333h853.333c47.127 0 85.333-38.205 85.333-85.333s-38.207-85.333-85.333-85.333h-853.333c-47.128 0-85.333 38.205-85.333 85.333zM512 960c47.128 0 85.333-38.205 85.333-85.333v-853.333c0-47.127-38.205-85.333-85.333-85.333s-85.333 38.207-85.333 85.333v853.333c0 47.128 38.205 85.333 85.333 85.333z" />
<glyph unicode="&#xe910;" glyph-name="triangle-right" horiz-adv-x="383" d="M0.062 831.75l383.75-383.75-383.75-383.75v767.5z" />
<glyph unicode="&#xe911;" glyph-name="instagram" d="M512 867.8c136.8 0 153-0.6 206.8-3 50-2.2 77-10.6 95-17.6 23.8-9.2 41-20.4 58.8-38.2 18-18 29-35 38.4-58.8 7-18 15.4-45.2 17.6-95 2.4-54 3-70.2 3-206.8s-0.6-153-3-206.8c-2.2-50-10.6-77-17.6-95-9.2-23.8-20.4-41-38.2-58.8-18-18-35-29-58.8-38.4-18-7-45.2-15.4-95-17.6-54-2.4-70.2-3-206.8-3s-153 0.6-206.8 3c-50 2.2-77 10.6-95 17.6-23.8 9.2-41 20.4-58.8 38.2-18 18-29 35-38.4 58.8-7 18-15.4 45.2-17.6 95-2.4 54-3 70.2-3 206.8s0.6 153 3 206.8c2.2 50 10.6 77 17.6 95 9.2 23.8 20.4 41 38.2 58.8 18 18 35 29 58.8 38.4 18 7 45.2 15.4 95 17.6 53.8 2.4 70 3 206.8 3zM512 960c-139 0-156.4-0.6-211-3-54.4-2.4-91.8-11.2-124.2-23.8-33.8-13.2-62.4-30.6-90.8-59.2-28.6-28.4-46-57-59.2-90.6-12.6-32.6-21.4-69.8-23.8-124.2-2.4-54.8-3-72.2-3-211.2s0.6-156.4 3-211c2.4-54.4 11.2-91.8 23.8-124.2 13.2-33.8 30.6-62.4 59.2-90.8 28.4-28.4 57-46 90.6-59 32.6-12.6 69.8-21.4 124.2-23.8 54.6-2.4 72-3 211-3s156.4 0.6 211 3c54.4 2.4 91.8 11.2 124.2 23.8 33.6 13 62.2 30.6 90.6 59s46 57 59 90.6c12.6 32.6 21.4 69.8 23.8 124.2 2.4 54.6 3 72 3 211s-0.6 156.4-3 211c-2.4 54.4-11.2 91.8-23.8 124.2-12.6 34-30 62.6-58.6 91-28.4 28.4-57 46-90.6 59-32.6 12.6-69.8 21.4-124.2 23.8-54.8 2.6-72.2 3.2-211.2 3.2v0zM512 711c-145.2 0-263-117.8-263-263s117.8-263 263-263 263 117.8 263 263c0 145.2-117.8 263-263 263zM512 277.4c-94.2 0-170.6 76.4-170.6 170.6s76.4 170.6 170.6 170.6c94.2 0 170.6-76.4 170.6-170.6s-76.4-170.6-170.6-170.6zM846.8 721.4c0-33.91-27.49-61.4-61.4-61.4s-61.4 27.49-61.4 61.4c0 33.91 27.49 61.4 61.4 61.4s61.4-27.49 61.4-61.4z" />
<glyph unicode="&#xe912;" glyph-name="youtube" d="M1013.8 652.8c0 0-10 70.6-40.8 101.6-39 40.8-82.6 41-102.6 43.4-143.2 10.4-358.2 10.4-358.2 10.4h-0.4c0 0-215 0-358.2-10.4-20-2.4-63.6-2.6-102.6-43.4-30.8-31-40.6-101.6-40.6-101.6s-10.2-82.8-10.2-165.8v-77.6c0-82.8 10.2-165.8 10.2-165.8s10-70.6 40.6-101.6c39-40.8 90.2-39.4 113-43.8 82-7.8 348.2-10.2 348.2-10.2s215.2 0.4 358.4 10.6c20 2.4 63.6 2.6 102.6 43.4 30.8 31 40.8 101.6 40.8 101.6s10.2 82.8 10.2 165.8v77.6c-0.2 82.8-10.4 165.8-10.4 165.8zM406.2 315.2v287.8l276.6-144.4-276.6-143.4z" />
<glyph unicode="&#xe913;" glyph-name="twitter" d="M1024 733.6c-37.6-16.8-78.2-28-120.6-33 43.4 26 76.6 67.2 92.4 116.2-40.6-24-85.6-41.6-133.4-51-38.4 40.8-93 66.2-153.4 66.2-116 0-210-94-210-210 0-16.4 1.8-32.4 5.4-47.8-174.6 8.8-329.4 92.4-433 219.6-18-31-28.4-67.2-28.4-105.6 0-72.8 37-137.2 93.4-174.8-34.4 1-66.8 10.6-95.2 26.2 0-0.8 0-1.8 0-2.6 0-101.8 72.4-186.8 168.6-206-17.6-4.8-36.2-7.4-55.4-7.4-13.6 0-26.6 1.4-39.6 3.8 26.8-83.4 104.4-144.2 196.2-146-72-56.4-162.4-90-261-90-17 0-33.6 1-50.2 3 93.2-59.8 203.6-94.4 322.2-94.4 386.4 0 597.8 320.2 597.8 597.8 0 9.2-0.2 18.2-0.6 27.2 41 29.4 76.6 66.4 104.8 108.6z" />
<glyph unicode="&#xe914;" glyph-name="facebook" d="M608 768h160v192h-160c-123.514 0-224-100.486-224-224v-96h-128v-192h128v-512h192v512h160l32 192h-192v96c0 17.346 14.654 32 32 32z" />
<glyph unicode="&#xe915;" glyph-name="linkedin" d="M928 960h-832c-52.8 0-96-43.2-96-96v-832c0-52.8 43.2-96 96-96h832c52.8 0 96 43.2 96 96v832c0 52.8-43.2 96-96 96zM384 128h-128v448h128v-448zM320 640c-35.4 0-64 28.6-64 64s28.6 64 64 64c35.4 0 64-28.6 64-64s-28.6-64-64-64zM832 128h-128v256c0 35.4-28.6 64-64 64s-64-28.6-64-64v-256h-128v448h128v-79.4c26.4 36.2 66.8 79.4 112 79.4 79.6 0 144-71.6 144-160v-288z" />
<glyph unicode="&#xe916;" glyph-name="flickr" d="M800 544c-70.58 0-128-57.42-128-128s57.42-128 128-128c70.58 0 128 57.42 128 128s-57.42 128-128 128zM800 640v0c123.71 0 224-100.288 224-224 0-123.71-100.29-224-224-224s-224 100.29-224 224c0 123.712 100.29 224 224 224zM0 416c0 123.712 100.288 224 224 224s224-100.288 224-224c0-123.712-100.288-224-224-224s-224 100.288-224 224z" />
<glyph unicode="&#xe917;" glyph-name="angle-down" horiz-adv-x="658" d="M614.286 530.286c0-4.571-2.286-9.714-5.714-13.143l-266.286-266.286c-3.429-3.429-8.571-5.714-13.143-5.714s-9.714 2.286-13.143 5.714l-266.286 266.286c-3.429 3.429-5.714 8.571-5.714 13.143s2.286 9.714 5.714 13.143l28.571 28.571c3.429 3.429 8 5.714 13.143 5.714 4.571 0 9.714-2.286 13.143-5.714l224.571-224.571 224.571 224.571c3.429 3.429 8.571 5.714 13.143 5.714s9.714-2.286 13.143-5.714l28.571-28.571c3.429-3.429 5.714-8.571 5.714-13.143z" />
<glyph unicode="&#xe918;" glyph-name="angle-right" horiz-adv-x="347" d="M340 402.286c0-4.571-2.286-9.714-5.714-13.143l-266.286-266.286c-3.429-3.429-8.571-5.714-13.143-5.714s-9.714 2.286-13.143 5.714l-28.571 28.571c-3.429 3.429-5.714 8-5.714 13.143 0 4.571 2.286 9.714 5.714 13.143l224.571 224.571-224.571 224.571c-3.429 3.429-5.714 8.571-5.714 13.143s2.286 9.714 5.714 13.143l28.571 28.571c3.429 3.429 8.571 5.714 13.143 5.714s9.714-2.286 13.143-5.714l266.286-266.286c3.429-3.429 5.714-8.571 5.714-13.143z" />
<glyph unicode="&#xe919;" glyph-name="home" horiz-adv-x="951" d="M804.571 384v-274.286c0-20-16.571-36.571-36.571-36.571h-219.429v219.429h-146.286v-219.429h-219.429c-20 0-36.571 16.571-36.571 36.571v274.286c0 1.143 0.571 2.286 0.571 3.429l328.571 270.857 328.571-270.857c0.571-1.143 0.571-2.286 0.571-3.429zM932 423.428l-35.429-42.286c-2.857-3.429-7.429-5.714-12-6.286h-1.714c-4.571 0-8.571 1.143-12 4l-395.429 329.714-395.429-329.714c-4-2.857-8.571-4.571-13.714-4-4.571 0.571-9.143 2.857-12 6.286l-35.429 42.286c-6.286 7.429-5.143 19.429 2.286 25.714l410.857 342.286c24 20 62.857 20 86.857 0l139.429-116.571v111.429c0 10.286 8 18.286 18.286 18.286h109.714c10.286 0 18.286-8 18.286-18.286v-233.143l125.143-104c7.429-6.286 8.571-18.286 2.286-25.714z" />
<glyph unicode="&#xe91a;" glyph-name="globe" horiz-adv-x="878" d="M438.857 877.714c242.286 0 438.857-196.571 438.857-438.857s-196.571-438.857-438.857-438.857-438.857 196.571-438.857 438.857 196.571 438.857 438.857 438.857zM595.429 580c-4.571-3.429-7.429-9.714-13.143-10.857 2.857 0.571 5.714 10.857 7.429 13.143 3.429 4 8 6.286 12.571 8.571 9.714 4 19.429 5.143 29.714 6.857 9.714 2.286 21.714 2.286 29.143-6.286-1.714 1.714 12 13.714 13.714 14.286 5.143 2.857 13.714 1.714 17.143 6.857 1.143 1.714 1.143 12.571 1.143 12.571-9.714-1.143-13.143 8-13.714 16 0-0.571-1.143-2.286-3.429-4.571 0.571 8.571-10.286 2.286-14.286 3.429-13.143 3.429-11.429 12.571-15.429 22.286-2.286 5.143-8.571 6.857-10.857 12-2.286 3.429-3.429 10.857-8.571 11.429-3.429 0.571-9.714-12-10.857-11.429-5.143 2.857-7.429-1.143-11.429-3.429-3.429-2.286-6.286-1.143-9.714-2.857 10.286 3.429-4.571 9.143-9.714 8 8 2.286 4 10.857-0.571 14.857h2.857c-1.143 5.143-17.143 9.714-22.286 13.143s-32.571 9.143-38.286 5.714c-6.857-4 1.714-15.429 1.714-21.143 0.571-6.857-6.857-8.571-6.857-14.286 0-9.714 18.286-8 13.714-21.143-2.857-8-13.714-9.714-18.286-16-4.571-5.714 0.571-16 5.143-20 4.571-3.429-8-9.143-9.714-10.286-9.714-4.571-17.143 9.714-19.429 18.286-1.714 6.286-2.286 13.714-9.143 17.143-3.429 1.143-14.286 2.857-16.571-0.571-3.429 8.571-15.429 12-23.429 14.857-11.429 4-21.143 4-33.143 2.286 4 0.571-1.143 18.286-10.857 15.429 2.857 5.714 1.714 12 2.857 17.714 1.143 4.571 3.429 9.143 6.857 13.143 1.143 2.286 13.714 15.429 9.714 16 9.714-1.143 20.571-1.714 28.571 6.286 5.143 5.143 7.429 13.714 12.571 19.429 7.429 8.571 16.571-2.286 24.571-2.857 11.429-0.571 10.857 12 4.571 17.714 7.429-0.571 1.143 13.143-2.857 14.857-5.143 1.714-24.571-3.429-14.286-7.429-2.286 1.143-16-27.429-24-13.143-2.286 2.857-3.429 14.857-8.571 15.429-4.571 0-7.429-5.143-9.143-8.571 2.857 7.429-16 12.571-20 13.143 8.571 5.714 1.714 12-4.571 15.429-4.571 2.857-18.857 5.143-22.857 0.571-10.857-13.143 11.429-14.857 17.143-18.286 1.714-1.143 8.571-5.143 4.571-8-3.429-1.714-13.714-4.571-14.857-6.857-3.429-5.143 4-10.857-1.143-16-5.143 5.143-5.143 13.714-9.143 19.429 5.143-6.286-20.571-2.857-20-2.857-8.571 0-22.286-5.714-28.571 2.857-1.143 2.286-1.143 15.429 2.286 12.571-5.143 4-8.571 8-12 10.286-18.857-6.286-36.571-14.286-53.714-23.429 2.286-0.571 4-0.571 6.857 0.571 4.571 1.714 8.571 4.571 13.143 6.857 5.714 2.286 17.714 9.143 24 4 0.571 1.143 2.286 2.286 2.857 2.857 4-4.571 8-9.143 11.429-14.286-4.571 2.286-12 1.143-17.143 0.571-4-1.143-10.857-2.286-12.571-6.857 1.714-2.857 4-7.429 2.857-10.286-7.429 5.143-13.143 13.714-23.429 14.857-4.571 0-9.143 0-12.571-0.571-54.857-30.286-101.143-74.286-134.286-126.857 2.286-2.286 4.571-4 6.857-4.571 5.714-1.714 0-18.286 10.857-9.714 3.429-2.857 4-6.857 1.714-10.857 0.571 0.571 23.429-14.286 25.143-15.429 4-3.429 10.286-7.429 12-12 1.143-4-2.286-8.571-5.714-10.286-0.571 1.143-9.143 9.714-10.286 7.429-1.714-2.857 0-18.286 6.286-17.714-9.143-0.571-5.143-36-7.429-42.857 0-0.571 1.143-0.571 1.143-0.571-1.714-6.857 4-33.714 15.429-30.857-7.429-1.714 13.143-28 16-29.714 7.429-5.143 16-8.571 21.143-16 5.714-8 5.714-20 13.714-26.286-2.286-6.857 12-14.857 11.429-24.571-1.143-0.571-1.714-0.571-2.857-1.143 2.857-8 13.714-8 17.714-15.429 2.286-4.571 0-15.429 7.429-13.143 1.143 12.571-7.429 25.143-13.714 35.429-3.429 5.714-6.857 10.857-9.714 16.571-2.857 5.143-3.429 11.429-5.714 17.143 2.286-0.571 14.857-5.143 13.714-6.857-4.571-11.429 18.286-31.429 24.571-38.857 1.714-1.714 14.857-18.857 8-18.857 7.429 0 17.714-11.429 21.143-17.143 5.143-8.571 4-19.429 7.429-28.571 3.429-11.429 19.429-16.571 28.571-21.714 8-4 14.857-9.714 22.857-12.571 12-4.571 14.857-0.571 25.143 1.143 14.857 2.286 16.571-14.286 28.571-20.571 7.429-4 23.429-9.714 31.429-6.286-3.429-1.143 12-24.571 13.143-26.286 5.143-6.857 14.857-10.286 20.571-17.143 1.714 1.143 3.429 2.857 4 5.143-2.286-6.286 8.571-18.286 14.286-17.143 6.286 1.143 8 13.714 8 18.286-11.429-5.714-21.714-1.143-28 10.286-1.143 2.857-10.286 18.857-2.286 18.857 10.857 0 3.429 8.571 2.286 16.571s-9.143 13.143-13.143 20c-3.429-6.857-14.857-5.143-18.286 0.571 0-1.714-1.714-4.571-1.714-6.857-2.857 0-5.714-0.571-8.571 0.571 1.143 6.857 1.714 15.429 3.429 22.857 2.857 10.286 21.714 30.286-2.857 29.143-8.571-0.571-12-4-14.857-11.429-2.857-6.857-1.714-13.143-9.714-16.571-5.143-2.286-22.286-1.143-27.429 1.714-10.857 6.286-18.286 26.286-18.286 37.714-0.571 15.429 7.429 29.143 0 43.429 3.429 2.857 6.857 8.571 10.857 11.429 3.429 2.286 7.429-1.714 9.143 5.143-1.714 1.143-4 3.429-4.571 3.429 8.571-4 24.571 5.714 32 0 4.571-3.429 9.714-4.571 12.571 1.143 0.571 1.714-4 8.571-1.714 13.143 1.714-9.714 8-11.429 16.571-5.143 3.429-3.429 12.571-2.286 18.857-5.714 6.286-4 7.429-10.286 14.857-1.714 4.571-6.857 5.143-6.857 6.857-13.714 1.714-6.286 5.143-22.286 10.857-25.143 12-7.429 9.143 12.571 8 19.429-0.571 0.571-0.571 19.429-1.143 19.429-18.286 4-11.429 18.286-1.143 28 1.714 1.143 14.857 5.714 20.571 10.286 5.143 4.571 11.429 12.571 8.571 20 2.857 0 5.143 2.286 6.286 5.143-1.714 0.571-8.571 6.286-9.714 5.714 4 2.286 3.429 5.714 1.143 9.143 5.714 3.429 2.857 9.714 8.571 12 6.286-8.571 18.857 1.143 12.571 8 5.714 8 18.857 4 22.286 11.429 8.571-2.286 2.286 8.571 6.857 14.857 4 5.143 10.857 5.143 16 8 0-0.571 14.286 8 9.714 8.571 9.714-1.143 29.143 9.143 14.286 17.714 2.286 5.143-5.143 7.429-10.286 8.571 4 1.143 9.143-1.143 12.571 1.143 7.429 5.143 2.286 7.429-4 9.143-8 2.286-18.286-2.857-24.571-6.857zM502.286 78.857c78.286 13.714 148 52.571 200.571 108-3.429 3.429-9.714 2.286-14.286 4.571-4.571 1.714-8 3.429-13.714 4.571 1.143 11.429-11.429 15.429-19.429 21.143-7.429 5.714-12 12-22.857 9.714-1.143-0.571-12.571-4.571-10.286-6.857-7.429 6.286-10.857 9.714-20.571 12.571-9.143 2.857-15.429 14.286-24.571 4-4.571-4.571-2.286-11.429-4.571-16-7.429 6.286 6.857 13.714 1.143 20.571-6.857 8-18.857-5.143-24.571-8.571-3.429-2.857-7.429-4-9.714-7.429-2.857-4-4-9.143-6.286-13.143-1.714 4.571-11.429 3.429-12 6.857 2.286-13.714 2.286-28 5.143-41.714 1.714-8 0-21.143-6.857-27.429s-15.429-13.143-16.571-22.857c-1.143-6.857 0.571-13.143 6.857-14.857 0.571-8.571-9.143-14.857-8.571-24 0-0.571 0.571-6.286 1.143-9.143z" />
<glyph unicode="&#xe91b;" glyph-name="search1" horiz-adv-x="951" d="M658.286 475.428c0 141.143-114.857 256-256 256s-256-114.857-256-256 114.857-256 256-256 256 114.857 256 256zM950.857 0c0-40-33.143-73.143-73.143-73.143-19.429 0-38.286 8-51.429 21.714l-196 195.429c-66.857-46.286-146.857-70.857-228-70.857-222.286 0-402.286 180-402.286 402.286s180 402.286 402.286 402.286 402.286-180 402.286-402.286c0-81.143-24.571-161.143-70.857-228l196-196c13.143-13.143 21.143-32 21.143-51.429z" />
<glyph unicode="&#xe91c;" glyph-name="pinterest-p" horiz-adv-x="731" d="M0 609.714c0 210.857 193.143 341.143 388.571 341.143 179.429 0 342.857-123.429 342.857-312.571 0-177.714-90.857-374.857-293.143-374.857-48 0-108.571 24-132 68.571-43.429-172-40-197.714-136-329.143l-8-2.857-5.143 5.714c-3.429 36-8.571 71.429-8.571 107.429 0 116.571 53.714 285.143 80 398.286-14.286 29.143-18.286 64.571-18.286 96.571 0 57.714 40 130.857 105.143 130.857 48 0 73.714-36.571 73.714-81.714 0-74.286-50.286-144-50.286-216 0-49.143 40.571-83.429 88-83.429 131.429 0 172 189.714 172 290.857 0 135.429-96 209.143-225.714 209.143-150.857 0-267.429-108.571-267.429-261.714 0-73.714 45.143-111.429 45.143-129.143 0-14.857-10.857-67.429-29.714-67.429-2.857 0-6.857 1.143-9.714 1.714-81.714 24.571-111.429 133.714-111.429 208.571z" />
<glyph unicode="&#xe91d;" glyph-name="bars" horiz-adv-x="878" d="M877.714 182.857v-73.143c0-20-16.571-36.571-36.571-36.571h-804.571c-20 0-36.571 16.571-36.571 36.571v73.143c0 20 16.571 36.571 36.571 36.571h804.571c20 0 36.571-16.571 36.571-36.571zM877.714 475.428v-73.143c0-20-16.571-36.571-36.571-36.571h-804.571c-20 0-36.571 16.571-36.571 36.571v73.143c0 20 16.571 36.571 36.571 36.571h804.571c20 0 36.571-16.571 36.571-36.571zM877.714 768v-73.143c0-20-16.571-36.571-36.571-36.571h-804.571c-20 0-36.571 16.571-36.571 36.571v73.143c0 20 16.571 36.571 36.571 36.571h804.571c20 0 36.571-16.571 36.571-36.571z" />
<glyph unicode="&#xe91e;" glyph-name="close1" d="M810 664.667l-238-238 238-238-60-60-238 238-238-238-60 60 238 238-238 238 60 60 238-238 238 238z" />
<glyph unicode="&#xe91f;" glyph-name="bell-o" d="M521.143-18.286c0 5.143-4 9.143-9.143 9.143-45.143 0-82.286 37.143-82.286 82.286 0 5.143-4 9.143-9.143 9.143s-9.143-4-9.143-9.143c0-55.429 45.143-100.571 100.571-100.571 5.143 0 9.143 4 9.143 9.143zM140.571 146.286h742.857c-102.286 115.429-152 272-152 475.429 0 73.714-69.714 182.857-219.429 182.857s-219.429-109.143-219.429-182.857c0-203.429-49.714-360-152-475.429zM987.429 146.286c0-40-33.143-73.143-73.143-73.143h-256c0-80.571-65.714-146.286-146.286-146.286s-146.286 65.714-146.286 146.286h-256c-40 0-73.143 33.143-73.143 73.143 84.571 71.429 182.857 199.429 182.857 475.429 0 109.714 90.857 229.714 242.286 252-2.857 6.857-4.571 14.286-4.571 22.286 0 30.286 24.571 54.857 54.857 54.857s54.857-24.571 54.857-54.857c0-8-1.714-15.429-4.571-22.286 151.429-22.286 242.286-142.286 242.286-252 0-276 98.286-404 182.857-475.429z" />
<glyph unicode="&#xe920;" glyph-name="video" d="M960 768h-28.384c-16.8 0-32.928-6.624-44.928-18.432l-86.688-85.504v39.936c0 53.024-43.008 96-96 96h-608c-52.928 0-96-43.040-96-96v-512c0-52.992 42.976-96 96-96h608c52.992 0 96 43.008 96 96v39.072l86.688-85.504c12-11.808 28.128-18.432 44.928-18.432h28.384c35.328 0 64 28.64 64 64v512.864c0 35.36-28.672 64-64 64zM96 160c-17.664 0-32 14.368-32 32v512c0 17.696 14.304 32 32 32h608c17.632 0 32-14.336 32-32v-512c0-17.632-14.368-32-32-32h-608zM960 191.136h-32l-128 128v0.864l-32 32v192l160 160h32v-512.864z" />
<glyph unicode="&#xe921;" glyph-name="clipboard-text" d="M416 800v32.067c0 35.189 28.724 63.933 64.156 63.933h31.688c35.551 0 64.156-28.624 64.156-63.933v-32.067h64.142c17.624 0 31.858-14.312 31.858-31.967v-32.067c0-17.801-14.264-31.967-31.858-31.967h-288.283c-17.624 0-31.858 14.312-31.858 31.967v32.067c0 17.801 14.264 31.967 31.858 31.967h64.142zM384 832h-31.912c-35.343 0-64.004-28.521-64.088-64h-32.083c-35.301 0-63.918-28.472-63.918-64.115v-671.77c0-35.41 28.51-64.115 63.918-64.115h480.165c35.301 0 63.918 28.472 63.918 64.115v671.77c0 35.41-28.51 64.115-63.918 64.115h-32.083c-0.084 35.361-28.645 64-64.088 64h-31.912c-0.029 53.024-43.207 96-96.296 96h-31.408c-53.165 0-96.267-42.82-96.296-96v0 0zM704 736h32.001c17.448 0 31.999-14.371 31.999-32.098v-671.803c0-18.053-14.326-32.098-31.999-32.098h-480.003c-17.448 0-31.999 14.371-31.999 32.098v671.803c0 18.053 14.326 32.098 31.999 32.098h32.001c0.084-35.361 28.645-64 64.088-64h287.823c35.343 0 64.004 28.521 64.088 64v0 0zM496 800c8.837 0 16 7.163 16 16s-7.163 16-16 16c-8.837 0-16-7.163-16-16s7.163-16 16-16v0zM288 544v-32h416v32h-416zM288 448v-32h416v32h-416zM288 352v-32h416v32h-416zM288 256v-32h416v32h-416zM288 160v-32h416v32h-416z" />
<glyph unicode="&#xe922;" glyph-name="bubbles" horiz-adv-x="1152" d="M1088 58.834c0-45.5 26.028-84.908 64-104.184v-15.938c-10.626-1.454-21.472-2.224-32.5-2.224-68.008 0-129.348 28.528-172.722 74.264-26.222-6.982-54.002-10.752-82.778-10.752-159.058 0-288 114.616-288 256s128.942 256 288 256c159.058 0 288-114.616 288-256 0-55.348-19.764-106.592-53.356-148.466-6.824-14.824-10.644-31.312-10.644-48.7zM512 960c278.458 0 504.992-180.614 511.836-405.52-49.182 21.92-103.586 33.52-159.836 33.52-95.56 0-185.816-33.446-254.138-94.178-70.846-62.972-109.862-147.434-109.862-237.822 0-44.672 9.544-87.888 27.736-127.788-5.228-0.126-10.468-0.212-15.736-0.212-27.156 0-53.81 1.734-79.824 5.044-109.978-109.978-241.25-129.7-368.176-132.596v26.916c68.536 33.578 128 94.74 128 164.636 0 9.754-0.758 19.33-2.164 28.696-115.796 76.264-189.836 192.754-189.836 323.304 0 229.75 229.23 416 512 416z" />
<glyph unicode="&#xe923;" glyph-name="automobile" horiz-adv-x="1170" d="M274.286 329.143c0 50.286-41.143 91.429-91.429 91.429s-91.429-41.143-91.429-91.429 41.143-91.429 91.429-91.429 91.429 41.143 91.429 91.429zM294.857 512h580.571l-50.857 204c-1.714 6.286-13.143 15.429-20 15.429h-438.857c-6.857 0-18.286-9.143-20-15.429zM1078.857 329.143c0 50.286-41.143 91.429-91.429 91.429s-91.429-41.143-91.429-91.429 41.143-91.429 91.429-91.429 91.429 41.143 91.429 91.429zM1170.286 384v-219.429c0-10.286-8-18.286-18.286-18.286h-54.857v-73.143c0-60.571-49.143-109.714-109.714-109.714s-109.714 49.143-109.714 109.714v73.143h-585.143v-73.143c0-60.571-49.143-109.714-109.714-109.714s-109.714 49.143-109.714 109.714v73.143h-54.857c-10.286 0-18.286 8-18.286 18.286v219.429c0 70.857 57.143 128 128 128h16l60 239.429c17.714 72 87.429 126.286 161.714 126.286h438.857c74.286 0 144-54.286 161.714-126.286l60-239.429h16c70.857 0 128-57.143 128-128z" />
<glyph unicode="&#xe924;" glyph-name="NMH-Social" horiz-adv-x="1582" d="M30.416 453.069v506.931h101.386l207.842-339.644v339.644h96.317v-506.931h-101.386l-202.772 329.505v-329.505h-101.386zM542.416 453.069v506.931h152.079l91.248-344.713 91.248 344.713h152.079v-506.931h-96.317v400.475l-101.386-400.475h-96.317l-101.386 400.475v-400.475h-91.248zM1135.525 453.069v506.931h101.386v-197.703h202.772v197.703h101.386v-506.931h-101.386v223.050h-202.772v-223.050h-101.386zM0 72.871l76.040 10.139c5.069-25.347 15.208-45.624 30.416-55.762s35.485-20.277 60.832-20.277c25.347 0 45.624 5.069 60.832 15.208s20.277 25.347 20.277 40.554c0 10.139-5.069 15.208-10.139 25.347-5.069 5.069-15.208 10.139-30.416 15.208-10.139 5.069-30.416 10.139-65.901 15.208-40.554 10.139-70.97 25.347-91.248 40.554-25.347 20.277-35.485 50.693-35.485 81.109 0 20.277 5.069 40.554 15.208 55.762s30.416 30.416 50.693 40.554c20.277 10.139 50.693 15.208 81.109 15.208 50.693 0 86.178-10.139 111.525-30.416s40.554-50.693 40.554-86.178l-81.109-5.069c-5.069 20.277-10.139 35.485-20.277 45.624s-30.416 15.208-50.693 15.208c-25.347 0-40.554-5.069-55.762-15.208-10.139-5.069-15.208-15.208-15.208-25.347s5.069-15.208 10.139-25.347c10.139-10.139 35.485-15.208 76.040-25.347s65.901-20.277 86.178-30.416c20.277-10.139 35.485-25.347 45.624-40.554s15.208-40.554 15.208-65.901c0-25.347-5.069-45.624-20.277-65.901s-30.416-35.485-55.762-45.624-50.693-15.208-86.178-15.208c-50.693 0-91.248 10.139-116.594 35.485s-40.554 60.832-45.624 101.386zM375.129 93.149c0 25.347 5.069 50.693 20.277 76.040 10.139 25.347 30.416 40.554 55.762 55.762 25.347 10.139 50.693 20.277 76.040 20.277 45.624 0 81.109-15.208 106.455-40.554s40.554-65.901 40.554-106.455c0-45.624-15.208-81.109-40.554-106.455-30.416-30.416-65.901-45.624-106.455-45.624-25.347 0-50.693 5.069-76.040 20.277-25.347 10.139-40.554 30.416-55.762 50.693-15.208 15.208-20.277 45.624-20.277 76.040zM451.168 88.079c0-30.416 5.069-50.693 20.277-65.901s30.416-25.347 50.693-25.347 35.485 10.139 50.693 25.347c15.208 15.208 20.277 35.485 20.277 65.901s-5.069 50.693-20.277 65.901c-15.208 15.208-30.416 25.347-50.693 25.347s-35.485-10.139-50.693-25.347-20.277-35.485-20.277-65.901zM983.446 148.911l-76.040-15.208c-5.069 15.208-10.139 25.347-15.208 35.485s-20.277 10.139-35.485 10.139c-20.277 0-35.485-5.069-45.624-20.277s-15.208-35.485-15.208-65.901c0-35.485 5.069-60.832 15.208-70.97 10.139-15.208 25.347-20.277 45.624-20.277 15.208 0 25.347 5.069 35.485 10.139s15.208 20.277 20.277 40.554l76.040-15.208c-10.139-35.485-20.277-60.832-45.624-76.040-20.277-15.208-50.693-25.347-91.248-25.347s-76.040 15.208-101.386 40.554c-25.347 25.347-35.485 65.901-35.485 111.525s10.139 86.178 35.485 111.525 60.832 40.554 101.386 40.554c35.485 0 60.832-5.069 86.178-20.277s35.485-40.554 45.624-70.97zM1044.277 275.644v70.97h76.040v-70.97h-76.040zM1044.277-53.861v288.95h76.040v-288.95h-76.040zM1257.188 143.842l-70.97 10.139c10.139 30.416 20.277 50.693 40.554 60.832 20.277 15.208 45.624 20.277 86.178 20.277 35.485 0 60.832-5.069 76.040-10.139 15.208-10.139 30.416-20.277 35.485-30.416s10.139-35.485 10.139-70.97v-91.248c0-25.347 0-45.624 5.069-55.762 0-10.139 5.069-25.347 15.208-40.554h-76.040c0 5.069-5.069 10.139-5.069 20.277 0 5.069 0 5.069-5.069 10.139-15.208-15.208-25.347-20.277-40.554-30.416-15.208-5.069-30.416-10.139-45.624-10.139-30.416 0-50.693 10.139-70.97 25.347-15.208 15.208-25.347 35.485-25.347 60.832 0 15.208 5.069 30.416 10.139 45.624 10.139 15.208 20.277 20.277 30.416 30.416 15.208 5.069 35.485 15.208 60.832 20.277 35.485 5.069 60.832 15.208 76.040 20.277v10.139c0 15.208-5.069 25.347-10.139 30.416s-20.277 10.139-40.554 10.139c-15.208 0-25.347-5.069-30.416-10.139s-25.347-10.139-25.347-25.347zM1358.574 83.010c-10.139-5.069-25.347-5.069-45.624-10.139s-35.485-10.139-40.554-15.208c-10.139-5.069-15.208-15.208-15.208-25.347s5.069-20.277 10.139-25.347c10.139-10.139 20.277-10.139 30.416-10.139 15.208 0 25.347 5.069 40.554 15.208 10.139 5.069 15.208 15.208 20.277 25.347 0 5.069 5.069 20.277 5.069 35.485v10.139zM1505.584-53.861v400.475h76.040v-400.475h-76.040z" />
<glyph unicode="&#xe925;" glyph-name="clipboard-text2" d="M416 800v32.067c0 35.189 28.724 63.933 64.156 63.933h31.688c35.551 0 64.156-28.624 64.156-63.933v-32.067h64.142c17.624 0 31.858-14.312 31.858-31.967v-32.067c0-17.801-14.264-31.967-31.858-31.967h-288.283c-17.624 0-31.858 14.312-31.858 31.967v32.067c0 17.801 14.264 31.967 31.858 31.967h64.142zM704 768h32.083c35.408 0 63.918-28.705 63.918-64.115v-671.77c0-35.643-28.617-64.115-63.918-64.115h-480.165c-35.408 0-63.918 28.705-63.918 64.115v671.77c0 35.643 28.617 64.115 63.918 64.115h32.083c0-0.052 0-0.104 0-0.156v-31.688c0-35.432 28.593-64.156 64.088-64.156h287.823c35.395 0 64.088 28.605 64.088 64.156v31.688c0 0.052 0 0.104 0 0.156v0 0zM496 800c8.837 0 16 7.163 16 16s-7.163 16-16 16c-8.837 0-16-7.163-16-16s7.163-16 16-16v0zM288 544v-32h416v32h-416zM288 448v-32h416v32h-416zM288 352v-32h416v32h-416zM288 256v-32h416v32h-416zM288 160v-32h416v32h-416z" />
<glyph unicode="&#xe926;" glyph-name="instagram-with-circle" d="M665.6 460.8c0-84.838-68.762-153.6-153.6-153.6s-153.6 68.762-153.6 153.6c0 8.755 0.922 17.306 2.509 25.6h-53.709v-204.646c0-14.234 11.52-25.754 25.754-25.754h358.144c14.182 0 25.702 11.52 25.702 25.754v204.646h-53.709c1.587-8.294 2.509-16.845 2.509-25.6zM512 358.4c56.525 0 102.4 45.875 102.4 102.4s-45.875 102.4-102.4 102.4-102.4-45.875-102.4-102.4 45.875-102.4 102.4-102.4zM634.88 568.32h61.389c8.499 0 15.411 6.912 15.411 15.36v61.389c0 8.499-6.912 15.411-15.411 15.411h-61.389c-8.499 0-15.411-6.912-15.411-15.411v-61.389c0.051-8.448 6.963-15.36 15.411-15.36zM512 952.32c-271.462 0-491.52-220.058-491.52-491.52s220.058-491.52 491.52-491.52c271.462 0 491.52 220.058 491.52 491.52s-220.058 491.52-491.52 491.52zM768 261.683c0-31.283-25.6-56.883-56.883-56.883h-398.234c-31.283 0-56.883 25.6-56.883 56.883v398.234c0 31.283 25.6 56.883 56.883 56.883h398.234c31.283 0 56.883-25.6 56.883-56.883v-398.234z" />
<glyph unicode="&#xe927;" glyph-name="youtube-with-circle" d="M594.074 469.35l-114.995 53.658c-10.035 4.659-18.278-0.563-18.278-11.674v-101.069c0-11.11 8.243-16.333 18.278-11.674l114.944 53.658c10.086 4.71 10.086 12.39 0.051 17.101zM512 952.32c-271.462 0-491.52-220.058-491.52-491.52s220.058-491.52 491.52-491.52 491.52 220.058 491.52 491.52-220.058 491.52-491.52 491.52zM512 261.12c-251.597 0-256 22.682-256 199.68s4.403 199.68 256 199.68 256-22.682 256-199.68-4.403-199.68-256-199.68z" />
<glyph unicode="&#xe928;" glyph-name="twitter-with-circle" d="M512 952.32c-271.462 0-491.52-220.058-491.52-491.52s220.058-491.52 491.52-491.52 491.52 220.058 491.52 491.52-220.058 491.52-491.52 491.52zM711.936 549.683c0.205-4.198 0.256-8.397 0.256-12.493 0-128-97.331-275.507-275.405-275.507-54.682 0-105.574 15.974-148.378 43.52 7.526-0.922 15.258-1.28 23.091-1.28 45.363 0 87.091 15.411 120.218 41.421-42.342 0.819-78.080 28.774-90.419 67.174 5.888-1.075 11.93-1.69 18.176-1.69 8.806 0 17.408 1.178 25.498 3.379-44.288 8.909-77.67 48.026-77.67 94.925v1.178c13.056-7.219 28.006-11.622 43.878-12.134-26.010 17.408-43.059 47.002-43.059 80.64 0 17.715 4.762 34.406 13.107 48.691 47.77-58.573 119.040-97.075 199.526-101.222-1.69 7.117-2.509 14.49-2.509 22.118 0 53.402 43.315 96.819 96.819 96.819 27.802 0 52.992-11.776 70.656-30.618 22.067 4.403 42.752 12.39 61.44 23.501-7.219-22.579-22.528-41.574-42.547-53.606 19.61 2.406 38.246 7.578 55.603 15.309-12.954-19.405-29.389-36.506-48.282-50.125z" />
<glyph unicode="&#xe929;" glyph-name="flickr-with-circle" d="M512 952.32c-271.462 0-491.52-220.058-491.52-491.52s220.058-491.52 491.52-491.52 491.52 220.058 491.52 491.52-220.058 491.52-491.52 491.52zM380.723 358.4c-56.115 0-101.478 45.824-101.478 102.4s45.414 102.4 101.478 102.4c56.013 0 101.478-45.824 101.478-102.4s-45.517-102.4-101.478-102.4zM643.328 358.4c-56.064 0-101.53 45.824-101.53 102.4s45.466 102.4 101.53 102.4c56.115 0 101.478-45.824 101.478-102.4s-45.414-102.4-101.478-102.4z" />
<glyph unicode="&#xe92a;" glyph-name="facebook-with-circle" d="M512 952.32c-271.462 0-491.52-220.058-491.52-491.52s220.058-491.52 491.52-491.52 491.52 220.058 491.52 491.52-220.058 491.52-491.52 491.52zM628.429 612.659h-73.882c-8.755 0-18.483-11.52-18.483-26.829v-53.35h92.416l-13.978-76.083h-78.438v-228.403h-87.194v228.403h-79.104v76.083h79.104v44.749c0 64.205 44.544 116.378 105.677 116.378h73.882v-80.947z" />
<glyph unicode="&#xe92b;" glyph-name="pause" horiz-adv-x="683" d="M49.076 960h170.666v-1024h-170.666v1024zM463.258 960h170.667v-1024h-170.667v1024z" />
<glyph unicode="&#xe92c;" glyph-name="left-Chevron" horiz-adv-x="585" d="M22.115 447.997l37.133 43.409 401.653 468.594 101.983-86.816-364.516-425.182 364.516-425.186-101.983-86.816-438.784 511.997z" />
<glyph unicode="&#xe92d;" glyph-name="right-Chevron" horiz-adv-x="585" d="M562.884 447.997l-37.133 43.409-401.653 468.594-101.983-86.816 364.516-425.182-364.516-425.186 101.983-86.816 438.786 511.997z" />
<glyph unicode="&#xe92e;" glyph-name="play" d="M85.334 960l853.333-512-853.333-512z" />
<glyph unicode="&#xe92f;" d="M511.983 919.626c-260.048 0-471.609-211.568-471.609-471.621s211.562-471.636 471.609-471.636c260.069 0 471.648 211.574 471.648 471.636s-211.58 471.621-471.648 471.621zM511.995-8.966c-252.371 0-456.959 204.6-456.959 456.965s204.588 456.971 456.959 456.971c252.388 0 456.977-204.6 456.977-456.971s-204.589-456.965-456.977-456.965z" />
<glyph unicode="&#xe930;" d="M511.983 960c-282.309 0-511.983-229.681-511.983-511.995s229.675-512.005 511.983-512.005c282.33 0 512.017 229.681 512.017 512.005s-229.687 511.995-512.017 511.995zM511.983-23.632c-260.048 0-471.609 211.574-471.609 471.636s211.562 471.621 471.609 471.621c260.069 0 471.648-211.568 471.648-471.621s-211.58-471.636-471.648-471.636z" />
<glyph unicode="&#xe931;" d="M201.014 327.443c-3.309 8.61-14.434 15.94-34.364 8.291-15.403-5.911-28.785-17.975-23.161-32.622 3.999-10.421 14.88-15.764 33.301-8.695 17.512 6.72 29.666 18.832 24.224 33.026z" />
<glyph unicode="&#xe932;" d="M306.955 754.751c1.069-1.661 1.972-2.451 2.789-2.512 0.821-0.060 3.125 1.226 6.449 3.363 7.746 4.984 7.514 12.658 3.598 18.75-5.072 7.888-13.494 9.718-21.108 4.821-4.709-3.025-5.165-3.52-3.122-6.705l11.394-17.718z" />
<glyph unicode="&#xe933;" d="M511.995 904.97c-252.371 0-456.959-204.6-456.959-456.971s204.588-456.965 456.959-456.965c252.388 0 456.977 204.6 456.977 456.965s-204.589 456.971-456.977 456.971zM852.915 630.824c9.328 4.117 11.943 4.727 10.421 11.432l-0.363 1.642c-0.079 1.401 3.321 3.079 4.498 1.624 4.721-9.069 8.875-17.672 13.458-28.064 4.849-10.994 7.403-20.474 7.934-27.798 1.045-15.009-6.538-27.166-20.54-33.346-13.108-5.775-25.6-3.55-36.523 5.307-6.672 5.331-12.008 13.766-16.791 24.61-2.917 6.623-5.265 14.402-7.065 18.469-1.328 3.009-4.003 8.667-6.689 13.959 0.139 1.317 2.868 2.88 4.299 2.074l1.624-2.88c3.061-5.31 5.518-4.761 15.463-0.377l30.273 13.346zM775.373 412.967c3.339 1.546 8.405 7.131 12.661 8.731 7.826 2.933 10.444 4.224 11.236 4.792l0.115 0.449s0.508-0.001-0.115-0.449c-2.451-9.642-5.369-21.036-12.975-27.935-8.562-7.771-15.963-6.726-20.094-12.227-7.861-10.487-25.757-23.589-25.757-23.589s-0.888 20.087-0.447 20.528c6.11 9.171 3.93 20.963-13.114 18.336-10.342-1.594-23.124 1.757-22.702-1.304 0.815-5.705 26.216-3.061 27.955-3.496 10.916 1.304 2.185-14.847 2.185-14.847s-0.441-51.092 0-50.656c6.123-14.853-0.441-13.102-4.812-21.404-2.246-4.275-7.288-9.618-39.952-29.47-4.583-2.783-10.168-9.986-15.070-12.667-3.526-1.926-11.224-4.932-21.615-9.835-11.351-8.29-15.402-8.477-22.714-10.475-18.119-7.415-15.517-10.681-25.54-14.406-11.242-4.184-21.639-4.806-31.444-4.806v42.355c6.111 7.861 5.229 13.627 3.925 18.789-1.311 5.15-6.98 8.296-28.818 12.661 0 0 14.853-1.316 25.763 0 9.811 0 19.333 0.194 30.575 4.366 10.023 3.725 7.42 6.986 25.54 14.412 7.312 2.005 11.363 2.192 22.714 10.482 10.391 4.896 18.089 7.903 21.615 9.829 4.903 2.675-0.869 3.266 18.343 12.009 0 0 30.521 17.304 34.5 29.253 0.882 2.621 11.23 8.471 2.18 10.488-3.931 0.864-2.18-1.751-2.18-1.751-12.655-18.349-34.5-28.389-34.5-28.389v32.749c-1.31 11.369 1.751 13.114 10.928 13.114 31.867 4.365 79.916 21.398 105.666 55.456-1.739-22.276-4.353-12.229-9.159-18.777-3.116-6.189-3.062-9.606-3.062-9.606s-1.745-4.366-14.846-6.557c-3.936-3.924-1.624-4.998-4.806-7.42-4.069-3.103-15.058-4.715-20.081-7.426-6.297-3.387-6.315-7.614-6.545-8.477 0.422 1.491 18.343 4.341 24.447 7.172zM508.946 279.335s-11.785-1.751-11.785-0.882c0 0.882-1.54 26.186-1.54 34.131 0 4.017-1.423 19.331 10.693 36.842-29.844 0.66-50.795 3.798-50.795 3.798l0.525 5.548c23.37-4.257 48.172-5.038 69.25-4.492l-0.19 9.253c-74.721 0.165-188.55 6.196-247.272 148.601h100.482c-70.342-78.264 103.655-151.664 154.409-129.035-81.040-1.049-142.196 40.592-151.544 83.31 3.425-2.152 7.282-3.383 11.372-3.383h23.726c5.285-38.393 42.866-66.007 80.488-68.818-27.575 15.179-54.908 40.107-60.631 68.818h156.394c-0.77-16.744-3.777-32.327-9.559-40.797 13.472 11.435 20.117 25.869 22.347 40.797h12.014c4.073 0 7.917 1.217 11.331 3.349-8.137-31.319-34.069-64.128-70.024-79.582 49.596 12.911 76.375 43.983 83.402 77.22h0.685v3.489c2.781 16.435 0.76 33.238-5.664 48.545-2.874 4.998-9.372 13.746-22.37 19.884 3.85 3.844 2.651 8.029 1.114 10.757-5.163 4.866-10.997 9.259-17.5 13.040 8.465 60.287 141.851 105.845 156.534-21.15 8.512-73.601-100.541-164.702-207.777-174.189l0.168-9.044c18.317 1.299 30.444 3.168 30.444 3.168l-0.525-5.023c-13.178-1.981-26.277-3.122-38.738-3.699 4.282-8.415 4.454-6.088 29.481-6.088 29.881 0.266 32-23.529 32-23.529-13.652-2.343-29.499-9.949-36.889-11.452-1.195-0.004-2.345 0.003-3.476 0.026-0.444 0.234-0.734 0.591-0.734 1.186-5.277 6.883-24.308 4.764-31.191-2.113l-1.177-27.617c3.918-2.186-17.48-0.869-17.48-0.869zM481.78 314.625c-17.458 2.113-51.903 5.283-52.178 5.549-0.257 0.259 0.8 17.449 17.717 26.432 14.283-4.492 40.592-3.628 40.592-3.628s-11.423-14.605-6.131-28.353zM330.136 555.168c3.26-0.773 9.977 11.958-3.058 21.009-13.017 9.044-31.287 22.581-19.563 55.456 7.089 19.858 27.182 35.981 27.182 35.981s-5.621-33.596 12.018-47.272c17.639-13.678 31.197-56.555-9.941-92.172-6.147-5.325-6.029 3.324-23.659 16.32-16.866 12.455-26.258 31.179-11.915 52.332 1.829 2.693-2.325-11.009 16.941-19.761 20.109-9.12 0.858-19.237 11.994-21.894zM339.419 683.729s39.182-14.143 13.422-52.486c0 0-16.604-0.145-11.722 22.654 4.876 22.805-1.7 29.832-1.7 29.832zM462.589 535.4c-7.403 8.987 0 14.811 0 14.811h59.030v8.981h-27.502v-4.748h-7.399v4.748h-8.462c13.748 31.212 49.715 39.146 70.865 0l-14.817 0.537v-10.575h33.854c7.939-7.931-0.526-13.754-0.526-13.754h-23.801v-7.93h37.555c4.676-5.428 8.061-17.53 9.87-31.801h-151.676c4.42 10.492 12.224 21.169 24.394 31.801h34.021c2.982-0.87 6.103-1.493 9.351-1.792v9.722h-44.757zM604.125 535.932h-26.976s5.288 10.047-1.051 13.747h24.852s13.741-4.223 3.175-13.747zM611.527 527.998c12.578-9.050 18.757-22.429 19.681-37.517-3.994 3.266-8.754 5.188-13.879 5.188h-13.398c-2.637 12.269-7.261 23.583-12.51 32.329 0.543 0.529 20.105 0 20.105 0zM454.468 535.932h-24.866c-10.569 9.524 3.173 13.747 3.173 13.747h22.744c-7.131-5.814-1.051-13.747-1.051-13.747zM437.007 527.47c-8.448-10.876-14.127-21.537-17.506-31.801h-26.95c-3.58 0-6.972-0.969-10.063-2.644 4.199 12.576 13.722 24.457 29.662 34.445h24.857zM398.031 481.59s9.141 12.184 18.708 0c0 0 6.804 12.588 16.153 0 0 0 1.917-7.268 12.12-1.712-2.717 3.080-7.168 6.77-12.12 5.274 8.655 8.269 22.099-2.028 22.099-2.028s9.144 12.172 18.702 0c0 0 6.805 12.588 16.156 0 0 0 1.926-7.414 12.326-1.615 0.379 0.211 0.67 0.369 0.991 0.546-2.656 2.33-6.129 4.242-9.917 3.098 8.652 8.269 22.11-2.028 22.11-2.028s9.135 12.172 18.698 0c0 0 6.805 12.588 16.151 0 0 0 1.92-7.414 12.317-1.615 0.479 0.266 0.865 0.477 1.252 0.688-2.635 2.261-6.034 4.075-9.741 2.955 8.658 8.269 22.11-2.028 22.11-2.028s9.129 12.172 18.692 0c0 0 6.811 12.588 16.145 0 0 0 1.932-7.414 12.335-1.615 10.198 5.678-1.274-1.63-1.274-1.63-8.549-16.311-18.282-3.646-18.282-3.646s-9.142-12.182-18.705 0c0 0-6.798-12.586-16.146 0 0 0-1.82 2.999-4.67 5.587-1.449-0.963-2.985-1.941-2.985-1.941-8.55-16.311-18.271-3.646-18.271-3.646s-9.153-12.182-18.705 0c0 0-6.798-12.586-16.157 0 0 0-1.733 2.883-4.481 5.434-1.376-0.91-2.752-1.787-2.752-1.787-8.537-16.311-18.27-3.646-18.27-3.646s-9.144-12.182-18.702 0c0 0-6.802-12.586-16.16 0 0 0-0.865 1.406-2.283 3.102-0.865-0.562-1.534-0.988-1.534-0.988-8.549-16.32-18.282-3.647-18.282-3.647s-9.141-12.178-18.699 0c0 0-6.808-12.589-16.16 0 0 0-6.792 11.36-14.874 8.921 8.66 8.263 22.101-2.028 22.101-2.028zM634.797 481.26c6.798-4.063-1.715-8.12-3.405-8.12s-4.251 1.629-4.251 1.629l-6.798-3.646s7.656 14.201 14.454 10.137zM387.41 473.14l-7.225 1.629s-2.56-1.629-4.256-1.629c-1.697 0-10.204 4.057-3.399 8.12 6.804 4.064 14.88-8.12 14.88-8.12zM806.376 719.629l-2.011 3.242c-0.072 1.643 2.56 3.37 3.798 2.895 3.803-5.177 7.637-10.122 11.81-15.215 3.96-4.842 8.054-9.582 12.051-13.957 0.223-1.307-1.992-3.544-3.592-3.145l-2.337 2.333c-4.359 4.299-6.587 3.118-14.998-3.758l-24.84-20.323c-3.948-3.233-7.559-6.612-8.048-9.141-0.181-1.848 0.598-4.619 6.321-11.626 7.928-9.681 10.228-11.197 22.527-7.514 1.467-0.499 2.801-2.388 2.403-3.985-5.121-3.345-13.109-7.106-17.54-8.181-5.476 7.209-11.707 15.082-16.809 21.325l-10.427 12.739c-4.172 5.097-8.254 9.83-12.257 14.207-0.223 1.31 1.986 3.544 3.587 3.152l2.337-2.337c4.365-4.298 6.593-3.118 14.997 3.762l26.5 21.676c8.411 6.877 9.744 8.615 6.526 13.85zM728.762 766.856c6.533 8.673 7.426 10.68 3.163 15.131l-1.382 1.455c-0.459 1.579 1.69 3.876 3.006 3.71 3.478-3.034 8.374-6.928 13.627-10.892l21.163-15.952c5.79-4.356 11.146-8.19 12.522-8.815-0.791-1.874-4.794-8.546-8.857-14.759-1.317-0.658-3.654 0.896-3.979 2.376 0.893 2.829 1.594 5.395 1.799 7.303 0.405 3.821-2.614 6.919-9.057 11.774l-6.968 5.253c-3.284 2.475-3.718 2.179-8.465-4.13l-8.127-10.778c-1.684-2.234-1.648-2.463 1.238-4.642l4.861-3.665c7.233-5.449 8.513-6.213 12.54-3.055l3.158 2.56c1.388 0.194 3.526-1.624 3.49-3.037-2.409-2.928-5.15-6.014-7.632-9.298-2.675-3.55-4.884-7.034-7.034-10.155-1.352-0.423-3.683 1.126-3.876 2.509l1.582 3.749c1.926 4.737 0.845 5.757-6.382 11.209l-4.866 3.665c-2.886 2.18-3.121 2.146-5.005-0.351l-6.141-8.147c-2.976-3.943-5.379-7.692-5.295-10.026 0.199-2.209 2.723-5.144 10.88-11.287 10.638-8.021 14.949-6.946 23.227-2.261 1.22-0.299 3.055-1.685 3.285-3.297-5.35-4.628-11.876-10.014-14.943-11.616-8.079 6.499-14.943 11.881-22.044 17.231l-14.061 10.602c-5.259 3.96-10.349 7.592-16.725 11.985-0.525 1.22 1.093 3.912 2.735 3.912l4.377-2.678c5.259-3.14 7.040-1.597 13.572 7.079l20.613 27.339zM657.323 766.555l14.678 30.931c4.655 9.811 5.265 12.253 0.048 15.457l-2.826 1.709c-0.773 1.455 0.87 4.142 2.192 4.244 5.211-2.838 10.79-5.669 16.737-8.489 5.651-2.681 11.375-5.216 16.863-7.462 0.767-1.087-0.284-4.052-1.895-4.377l-3.115 1.111c-5.785 2.017-7.288-0.006-11.943-9.817l-14.684-30.923c-4.649-9.814-5.265-12.259-0.048-15.465l2.838-1.709c0.76-1.455-0.875-4.139-2.198-4.238-5.211 2.837-10.789 5.663-16.441 8.349-5.947 2.823-11.671 5.356-17.165 7.598-0.761 1.090 0.289 4.048 1.902 4.38l3.115-1.114c5.778-2.014 7.288 0.003 11.942 9.814zM569.873 779.022l2.312-0.248c6.111-0.7 7.155 1.413 9.824 11.946l8.41 33.18c2.669 10.529 2.675 12.567-2.946 15.178l-1.515 0.725c-1.032 1.28 0.055 4.232 1.328 4.589 4.069-1.374 10.095-3.067 16.477-4.685l25.044-6.346c7.022-1.783 13.446-3.242 14.962-3.284-0.326-1.956-2.071-9.495-3.248-16.839-0.966-1.111-3.877-0.543-4.595 0.658 0.048 2.874-0.139 5.471-0.574 7.106-1.219 3.877-4.094 5.28-12.704 7.469l-7.818 1.977c-3.985 1.012-4.268 0.574-6.213-7.085l-3.399-13.397c-0.682-2.714-0.562-2.917 2.947-3.804l6.695-1.7c8.779-2.225 10.252-2.425 12.74 2.038l1.932 3.583c1.202 0.715 3.87-0.13 4.389-1.452-1.099-3.628-2.421-7.535-3.435-11.526-1.092-4.305-1.782-8.374-2.554-12.081-1.074-0.918-4.148-0.311-4.552 0.809l0.018 4.076c-0.060 5.108-1.455 5.631-10.228 7.855l-6.708 1.696c-3.508 0.894-3.707 0.773-4.474-2.258l-2.753-10.85c-2.668-10.53-2.753-12.888 2.989-15.016l4.184-1.573c1.195-1.323 0.109-4.272-1.329-4.586-6.78 2.055-12.805 3.75-18.861 5.289-5.586 1.413-11.206 2.669-17.353 3.888-0.954 0.918-0.507 4.033 1.008 4.667zM460.817 848.526c5.935-0.178 12.187-0.172 18.769-0.003 6.252 0.163 12.501 0.495 17.424 0.954 1.169-0.625 1.582-3.743 0.293-4.764l-2.301-0.392c-6.065-0.978-6.494-3.297-6.207-14.158l0.221-8.387c0.103-3.786 0.757-3.768 6.026-3.632l22.044 0.582c5.265 0.139 5.923 0.157 5.82 3.943l-0.217 8.387c-0.29 10.862-0.839 13.15-6.955 13.811l-2.638 0.263c-1.347 0.948-1.092 4.084 0.042 4.769 5.271-0.186 11.526-0.183 18.108-0.012 6.249 0.166 12.497 0.495 17.756 0.96 1.172-0.628 1.576-3.741 0.29-4.77l-2.626-0.392c-6.062-0.984-6.497-3.3-6.213-14.158l0.906-34.222c0.284-10.862 0.845-13.316 6.949-13.815l3.303-0.241c1.34-0.951 1.093-4.088-0.042-4.776-5.923 0.175-12.19 0.172-18.44 0.006-6.587-0.169-12.829-0.501-17.926-0.963-1.164 0.631-1.576 3.746-0.284 4.767l2.458 0.392c6.068 0.984 6.503 3.3 6.213 14.161l-0.296 11.348c-0.103 3.623-0.435 3.78-6.026 3.635l-22.044-0.586c-5.597-0.145-5.92-0.32-5.826-3.936l0.296-11.354c0.292-10.859 0.848-13.316 6.952-13.811l3.302-0.245c1.343-0.951 1.096-4.084-0.042-4.772-5.929 0.172-12.181 0.169-18.442 0.006-6.578-0.176-12.821-0.505-17.751-0.96-1.169 0.628-1.582 3.743-0.293 4.764l2.301 0.393c6.059 0.983 6.5 3.296 6.207 14.152l-0.897 34.225c-0.287 10.859-0.848 13.316-6.958 13.814l-3.297 0.239c-1.337 0.954-1.090 4.088 0.042 4.779zM453.043 662.854c20.878 7.454 61.597 5.491 63.321 5.404 1.512 0.088 42.225 2.047 63.109-5.404 16.042-5.736 16.586-7.022 16.193-8.978-0.060-0.299-0.284-1.029-1.087-1.488-0.193-12.456-0.374-31.143-0.079-33.745l0.054-0.238c0.93-4.015-0.187-7.176-0.924-9.271-0.217-0.61-0.507-1.425-0.537-1.799 0.072-0.003 0.278-0.097 0.64-0.196l0.555-0.154 0.386-0.429c3.266-3.632 4.389-6.735 3.429-9.491-1.938-5.561-11.623-7.215-23.891-9.31-5.223-0.891-10.626-1.814-15.668-3.097-0.888-0.229-1.697-0.438-2.433-0.634 0.405-0.033 0.773-0.075 1.093-0.124 3.719-0.571 5.766-2.035 5.615-4.021-0.229-3.049-5.023-3.049-7.070-3.049-2.036 0-5.175 0.121-8.171 0.609-2.238 2.935-4.994 5.573-8.185 7.826v14.303l1.896 0.057c11.055 0.335 30.026 0.519 33.038-2.056 1.636-1.093 11.182-0.655 13.253 0.885-0.205 0.22-0.616 0.58-1.401 1.060-12.124 2.255-37.005 5.727-69.823 4.133l-0.897-0.042-0.003 0.097c-31.393 2.364-65.395-3.52-69.126-4.19-0.785-0.477-1.189-0.836-1.395-1.057 2.074-1.537 11.626-1.992 13.286-0.863 2.983 2.554 21.947 2.382 33.002 2.035l1.899-0.057v-9.691c-1.331-0.553-2.626-1.153-3.87-1.815-1.511-0.804-2.952-1.683-4.32-2.635-3.507-2.439-6.496-5.345-8.86-8.593-2.27 0.027-6.17 0.296-6.379 3.044-0.151 1.986 1.896 3.451 5.618 4.021 0.32 0.048 0.688 0.091 1.090 0.124-0.737 0.196-1.546 0.405-2.433 0.634-5.041 1.283-10.445 2.207-15.668 3.097-12.269 2.095-21.956 3.749-23.888 9.31-0.957 2.753 0.169 5.86 3.438 9.494l0.383 0.426 0.555 0.151c0.583 0.163 0.749 0.302 0.749 0.305-0.081 0.075-0.411 1.008-0.652 1.691-0.74 2.092-1.86 5.256-0.93 9.271l0.057 0.245c0.293 2.617 0.115 21.295-0.081 33.745-0.8 0.459-1.026 1.186-1.087 1.485-0.392 1.953 0.151 3.242 16.196 8.978zM364.102 823.955c1.063-2.258 3.203-1.92 8.063-0.377l45.485 14.457c5.337 1.697 6.859 2.352 7.055 5.524 0.58 0.878 2.934 1.624 3.544 0.785 0.468-4.172 2.478-13.204 4.471-19.478-0.278-1.301-2.898-2.301-4.139-1.66-1.515 3.145-3.248 5.875-6.041 7.058-2.433 1.129-6.289 0.766-11.936-1.029l-4.079-1.295c-2.663-0.851-2.925-1.105-1.585-5.343l12.719-39.994c3.291-10.355 4.459-12.401 10.457-11.182l4.392 0.875c1.555-0.543 2.183-3.623 1.284-4.598-6.844-1.832-12.852-3.571-18.807-5.466-6.277-1.993-12.191-4.040-19.463-6.699-1.298 0.277-2.554 3.16-1.6 4.501l4.709 2.014c5.603 2.472 5.377 4.815 2.089 15.169l-12.712 39.997c-1.346 4.235-1.244 4.441-5.008 3.245l-4.86-1.546c-4.078-1.298-7.583-2.76-9.404-6.273-1.129-2.427-1.627-4.661-1.996-8.921-0.597-1.398-3.254-1.727-4.437-0.722-0.015 6.563-1.13 16.048-1.655 19.858 0.172 1.087 2.527 1.838 3.454 1.098zM268.981 766.334c4.996 3.798 14.412 10.442 24.519 16.944 9.006 5.785 16.088 9.365 22.868 10.397 7.586 0.969 14.352-1.334 18.714-8.118 4.991-7.749 2.174-15.237-1.666-20.833-0.749-1.268-0.263-2.325 2.002-3.414 12.136-6.089 22.297-9.724 28.73-10.291 3.734-0.332 6.623 0.35 8.507 1.371 1.099 0.114 2.255-1.685 1.833-2.542-1.078-1.672-3.113-3.375-7.819-6.4-8.724-5.61-15.723-6.591-26.068-2.675-5.941 2.243-13.549 6.156-18.029 8.562-3.125 1.51-5.28 0.906-7.912-0.785-2.346-1.516-2.448-1.969-1.117-4.045l5.341-8.305c5.875-9.132 7.629-10.943 13.105-8.203l2.953 1.497c1.639-0.114 3.052-2.922 2.439-4.1-5.16-2.931-10.509-6.173-15.776-9.555-5.531-3.562-10.702-7.085-15.511-10.566-1.323-0.069-3.285 2.382-2.717 3.928l2.587 2.059c4.772 3.843 3.852 6.189-2.029 15.324l-17.445 27.133c-7.209 11.212-8.121 11.408-13.362 9.213l-1.835-0.791c-1.377-0.295-3.566 2.798-2.31 4.193zM210.333 712.871c17.814 20.495 40.19 19.151 54.973 6.3 17.141-14.895 18.186-38.037 2.424-56.175-17.597-20.251-39.951-20.885-55.233-7.605-16.773 14.575-18.572 38.6-2.165 57.479zM137.808 588.641c1.486 3.303 2.349 5.624 4.006 10.111 4.060-0.203 9.47 0.975 20.509 4.664l20.71 7.106c4.712 1.666 13.355 4.818 15.454 5.862-1.069 0.839-2.271 1.382-5.579 2.868l-8.549 3.846c-6.457 2.908-11.611 4.688-13.476 5.347-6.056 2.183-8.483 2.008-10.753-1.838l-2.277-3.852c-1.44-0.794-4.142 0.425-4.217 2.261 2.46 4.67 4.169 8.051 6.258 12.706 1.966 4.347 3.088 7.27 5.355 13.108 1.211 1.081 4.199 0.1 4.489-1.654l-1.096-3.659c-1.292-4.474 0.332-6.47 5.597-9.202 1.887-1.026 6.705-3.556 13.162-6.46l22.509-10.134c3.001-1.35 15.161-6.82 17.697-7.601 0.398-0.718 0.401-2.708 0.072-3.46-0.205-0.45-0.413-0.9-0.826-1.434-2.778-0.556-7.3-1.77-20.806-6.518l-34.584-11.873c-8.066-2.684-13.956-4.547-16.263-5.673 3.016-1.718 7.967-3.946 12.615-6.041l10.059-4.525c6.451-2.902 11.608-4.682 13.473-5.34 6.059-2.186 8.637-2.083 11.176 2.37l1.857 3.315c1.437 0.799 4.145-0.42 4.217-2.262-2.599-4.963-4.302-8.35-6.258-12.703-1.963-4.35-3.094-7.272-5.362-13.108-1.208-1.081-4.193-0.097-4.483 1.657l1.096 3.656c1.292 4.474-0.402 6.322-5.597 9.198-1.892 1.029-6.705 3.559-13.156 6.463l-20.266 9.117c-8.555 3.852-10.342 4.299-12.818 3.608-1.669-0.513-4.828-4.326-5.809-5.694l-1.057-1.147c-1.379-0.643-4.241 1.008-4.148 2.412 3.014 5.5 5.172 10.3 7.068 14.503zM120.057 383.063l-0.414-4.552c-0.921-1.026-3.834-1.008-4.543 0.090 0.048 5.507-0.064 11.007-0.378 17.141-0.323 6.303-0.703 10.651-1.337 16.773 0.758 1.015 3.656 1.323 4.513 0.392l0.637-2.886c1.045-4.8 2.523-5.211 9.956-4.836l39.559 2.167-0.012 0.326c-6.974 3.369-13.274 6.285-25.371 11.665l-6.131 2.771c-7.284 3.189-19.166 7.602-24.112 9.298-0.365 0.791-0.549 1.268-0.592 2.077-0.039 0.809 0.088 1.461 0.386 1.963 5.413 1.889 15.662 7.269 20.547 9.944 10.708 6.049 21.572 11.948 32.477 17.355l-0.015 0.323c-6.789-0.344-11.801-0.441-16.335-0.344-6.491 0.16-16.006-0.489-22.309-0.806-7.592-0.389-9.377-0.317-9.968-4.555l-0.734-4.731c-0.918-1.020-3.514-0.987-4.528-0.069 0.081 4.704 0.066 8.26-0.145 12.461-0.175 3.394-0.571 7.904-1.21 14.189 0.591 1.162 3.643 1.636 4.525 0.226 1.032-7.556 2.206-8.468 9.035-8.932 2.113-0.218 10.382-0.441 23.819-0.411 7.284 0.048 15.718-0.172 21.029 0.422 5.003 0.411 7.348 1.992 7.934 6.551l0.345 2.771c0.917 1.014 3.991 1.014 4.534-0.094-0.048-5.506-0.027-9.069 0.266-14.88 0.241-4.685 0.477-9.367 1.171-13.379-7.918-0.404-15.927-5.343-22.545-8.918-8.030-4.456-16.223-8.918-22.65-13.132 6.478-3.237 14.097-6.569 21.896-10.228 5.304-2.482 16.078-7.438 25.401-9.232-0.191-5.838 0.005-9.558 0.175-12.944s0.631-9.202 1.198-14.189c-0.739-1.334-3-1.449-4.492-0.712l-0.607 2.397c-1.829 7.354-4.755 7.529-11.055 7.209-11.466-0.58-33.267-1.848-41.146-2.892-5.621-0.773-8.351-1.237-8.773-5.79zM137.579 301.361c-9.452 24.61 0.32 44.292 18.886 51.424 20.38 7.824 42.053-1.697 50.856-24.647 9.569-24.912-1.926-43.707-19.891-50.601-20.839-7.994-41.392 1.787-49.85 23.824zM214.744 185.496c-7.013 1.13-14.167 6.424-19.415 13.211-5.636 7.287-9.923 15.215-9.666 21.747 0.145 7.481 4.060 14.588 13.651 22.001l19.448 15.041c8.44 6.526 10.065 8.398 6.916 13.524l-1.718 2.759c-0.030 1.619 2.602 3.237 3.804 2.741 3.306-4.806 6.937-9.769 10.898-14.883 3.752-4.861 7.638-9.624 11.459-14.037 0.182-1.286-2.049-3.423-3.619-2.989l-2.228 2.355c-4.169 4.341-6.388 3.242-14.832-3.285l-18.035-13.947c-11.52-8.906-16.441-19.459-8.432-29.82 8.508-11.001 19.572-9.189 31.342-0.091l10.621 8.217c5.503 4.251 9.428 7.898 10.871 9.214 4.691 4.238 5.654 6.424 3.375 10.173l-2.294 3.749c-0.018 1.618 2.282 3.393 3.915 2.614 3.106-4.546 5.253-7.595 8.117-11.297 2.874-3.714 4.879-6.050 8.897-10.711 0.371-1.546-1.857-3.683-3.517-3.128l-2.657 2.651c-3.281 3.182-5.766 2.698-10.572-0.61-1.763-1.159-6.18-4.166-11.683-8.417l-11.254-8.706c-8.191-6.334-16.399-9.201-23.393-8.079zM351.649 150.592l-3.297 1.788c-4.052 2.131-6.295 0.96-9.965-3.568-1.361-1.606-4.757-5.743-8.833-11.375l-14.212-19.659c-1.893-2.62-9.57-13.235-10.832-15.517-0.767-0.242-2.684 0.145-3.335 0.621-0.399 0.284-0.788 0.568-1.214 1.075 0.015 2.784-0.26 7.372-2.153 21.313l-4.558 35.635c-0.99 8.296-1.612 14.339-2.237 16.779-2.249-2.56-5.38-6.883-8.314-10.946l-6.352-8.78c-4.078-5.633-6.805-10.246-7.816-11.912-3.303-5.392-3.713-7.891 0.066-11.218l2.825-2.445c0.471-1.54-1.228-3.906-3.015-3.611-4.266 3.484-7.182 5.796-10.983 8.544-3.798 2.753-6.384 4.42-11.554 7.759-0.8 1.382 0.737 4.057 2.488 3.991l3.297-1.788c4.052-2.131 6.158-0.863 9.962 3.569 1.365 1.612 4.757 5.747 8.833 11.375l12.794 17.691c5.403 7.468 6.183 9.099 6.010 11.623-0.154 1.709-3.203 5.506-4.323 6.714l-0.89 1.244c-0.348 1.455 1.805 3.888 3.139 3.52 4.692-3.992 8.888-7.029 12.552-9.679 2.886-2.089 4.951-3.381 8.939-5.869-1.005-3.864-0.938-9.298 0.423-20.661l2.726-21.331c0.664-4.872 1.986-13.808 2.578-16.030 1.018 0.858 1.775 1.908 3.864 4.789l5.398 7.469c4.078 5.633 6.81 10.24 7.822 11.906 3.3 5.398 3.611 7.765 0.356 10.717l-3.248 2.953c-0.483 1.546 1.223 3.9 3.009 3.611 4-3.297 6.923-5.603 10.983-8.549 3.803-2.741 6.388-4.414 11.554-7.753 0.8-1.376-0.74-4.057-2.488-3.991zM426.266 108.395c-1-0.839-3.632-0.036-4.203 1.214 0.73 3.351 1.041 6.515-0.402 9.123-1.198 2.343-4.405 4.396-9.866 6.424l-3.939 1.467c-2.575 0.96-2.934 0.924-4.459-3.176l-14.366-38.648c-3.716-10.010-4.048-12.304 1.328-14.992l3.925-1.974c0.872-1.365-0.501-4.13-1.787-4.341-6.397 2.73-12.1 5.018-17.866 7.162-6.062 2.252-11.876 4.244-19.118 6.587-0.833 1.002-0.063 3.997 1.483 4.456l4.872-1.292c5.832-1.48 7.073 0.471 10.792 10.475l14.369 38.654c1.519 4.094 1.724 4.19-1.914 5.543l-4.691 1.745c-3.943 1.461-7.538 2.458-11.073 0.839-2.349-1.201-4.087-2.626-6.955-5.694-1.301-0.724-3.562 0.628-3.867 2.126 3.964 5.078 8.839 13.101 10.747 16.362 0.791 0.743 3.061-0.103 3.333-1.238-0.543-2.391 1.315-3.423 6.007-5.169l43.961-16.344c5.156-1.914 6.729-2.331 8.803 0.012 0.981 0.32 3.261-0.531 3.218-1.546-2.162-3.514-6.074-11.713-8.332-17.775zM450.429 228.237c-9.803 0-20.196 0.622-31.433 4.806-10.035 3.725-7.436 6.991-25.546 14.406-7.323 1.998-11.36 2.185-22.714 10.475-10.391 4.903-18.089 7.909-21.621 9.835-4.9 2.681-10.494 9.883-15.070 12.667-32.667 19.852-37.7 25.195-39.955 29.47-4.365 8.302-10.916 6.551-4.809 21.404 0.444-0.435 0 50.656 0 50.656s-8.728 16.151 2.182 14.847c1.754 0.435 27.14-2.209 27.958 3.496 0.435 3.061-12.348-0.29-22.711 1.304-17.029 2.627-19.215-9.165-13.099-18.336 0.441-0.441-0.438-20.528-0.438-20.528s-17.911 13.102-25.772 23.589c-4.13 5.501-11.52 4.456-20.094 12.227-7.602 6.9-10.516 18.297-12.985 27.94-0.616 0.443-0.114 0.443-0.114 0.443l0.114-0.443c0.788-0.566 3.404-1.856 11.246-4.798 4.263-1.599 9.319-7.185 12.667-8.731 6.107-2.832 24.018-5.681 24.453-7.172-0.241 0.863-0.254 5.090-6.554 8.477-5.027 2.711-16.006 4.323-20.085 7.426-3.175 2.422-0.879 3.496-4.806 7.42-13.096 2.192-14.847 6.557-14.847 6.557s0.063 3.417-3.061 9.606c-4.797 6.548-7.417-3.499-9.165 18.777 25.766-34.059 73.802-51.092 105.684-55.456 9.168 0 12.232-1.745 10.919-13.114v-32.749s-21.838 10.040-34.502 28.389c0 0 1.748 2.615-2.183 1.751-9.041-2.017 1.308-7.867 2.183-10.488 3.985-11.949 34.502-29.253 34.502-29.253 19.213-8.743 13.44-9.334 18.34-12.009 3.531-1.926 11.23-4.933 21.621-9.829 11.354-8.291 15.39-8.477 22.714-10.482 18.11-7.426 15.511-10.686 25.546-14.412 11.237-4.172 20.758-4.366 30.563-4.366 10.917-1.316 25.769 0 25.769 0-21.832-4.365-27.514-7.511-28.824-12.661-1.316-5.162-2.183-10.928 3.925-18.789v-42.355zM453.928 215.577s0.021 2.151 0.049 5.41h3.703v52.093l-1.525 1.962c-4.082 5.253-3.689 8.374-2.623 12.552 0.121 0.471 1.805 3.055 23.218 7.336l-0.382 2.657c1.269 0.433 2.53 0.888 3.757 1.4 15.725 6.545 4.374 4.8 0.878 5.676-3.498 0.869-4.803 3.924 0.872 3.924s10.916-1.739 10.916-4.8v-18.56s-21.832-1.093-24.015 1.969c-2.182 3.061-18.348 0.863-10.484-6.557 5.682-1.745 25.766-7.427 53.504-5.235 1.539 0.121 0 0 0 0 22.666-2.915 47.842 3.49 53.518 5.235 7.861 7.42-8.308 9.618-10.488 6.557s-24.012-1.969-24.012-1.969v18.56c0 3.061 5.241 4.8 10.916 4.8s4.372-3.055 0.875-3.924c-3.495-0.875-14.859 0.869 0.864-5.676 1.233-0.514 2.499-0.97 3.774-1.405l-0.381-2.652c21.404-4.275 23.088-6.859 23.209-7.324 1.087-4.317 1.455-7.318-2.62-12.565l-1.528-1.962v-52.093h3.712c0.028-3.259 0.049-5.41 0.049-5.41s5.235 0.435-10.488-8.743c-15.728-9.165-47.401-6.545-47.401-6.545s-31.671-2.62-47.39 6.545c-15.716 9.177-10.478 8.743-10.478 8.743zM592.195 50.548c-5.833-0.187-11.967-0.574-18.089-1.111-6.442-0.562-12.552-1.268-17.521-2.022-1.183 0.543-1.775 3.574-0.568 4.649l2.385 0.537c5.899 1.328 6.177 3.628 5.247 14.261l-0.984 11.115c-0.314 3.544-0.646 3.677-6.128 3.194l-21.585-1.902c-5.476-0.483-5.778-0.677-5.476-4.214l0.978-11.116c0.942-10.632 1.637-13.011 7.65-13.126l3.255-0.043c1.371-0.845 1.322-3.943 0.254-4.685-5.832-0.181-11.967-0.568-18.089-1.105-6.442-0.562-12.552-1.268-17.352-2.017-1.186 0.55-1.778 3.58-0.574 4.661l2.228 0.514c5.887 1.334 6.177 3.634 5.229 14.267l-2.946 33.503c-0.936 10.632-1.636 13.011-7.65 13.126l-3.248 0.036c-1.38 0.857-1.32 3.949-0.254 4.691 5.829 0.187 11.961 0.568 18.409 1.129 6.123 0.543 12.221 1.244 17.026 1.992 1.189-0.543 1.781-3.574 0.58-4.661l-2.228-0.519c-5.892-1.328-6.17-3.629-5.24-14.261l0.725-8.212c0.332-3.707 0.972-3.646 6.128-3.199l21.585 1.908c5.156 0.452 5.796 0.507 5.476 4.214l-0.724 8.217c-0.942 10.632-1.619 12.842-7.651 13.12l-2.608 0.096c-1.371 0.858-1.322 3.943-0.248 4.685 5.187 0.133 11.321 0.513 17.763 1.081 6.122 0.537 12.226 1.238 17.358 2.017 1.177-0.549 1.769-3.58 0.562-4.655l-2.548-0.555c-5.893-1.328-6.17-3.622-5.24-14.261l2.959-33.504c0.941-10.632 1.636-13.011 7.656-13.126l3.242-0.036c1.376-0.851 1.322-3.943 0.26-4.685zM687.59 83.308c-9.63-3.351-17.684-6.273-25.841-9.401l-16.157-6.201c-6.038-2.318-11.714-4.679-18.693-7.698-1.286 0.193-2.692 2.946-1.829 4.317l4.505 2.252c5.355 2.741 4.993 5.035 1.164 14.998l-12.051 31.407c-3.828 9.957-5.035 11.75-10.965 10.512l-1.932-0.398c-1.552 0.441-2.355 3.43-1.528 4.437 4.341 1.316 10.138 3.375 16.175 5.688l24.308 9.334c6.648 2.548 12.618 5.023 13.868 5.844 1.147-1.636 4.625-8.44 7.692-15.064-0.139-1.437-2.651-2.572-4.058-2.071-1.89 2.216-3.665 4.129-5.156 5.295-2.965 2.325-7.124 1.419-14.527-1.419l-8-3.074c-3.774-1.449-3.749-1.961-0.96-9.207l4.746-12.378c0.985-2.572 1.202-2.662 4.516-1.388l5.586 2.149c8.308 3.188 9.606 3.858 9.074 8.851l-0.483 3.973c0.556 1.256 3.176 2.089 4.335 1.323 1.183-3.532 2.337-7.427 3.786-11.201 1.564-4.069 3.315-7.734 4.8-11.145-0.351-1.347-2.862-2.487-4.118-1.926l-2.288 3.279c-2.946 4.063-4.365 3.688-12.667 0.501l-5.591-2.144c-3.315-1.274-3.412-1.485-2.312-4.347l3.598-9.364c1.733-4.534 3.605-8.489 5.597-9.631 1.938-0.99 5.7-0.411 15.064 3.189 12.232 4.691 13.573 8.851 13.977 18.185 0.882 0.857 3.001 1.666 4.457 1.014 1.081-6.858 2.162-15.106 1.907-18.493zM785.951 148.631c-0.966-1.703-2.868-3.478-7.306-6.721-8.247-5.995-15.058-7.347-25.425-4.099-5.953 1.865-13.639 5.277-18.174 7.378-3.146 1.31-5.229 0.592-7.71-1.219-2.228-1.619-2.294-2.065-0.864-4.034l5.706-7.837c6.279-8.628 8.096-10.307 13.319-7.312l2.808 1.642c1.612-0.018 3.163-2.692 2.626-3.882-4.897-3.164-9.957-6.654-14.932-10.264-5.229-3.811-10.101-7.56-14.612-11.249-1.298-0.138-3.363 2.149-2.892 3.695l2.421 2.168c4.455 4.045 3.423 6.291-2.862 14.925l-18.651 25.624c-7.71 10.589-8.61 10.729-13.627 8.277l-1.757-0.882c-1.34-0.368-3.653 2.542-2.5 3.985 4.679 4.009 13.542 11.061 23.088 18.011 8.501 6.183 15.257 10.095 21.838 11.495 7.396 1.383 14.158-0.494 18.826-6.907 5.326-7.317 2.995-14.822-0.453-20.528-0.67-1.286-0.133-2.294 2.149-3.236 12.251-5.283 22.431-8.272 28.764-8.465 3.683-0.115 6.485 0.718 8.277 1.823 1.069 0.181 2.307-1.521 1.938-2.391zM854.938 233.394c-3.743-5.072-6.213-8.682-9.6-13.815-1.238-0.295-3.665 1.311-3.743 2.566l1.34 2.633c2.24 4.383 1.358 5.633-4.625 10.058l-31.946 23.433-0.194-0.26c3.249-7.029 6.261-13.283 12.197-25.117l2.983-6.026c3.598-7.095 9.98-18.047 12.727-22.497-0.223-0.84-0.374-1.329-0.858-1.98-0.477-0.646-0.996-1.075-1.551-1.268-5.374 1.969-16.718 4.323-22.183 5.349-12.112 2.125-24.254 4.468-36.118 7.209l-0.187-0.26c5.458-4.044 9.395-7.154 12.842-10.107 4.909-4.239 12.68-9.787 17.751-13.531 6.104-4.522 7.439-5.712 10.597-2.814l3.569 3.194c1.352 0.205 3.332-1.461 3.538-2.82-3.049-3.58-5.289-6.34-7.795-9.721-2.017-2.729-4.577-6.473-8.072-11.737-1.19-0.519-3.858 1.051-3.641 2.699 3.997 6.491 3.671 7.946-1.31 12.637-1.503 1.51-7.746 6.938-18.149 15.439-5.658 4.589-12.033 10.107-16.513 13.024-4.136 2.849-6.949 3.121-10.282-0.037l-2.035-1.92c-1.359-0.206-3.731 1.751-3.448 2.952 3.532 4.226 5.778 6.986 9.238 11.671 2.789 3.773 5.585 7.541 7.595 11.086 6.364-4.722 15.692-5.984 23.082-7.427 9.033-1.654 18.192-3.405 25.835-4.226-2.952 6.611-6.725 14.025-10.427 21.796-2.53 5.283-7.71 15.964-13.766 23.257 3.845 4.395 6.061 7.384 8.072 10.119 2.023 2.729 5.355 7.499 8.079 11.725 1.419 0.562 3.242-0.791 3.924-2.306l-1.050-2.234c-3.255-6.847-1.105-8.84 3.967-12.589 9.226-6.829 26.88-19.677 33.63-23.879 4.842-2.971 7.244-4.347 10.451-1.087l3.218 3.248c1.353 0.205 3.605-1.654 3.448-2.952-3.532-4.226-6.925-8.55-10.591-13.489zM897.184 320.886c-8.296-25.020-28.316-34.059-47.202-27.798-20.728 6.871-31.445 27.973-23.717 51.302 8.398 25.329 29.205 32.574 47.463 26.518 21.186-7.021 30.889-27.617 23.456-50.022zM875.732 413.735l10.832-0.303c6.949-0.193 12.292 0.145 14.243 0.254 6.316 0.313 8.615 1.382 9.231 6.382l0.423 3.714c1.015 1.262 3.918 1.183 4.691-0.46-0.483-5.488-0.743-9.201-0.875-13.886-0.127-4.686-0.054-7.765 0.103-13.917-0.688-1.437-3.768-1.672-4.697-0.193l-0.38 3.731c-0.526 4.547-2.759 5.573-8.562 6.225-2.094 0.217-7.426 0.688-14.376 0.875l-21.826 0.603c-9.214 0.254-11.001-0.018-12.981-1.582-1.329-1.099-2.748-5.748-3.121-7.354l-0.526-1.443c-0.996-1.105-4.226-0.694-4.667 0.61 0.652 6.128 0.791 11.302 0.918 15.831 0.096 3.556 0 5.983-0.194 10.68 3.755 1.353 8.217 4.468 16.834 11.991l16.084 14.283c3.659 3.297 10.295 9.421 11.798 11.16-1.286 0.359-2.584 0.399-6.134 0.495l-9.22 0.254c-6.949 0.193-12.292-0.151-14.243-0.257-6.316-0.311-8.447-1.383-9.050-5.736l-0.604-4.35c-1.008-1.268-3.918-1.183-4.679 0.453 0.465 5.162 0.725 8.876 0.863 13.887 0.133 4.688 0.054 7.765-0.097 13.917 0.682 1.437 3.762 1.678 4.691 0.193l0.38-3.731c0.526-4.546 2.759-5.739 8.567-6.222 2.101-0.22 7.427-0.691 14.376-0.882l24.248-0.67c3.23-0.088 16.326-0.45 18.928-0.199 0.628-0.499 1.383-2.298 1.365-3.107-0.012-0.486-0.024-0.972-0.205-1.612-2.312-1.555-5.947-4.369-16.392-13.79l-26.868-23.849c-6.304-5.488-10.934-9.401-12.613-11.297 3.394-0.416 8.725-0.561 13.736-0.7z" />
<glyph unicode="&#xe934;" d="M222.952 672.689c12.667-11.009 29.905-17.268 40.383-5.219 7.442 8.574 7.049 20.908-8.108 34.083-14.415 12.522-31.101 17.655-41.25 5.971-6.155-7.076-7.42-20.583 8.975-34.835z" />
<glyph unicode="&#xe935;" d="M709.93 173.107c-4.444-3.236-4.866-3.749-2.686-6.755l12.184-16.731c1.14-1.57 2.071-2.294 2.874-2.306 0.815-0.012 3.001 1.376 6.141 3.659 7.323 5.331 6.653 12.848 2.463 18.596-5.421 7.451-13.778 8.766-20.975 3.538z" />
<glyph unicode="&#xe936;" d="M822.4 584.988c7.034-15.961 22.823-17.093 38.484-10.186 17.015 7.505 21.894 22.964 15.783 36.821-3.719 8.429-4.389 8.317-11.013 5.392l-33.431-14.741c-9.032-3.985-14.406-6.895-9.824-17.286z" />
<glyph unicode="&#xe937;" d="M871.258 351.117c-17.805 5.899-34.886 4.233-39.667-10.191-2.892-8.755 1.062-21.476 21.325-28.197 15.656-5.192 33.654-4.341 38.593 10.548 3.508 10.59-1.521 21.627-20.251 27.84z" />
<glyph unicode="&#xe938;" d="M134.888 571.727l1.057 1.147c0.981 1.368 4.139 5.18 5.809 5.694 2.475 0.691 4.263 0.245 12.818-3.608l20.266-9.117c6.451-2.904 11.264-5.434 13.156-6.463 5.195-2.877 6.889-4.725 5.597-9.198l-1.096-3.656c0.29-1.754 3.275-2.738 4.483-1.657 2.267 5.835 3.399 8.758 5.362 13.108 1.956 4.353 3.659 7.741 6.258 12.703-0.072 1.842-2.78 3.061-4.217 2.262l-1.857-3.315c-2.538-4.453-5.117-4.555-11.176-2.37-1.866 0.659-7.022 2.439-13.473 5.34l-10.059 4.525c-4.649 2.095-9.6 4.323-12.615 6.041 2.307 1.126 8.196 2.989 16.263 5.673l34.584 11.873c13.506 4.748 18.028 5.962 20.806 6.518 0.414 0.534 0.621 0.983 0.826 1.434 0.329 0.752 0.326 2.741-0.072 3.46-2.536 0.781-14.696 6.252-17.697 7.601l-22.509 10.134c-6.457 2.904-11.275 5.434-13.162 6.46-5.265 2.732-6.889 4.728-5.597 9.202l1.096 3.659c-0.29 1.754-3.279 2.735-4.489 1.654-2.267-5.838-3.39-8.761-5.355-13.108-2.089-4.655-3.798-8.036-6.258-12.706 0.075-1.836 2.777-3.055 4.217-2.261l2.277 3.852c2.27 3.846 4.697 4.021 10.753 1.838 1.866-0.659 7.019-2.439 13.476-5.347l8.549-3.846c3.309-1.486 4.51-2.029 5.579-2.868-2.099-1.044-10.741-4.196-15.454-5.862l-20.71-7.106c-11.040-3.689-16.449-4.867-20.509-4.664-1.658-4.486-2.521-6.808-4.006-10.111-1.896-4.202-4.054-9.003-7.068-14.503-0.093-1.404 2.769-3.055 4.148-2.412z" />
<glyph unicode="&#xe939;" d="M212.498 655.391c15.282-13.28 37.636-12.646 55.233 7.605 15.761 18.138 14.717 41.28-2.424 56.175-14.783 12.851-37.159 14.195-54.973-6.3-16.408-18.88-14.608-42.904 2.165-57.479zM213.976 707.524c10.149 11.683 26.835 6.551 41.25-5.971 15.158-13.175 15.551-25.509 8.108-34.083-10.478-12.048-27.716-5.79-40.383 5.219-16.396 14.252-15.131 27.759-8.975 34.835z" />
<glyph unicode="&#xe93a;" d="M271.29 762.141l1.835 0.791c5.241 2.195 6.153 1.999 13.362-9.213l17.445-27.133c5.881-9.135 6.802-11.481 2.029-15.324l-2.587-2.059c-0.568-1.546 1.395-3.997 2.717-3.928 4.809 3.481 9.98 7.004 15.511 10.566 5.268 3.382 10.617 6.624 15.776 9.555 0.612 1.178-0.8 3.985-2.439 4.1l-2.953-1.497c-5.476-2.741-7.23-0.929-13.105 8.203l-5.341 8.305c-1.331 2.077-1.228 2.529 1.117 4.045 2.632 1.69 4.788 2.294 7.912 0.785 4.48-2.406 12.088-6.319 18.029-8.562 10.345-3.915 17.343-2.934 26.068 2.675 4.706 3.025 6.741 4.727 7.819 6.4 0.422 0.857-0.734 2.657-1.833 2.542-1.884-1.021-4.773-1.703-8.507-1.371-6.433 0.568-16.595 4.203-28.73 10.291-2.264 1.090-2.75 2.146-2.002 3.414 3.84 5.597 6.657 13.084 1.666 20.833-4.362 6.783-11.127 9.087-18.714 8.118-6.78-1.032-13.863-4.613-22.868-10.397-10.107-6.502-19.523-13.147-24.519-16.944-1.256-1.395 0.933-4.489 2.31-4.193zM298.683 779.173c7.614 4.897 16.036 3.067 21.108-4.821 3.915-6.092 4.148-13.766-3.598-18.75-3.324-2.137-5.628-3.423-6.449-3.363-0.818 0.061-1.72 0.851-2.789 2.512l-11.394 17.718c-2.043 3.185-1.588 3.68 3.122 6.705z" />
<glyph unicode="&#xe93b;" d="M366.74 803.72c0.369 4.26 0.867 6.494 1.996 8.921 1.82 3.514 5.325 4.975 9.404 6.273l4.86 1.546c3.765 1.195 3.662 0.99 5.008-3.245l12.712-39.997c3.288-10.355 3.514-12.697-2.089-15.169l-4.709-2.014c-0.954-1.34 0.302-4.223 1.6-4.501 7.272 2.659 13.186 4.706 19.463 6.699 5.955 1.895 11.963 3.634 18.807 5.466 0.9 0.975 0.271 4.055-1.284 4.598l-4.392-0.875c-5.998-1.22-7.167 0.827-10.457 11.182l-12.719 39.994c-1.34 4.238-1.077 4.492 1.585 5.343l4.079 1.295c5.648 1.796 9.503 2.158 11.936 1.029 2.792-1.183 4.526-3.913 6.041-7.058 1.241-0.641 3.861 0.359 4.139 1.66-1.993 6.274-4.003 15.306-4.471 19.478-0.611 0.839-2.965 0.093-3.544-0.785-0.196-3.172-1.718-3.828-7.055-5.524l-45.485-14.457c-4.861-1.543-7-1.881-8.063 0.377-0.927 0.74-3.281-0.012-3.454-1.098 0.525-3.81 1.639-13.295 1.655-19.858 1.183-1.005 3.84-0.676 4.437 0.722z" />
<glyph unicode="&#xe93c;" d="M464.071 843.508c6.11-0.498 6.672-2.955 6.958-13.814l0.897-34.225c0.293-10.855-0.148-13.168-6.207-14.152l-2.301-0.393c-1.289-1.021-0.875-4.136 0.293-4.764 4.93 0.456 11.172 0.785 17.751 0.96 6.261 0.163 12.513 0.166 18.442-0.006 1.138 0.688 1.385 3.821 0.042 4.772l-3.302 0.245c-6.104 0.495-6.66 2.952-6.952 13.811l-0.296 11.354c-0.093 3.617 0.229 3.792 5.826 3.936l22.044 0.586c5.591 0.145 5.923-0.012 6.026-3.635l0.296-11.348c0.29-10.862-0.145-13.177-6.213-14.161l-2.458-0.392c-1.292-1.020-0.881-4.136 0.284-4.767 5.097 0.462 11.339 0.794 17.926 0.963 6.249 0.166 12.517 0.169 18.44-0.006 1.135 0.688 1.383 3.825 0.042 4.776l-3.303 0.241c-6.104 0.499-6.666 2.953-6.949 13.815l-0.906 34.222c-0.284 10.858 0.151 13.174 6.213 14.158l2.626 0.392c1.286 1.029 0.882 4.142-0.29 4.77-5.259-0.465-11.508-0.795-17.756-0.96-6.581-0.172-12.837-0.175-18.108 0.012-1.134-0.685-1.389-3.821-0.042-4.769l2.638-0.263c6.116-0.661 6.666-2.949 6.955-13.811l0.217-8.387c0.103-3.786-0.555-3.803-5.82-3.943l-22.044-0.582c-5.268-0.136-5.923-0.154-6.026 3.632l-0.221 8.387c-0.287 10.861 0.142 13.18 6.207 14.158l2.301 0.392c1.289 1.020 0.875 4.139-0.293 4.764-4.923-0.459-11.172-0.791-17.424-0.954-6.581-0.169-12.833-0.175-18.769 0.003-1.132-0.691-1.379-3.825-0.042-4.779l3.297-0.239z" />
<glyph unicode="&#xe93d;" d="M586.218 770.467c6.056-1.539 12.081-3.234 18.861-5.289 1.438 0.314 2.524 3.263 1.329 4.586l-4.184 1.573c-5.742 2.128-5.657 4.486-2.989 15.016l2.753 10.85c0.768 3.031 0.966 3.152 4.474 2.258l6.708-1.696c8.773-2.225 10.168-2.747 10.228-7.855l-0.018-4.076c0.404-1.12 3.478-1.727 4.552-0.809 0.773 3.707 1.462 7.777 2.554 12.081 1.014 3.991 2.336 7.897 3.435 11.526-0.519 1.323-3.188 2.168-4.389 1.452l-1.932-3.583c-2.488-4.462-3.961-4.262-12.74-2.038l-6.695 1.7c-3.508 0.888-3.629 1.090-2.947 3.804l3.399 13.397c1.944 7.659 2.228 8.097 6.213 7.085l7.818-1.977c8.61-2.189 11.484-3.592 12.704-7.469 0.434-1.636 0.622-4.233 0.574-7.106 0.718-1.201 3.629-1.769 4.595-0.658 1.177 7.344 2.922 14.883 3.248 16.839-1.516 0.042-7.94 1.501-14.962 3.284l-25.044 6.346c-6.382 1.618-12.408 3.311-16.477 4.685-1.274-0.356-2.361-3.308-1.328-4.589l1.515-0.725c5.621-2.611 5.615-4.649 2.946-15.178l-8.41-33.18c-2.668-10.534-3.713-12.646-9.824-11.946l-2.312 0.248c-1.515-0.634-1.962-3.749-1.008-4.667 6.147-1.22 11.767-2.475 17.353-3.888z" />
<glyph unicode="&#xe93e;" d="M640.363 753.473c5.494-2.242 11.218-4.775 17.165-7.598 5.652-2.686 11.23-5.512 16.441-8.349 1.322 0.099 2.958 2.783 2.198 4.238l-2.838 1.709c-5.216 3.206-4.6 5.651 0.048 15.465l14.684 30.923c4.655 9.811 6.158 11.834 11.943 9.817l3.115-1.111c1.612 0.326 2.662 3.29 1.895 4.377-5.488 2.246-11.212 4.782-16.863 7.462-5.947 2.82-11.526 5.652-16.737 8.489-1.322-0.103-2.965-2.789-2.192-4.244l2.826-1.709c5.217-3.203 4.607-5.645-0.048-15.457l-14.678-30.931c-4.655-9.811-6.164-11.828-11.942-9.814l-3.115 1.114c-1.612-0.332-2.663-3.29-1.902-4.38z" />
<glyph unicode="&#xe93f;" d="M694.576 732.438l-4.377 2.678c-1.642 0-3.26-2.692-2.735-3.912 6.376-4.393 11.466-8.024 16.725-11.985l14.061-10.602c7.101-5.35 13.966-10.732 22.044-17.231 3.067 1.602 9.594 6.988 14.943 11.616-0.23 1.612-2.065 2.997-3.285 3.297-8.278-4.685-12.589-5.76-23.227 2.261-8.158 6.144-10.681 9.078-10.88 11.287-0.085 2.334 2.318 6.083 5.295 10.026l6.141 8.147c1.884 2.497 2.119 2.53 5.005 0.351l4.866-3.665c7.227-5.452 8.308-6.472 6.382-11.209l-1.582-3.749c0.193-1.383 2.524-2.932 3.876-2.509 2.15 3.121 4.359 6.605 7.034 10.155 2.482 3.284 5.222 6.37 7.632 9.298 0.036 1.413-2.101 3.231-3.49 3.037l-3.158-2.56c-4.027-3.157-5.307-2.394-12.54 3.055l-4.861 3.665c-2.886 2.179-2.922 2.409-1.238 4.642l8.127 10.778c4.746 6.309 5.18 6.606 8.465 4.13l6.968-5.253c6.442-4.855 9.461-7.952 9.057-11.774-0.205-1.908-0.906-4.474-1.799-7.303 0.326-1.48 2.663-3.034 3.979-2.376 4.063 6.213 8.066 12.884 8.857 14.759-1.377 0.625-6.732 4.459-12.522 8.815l-21.163 15.952c-5.253 3.964-10.149 7.858-13.627 10.892-1.316 0.166-3.465-2.131-3.006-3.71l1.382-1.455c4.263-4.451 3.37-6.458-3.163-15.131l-20.613-27.339c-6.532-8.676-8.314-10.219-13.572-7.079z" />
<glyph unicode="&#xe940;" d="M799.85 705.779l-26.5-21.676c-8.404-6.88-10.632-8.060-14.997-3.762l-2.337 2.337c-1.6 0.392-3.81-1.842-3.587-3.152 4.003-4.377 8.085-9.111 12.257-14.207l10.427-12.739c5.102-6.243 11.333-14.116 16.809-21.325 4.432 1.075 12.42 4.836 17.54 8.181 0.398 1.597-0.936 3.487-2.403 3.985-12.299-3.683-14.599-2.168-22.527 7.514-5.723 7.007-6.502 9.778-6.321 11.626 0.489 2.529 4.1 5.908 8.048 9.141l24.84 20.323c8.411 6.877 10.638 8.057 14.998 3.758l2.337-2.333c1.6-0.399 3.816 1.838 3.592 3.145-3.997 4.375-8.091 9.115-12.051 13.957-4.173 5.092-8.007 10.037-11.81 15.215-1.238 0.474-3.87-1.252-3.798-2.895l2.011-3.242c3.218-5.235 1.884-6.974-6.526-13.85z" />
<glyph unicode="&#xe941;" d="M807.179 617.855l-1.624 2.88c-1.431 0.806-4.16-0.757-4.299-2.074 2.687-5.292 5.362-10.949 6.689-13.959 1.8-4.067 4.148-11.847 7.065-18.469 4.782-10.845 10.119-19.279 16.791-24.61 10.922-8.857 23.414-11.082 36.523-5.307 14.001 6.18 21.585 18.337 20.54 33.346-0.531 7.324-3.085 16.803-7.934 27.798-4.582 10.391-8.737 18.995-13.458 28.064-1.178 1.455-4.577-0.223-4.498-1.624l0.363-1.642c1.521-6.705-1.093-7.315-10.421-11.432l-30.273-13.346c-9.944-4.384-12.402-4.933-15.463 0.377zM832.224 602.274l33.431 14.741c6.623 2.925 7.294 3.037 11.013-5.392 6.111-13.857 1.232-29.316-15.783-36.821-15.662-6.908-31.45-5.775-38.484 10.186-4.582 10.391 0.792 13.301 9.824 17.286z" />
<glyph unicode="&#xe942;" d="M709.362 506.314l-2.644 5.82c-6.665 10.844-24.332 5.82-18.511-7.927 4.757-11.246 8.144-18.237 2.644-27.499-3.442-5.823-13.754-10.584-13.754-10.584 57.648 19.568 63.988 79.332 47.601 111.589-30.007 59.046-146.137-15.94-69.983-50.316 5.283 30.15 71.565 31.795 54.647-21.083z" />
<glyph unicode="&#xe943;" d="M382.488 493.025c3.091 1.675 6.483 2.644 10.063 2.644h26.95c3.378 10.264 9.058 20.925 17.506 31.801h-24.857c-15.94-9.988-25.463-21.869-29.662-34.445z" />
<glyph unicode="&#xe944;" d="M591.422 527.998c5.249-8.746 9.873-20.060 12.51-32.329h13.398c5.125 0 9.885-1.922 13.879-5.188-0.924 15.088-7.103 28.467-19.681 37.517 0 0-19.563 0.529-20.105 0z" />
<glyph unicode="&#xe945;" d="M688.798 535.056c0 2.361-1.92 4.284-4.281 4.284-2.355 0-4.269-1.923-4.269-4.284 0-2.355 1.914-4.272 4.269-4.272 2.361 0 4.281 1.917 4.281 4.272z" />
<glyph unicode="&#xe946;" d="M699.98 450.395l1.298 7.417-5.211-5.434c-19.46-20.29-48.96-38.288-64.809-47.955-4.353-2.657-7.801-4.758-9.92-6.207l2.041-4.069c44.474 15.239 73.111 36.263 76.601 56.247z" />
<glyph unicode="&#xe947;" d="M318.142 577.061c-19.266 8.751-15.113 22.454-16.941 19.761-14.343-21.152-4.951-39.876 11.915-52.332 17.63-12.997 17.512-21.645 23.659-16.32 41.138 35.617 27.58 78.493 9.941 92.172-17.64 13.676-12.018 47.272-12.018 47.272s-20.094-16.124-27.182-35.981c-11.724-32.876 6.545-46.412 19.563-55.456 13.035-9.051 6.318-21.781 3.058-21.009-11.136 2.657 8.115 12.774-11.994 21.894z" />
<glyph unicode="&#xe948;" d="M620.342 471.123l6.798 3.646s2.56-1.629 4.251-1.629 10.204 4.057 3.405 8.12c-6.798 4.064-14.454-10.137-14.454-10.137z" />
<glyph unicode="&#xe949;" d="M390.803 474.697c9.352-12.589 16.16 0 16.16 0 9.558-12.178 18.699 0 18.699 0s9.733-12.673 18.282 3.647c0 0 0.669 0.426 1.534 0.988 1.418-1.695 2.283-3.102 2.283-3.102 9.358-12.586 16.16 0 16.16 0 9.558-12.182 18.702 0 18.702 0s9.733-12.664 18.27 3.646c0 0 1.376 0.877 2.752 1.787 2.748-2.551 4.481-5.434 4.481-5.434 9.358-12.586 16.157 0 16.157 0 9.552-12.182 18.705 0 18.705 0s9.72-12.664 18.271 3.646c0 0 1.536 0.978 2.985 1.941 2.85-2.588 4.67-5.587 4.67-5.587 9.347-12.586 16.146 0 16.146 0 9.563-12.182 18.705 0 18.705 0s9.733-12.664 18.282 3.646c0 0 11.472 7.308 1.274 1.63-10.403-5.799-12.335 1.615-12.335 1.615-9.334 12.588-16.145 0-16.145 0-9.564 12.172-18.692 0-18.692 0s-13.452 10.297-22.11 2.028c3.708 1.12 7.106-0.694 9.741-2.955-0.387-0.211-0.773-0.422-1.252-0.688-10.397-5.799-12.317 1.615-12.317 1.615-9.346 12.588-16.151 0-16.151 0-9.563 12.172-18.698 0-18.698 0s-13.458 10.297-22.11 2.028c3.788 1.144 7.261-0.768 9.917-3.098-0.321-0.176-0.612-0.335-0.991-0.546-10.4-5.799-12.326 1.615-12.326 1.615-9.352 12.588-16.156 0-16.156 0-9.558 12.172-18.702 0-18.702 0s-13.444 10.297-22.099 2.028c4.952 1.496 9.403-2.193 12.12-5.274-10.203-5.556-12.12 1.712-12.12 1.712-9.349 12.588-16.153 0-16.153 0-9.567 12.184-18.708 0-18.708 0s-13.44 10.291-22.101 2.028c8.081 2.439 14.874-8.921 14.874-8.921z" />
<glyph unicode="&#xe94a;" d="M372.531 481.26c-6.805-4.063 1.703-8.12 3.399-8.12s4.256 1.629 4.256 1.629l7.225-1.629s-8.076 12.184-14.88 8.12z" />
<glyph unicode="&#xe94b;" d="M600.949 549.679h-24.852c6.34-3.701 1.051-13.747 1.051-13.747h26.976c10.566 9.524-3.175 13.747-3.175 13.747z" />
<glyph unicode="&#xe94c;" d="M432.775 549.679s-13.742-4.223-3.173-13.747h24.866s-6.080 7.934 1.051 13.747h-22.744z" />
<glyph unicode="&#xe94d;" d="M447.319 346.607c-16.917-8.984-17.974-26.174-17.717-26.432 0.275-0.266 34.72-3.436 52.178-5.549-5.292 13.748 6.131 28.353 6.131 28.353s-26.309-0.863-40.592 3.628z" />
<glyph unicode="&#xe94e;" d="M558.794 309.934c0-0.595 0.291-0.952 0.734-1.186 1.131-0.023 2.281-0.029 3.476-0.026 7.389 1.503 23.237 9.109 36.889 11.452 0 0-2.119 23.794-32 23.529-25.028 0-25.2-2.327-29.481 6.088 12.46 0.577 25.56 1.718 38.738 3.699l0.525 5.023s-12.127-1.869-30.444-3.168l-0.168 9.044c107.236 9.488 216.289 100.588 207.777 174.189-14.684 126.995-148.069 81.437-156.534 21.15 6.503-3.781 12.337-8.175 17.5-13.040 1.537-2.728 2.736-6.913-1.114-10.757 12.998-6.138 19.495-14.887 22.37-19.884 6.424-15.307 8.445-32.11 5.664-48.545v-3.489h-0.685c-7.027-33.237-33.806-64.309-83.402-77.22 35.955 15.454 61.887 48.263 70.024 79.582-3.414-2.132-7.258-3.349-11.331-3.349h-12.014c-2.229-14.928-8.874-29.362-22.347-40.797 5.782 8.469 8.789 24.053 9.559 40.797h-156.394c5.723-28.71 33.057-53.638 60.631-68.818-37.622 2.811-75.203 30.424-80.488 68.818h-23.726c-4.090 0-7.947 1.231-11.372 3.383 9.348-42.718 70.504-84.359 151.544-83.31-50.753-22.629-224.751 50.771-154.409 129.035h-100.482c58.722-142.404 172.551-148.435 247.272-148.601l0.19-9.253c-21.078-0.545-45.88 0.236-69.25 4.492l-0.525-5.548s20.951-3.138 50.795-3.798c-12.115-17.512-10.693-32.826-10.693-36.842 0-7.945 1.54-33.25 1.54-34.131 0-0.869 11.785 0.882 11.785 0.882s21.398-1.316 17.48 0.869l1.177 27.617c6.883 6.877 25.914 8.996 31.191 2.113zM724.698 577.713c16.386-32.257 10.047-92.021-47.601-111.589 0 0 10.312 4.761 13.754 10.584 5.5 9.262 2.113 16.254-2.644 27.499-5.821 13.747 11.846 18.771 18.511 7.927l2.644-5.82c16.918 52.878-49.364 51.233-54.647 21.083-76.154 34.376 39.975 109.362 69.983 50.316zM680.249 535.056c0 2.361 1.914 4.284 4.269 4.284 2.361 0 4.281-1.923 4.281-4.284 0-2.355-1.92-4.272-4.281-4.272-2.355 0-4.269 1.917-4.269 4.272zM631.259 404.424c15.849 9.666 45.349 27.665 64.809 47.955l5.211 5.434-1.298-7.417c-3.49-19.985-32.127-41.008-76.601-56.247l-2.041 4.069c2.119 1.449 5.567 3.55 9.92 6.207z" />
<glyph unicode="&#xe94f;" d="M511.797 200.289s31.674-2.62 47.401 6.545c15.723 9.177 10.488 8.743 10.488 8.743s-0.021 2.151-0.049 5.41h-3.712v52.093l1.528 1.962c4.075 5.247 3.707 8.247 2.62 12.565-0.121 0.465-1.805 3.049-23.209 7.324l0.381 2.652c-1.275 0.435-2.541 0.891-3.774 1.405-15.723 6.545-4.359 4.8-0.864 5.676 3.496 0.869 4.8 3.924-0.875 3.924s-10.916-1.739-10.916-4.8v-18.56s21.832-1.093 24.012 1.969c2.18 3.061 18.349 0.863 10.488-6.557-5.676-1.745-30.852-8.151-53.518-5.235-27.738-2.192-47.822 3.49-53.504 5.235-7.863 7.42 8.302 9.618 10.484 6.557 2.183-3.062 24.015-1.969 24.015-1.969v18.56c0 3.061-5.24 4.8-10.916 4.8s-4.371-3.055-0.872-3.924c3.496-0.875 14.846 0.869-0.878-5.676-1.228-0.512-2.488-0.967-3.757-1.4l0.382-2.657c-21.413-4.281-23.097-6.865-23.218-7.336-1.066-4.178-1.458-7.3 2.623-12.552l1.525-1.962v-52.093h-3.703c-0.028-3.259-0.049-5.41-0.049-5.41s-5.238 0.435 10.478-8.743c15.719-9.165 47.39-6.545 47.39-6.545zM513.801 255.323c0.169 0.151 0.398 0.242 0.627 0.235 0.218-0.012 0.46-0.067 0.628-0.211 0.193-0.875 0.326-1.075 3.744-1.159l16.736-0.417c2.965-0.072 3.635-0.048 4.069 1.002 0.175 0.097 0.314 0.133 0.586 0.133 0.26-0.006 0.561-0.217 0.659-0.362-0.489-1.703-0.876-5.748-0.852-8.615-0.224-0.441-1.431-0.513-1.648-0.109-0.713 3.218-1.292 5.597-4.661 5.694l-2.705 0.060c-1.081 0.025-1.22-0.114-1.244-1.425l-0.435-22.128c-0.109-4.667 0.163-5.071 2.173-5.434l1.805-0.296c0.296-0.302 0.29-1.461-0.042-1.757-2.923 0.181-5.168 0.29-7.197 0.338-2.149 0.048-4.492 0.054-7.643 0.036-0.35 0.302-0.332 1.461 0.037 1.763l2.028 0.194c2.041 0.199 2.312 0.652 2.415 5.319l0.434 22.135c0.024 1.195 0.037 1.449-1.050 1.467l-2.795 0.079c-3.279 0.072-4.257-1.902-5.669-5.537-0.556-0.278-1.401-0.163-1.672 0.495 1.020 3.441 1.322 6.545 1.672 8.501zM488.853 222.085c-2.125 0.139-4.299 0.241-7.629 0.368-0.338 0.32-0.269 1.533 0.099 1.757l2.086 0.205c2.017 0.217 2.301 0.494 2.546 5.102l0.99 18.705c0.238 4.546 0 4.872-1.966 5.452l-1.098 0.326c-0.393 0.332-0.284 1.486 0.166 1.751 2.092-0.248 4.251-0.441 6.376-0.592l9.404-0.634c2.835-0.194 5.355-0.308 5.944-0.248 0.006-0.809 0.121-4.431 0.169-7.812-0.218-0.532-1.238-0.561-1.657-0.085-0.405 1.788-0.927 3.338-1.47 4.075-0.791 1.009-2.098 1.709-4.269 1.854l-3.544 0.242c-1.458 0.096-1.458 0-1.564-1.848l-0.45-8.773c-0.075-1.412-0.057-1.515 1.144-1.6l3.061-0.205c2.318-0.157 2.853 0.157 3.415 2.535l0.302 1.226c0.335 0.386 1.437 0.314 1.64-0.157-0.169-1.588-0.311-3.393-0.417-5.301-0.103-1.902-0.148-3.713-0.148-5.319-0.257-0.435-1.358-0.405-1.648 0.067l-0.154 1.274c-0.313 2.427-0.818 2.868-3.121 3.013l-3.074 0.217c-1.192 0.079-1.223 0.031-1.307-1.467l-0.33-5.959c-0.13-2.312-0.042-3.925 0.468-4.824 0.516-0.935 1.337-1.4 4.586-1.612 3.846-0.266 5.362-0.211 8.097 5.283 0.38 0.525 1.48 0.254 1.624-0.356-0.314-2.597-1.585-6.588-2.28-7.879-2.357 0.235-6.596 0.579-10.228 0.826l-5.763 0.393z" />
<glyph unicode="&#xe950;" d="M511.797 275.404s1.539 0.121 0 0v0z" />
<glyph unicode="&#xe951;" d="M407.634 286.87c-1.235 0.471-1.319 0.381-1.642-1.636l-1.332-8.229c-0.238-1.498-0.175-1.648 1.616-2.331 1.095-0.417 1.805-0.266 2.511 0.32 0.625 0.532 1.416 1.667 1.808 4.16 0.601 3.786-0.609 6.823-2.961 7.716z" />
<glyph unicode="&#xe952;" d="M311.745 342.767c-0.785 0.556-1.392 0.761-1.672 0.58-0.263-0.181-0.513-0.869-0.89-2.041l-4.483-13.893c-0.694-2.131-1.069-3.562-0.797-4.745 0.28-1.154 1.023-2.095 2.098-2.85 5.12-3.544 8.749 1.238 10.379 6.466 2.134 6.872 0.64 12.849-4.634 16.483z" />
<glyph unicode="&#xe953;" d="M224.325 426.496l-0.114 0.443s-0.502 0 0.114-0.443z" />
<glyph unicode="&#xe954;" d="M446.504 289.382c1.31 5.15 6.992 8.296 28.824 12.661 0 0-14.852-1.316-25.769 0-9.805 0-19.326 0.194-30.563 4.366-10.035 3.725-7.436 6.986-25.546 14.412-7.323 2.005-11.36 2.192-22.714 10.482-10.391 4.896-18.089 7.903-21.621 9.829-4.9 2.675 0.872 3.266-18.34 12.009 0 0-30.517 17.304-34.502 29.253-0.875 2.621-11.224 8.471-2.183 10.488 3.931 0.864 2.183-1.751 2.183-1.751 12.664-18.349 34.502-28.389 34.502-28.389v32.749c1.313 11.369-1.751 13.114-10.919 13.114-31.882 4.365-79.918 21.398-105.684 55.456 1.748-22.276 4.368-12.229 9.165-18.777 3.125-6.189 3.061-9.606 3.061-9.606s1.751-4.366 14.847-6.557c3.927-3.924 1.631-4.998 4.806-7.42 4.078-3.103 15.058-4.715 20.085-7.426 6.3-3.387 6.312-7.614 6.554-8.477-0.435 1.491-18.346 4.341-24.453 7.172-3.348 1.546-8.404 7.131-12.667 8.731-7.841 2.942-10.458 4.232-11.246 4.798 2.469-9.643 5.383-21.041 12.985-27.94 8.573-7.771 15.963-6.726 20.094-12.227 7.861-10.487 25.772-23.589 25.772-23.589s0.878 20.087 0.438 20.528c-6.116 9.171-3.931 20.963 13.099 18.336 10.363-1.594 23.146 1.757 22.711-1.304-0.818-5.705-26.204-3.061-27.958-3.496-10.91 1.304-2.182-14.847-2.182-14.847s0.444-51.092 0-50.656c-6.107-14.853 0.444-13.102 4.809-21.404 2.255-4.275 7.288-9.618 39.955-29.47 4.576-2.783 10.17-9.986 15.070-12.667 3.531-1.926 11.23-4.932 21.621-9.835 11.354-8.29 15.39-8.477 22.714-10.475 18.11-7.415 15.511-10.681 25.546-14.406 11.237-4.184 21.63-4.806 31.433-4.806v42.355c-6.108 7.861-5.241 13.627-3.925 18.789zM312.361 315.464c-2.442 0.073-5.038 1.244-8.094 3.37-1.397 0.966-2.808 2.245-3.876 2.982-1.425 0.99-2.955 1.992-4.677 3.091-0.163 0.405 0.154 1.34 0.45 1.371l0.988-0.447c1.421-0.659 1.684-0.477 2.852 3.079l4.419 13.495c1.151 3.562 1.34 4.323 0.055 5.434l-0.525 0.465c-0.232 0.386 0.126 1.461 0.477 1.262 2.509-1.516 4.824-2.947 7.903-5.090 2.367-1.655 4.674-3.598 6.379-5.941 3.254-4.42 3.972-10.349 2.512-15.137-1.591-5.18-4.775-8.072-8.863-7.934zM326.634 300.914c-1.546 1.268-2.961 2.373-4.338 3.405-1.401 1.051-2.886 2.113-4.498 3.218-0.136 0.417 0.25 1.31 0.595 1.371l0.909-0.423c1.474-0.701 1.769-0.562 3.372 3.079l6.152 14.001c1.552 3.532 1.494 3.918 0.305 5.211l-0.712 0.797c-0.136 0.399 0.251 1.244 0.574 1.298 1.512-1.232 2.922-2.349 4.295-3.388 1.352-1.020 2.795-2.053 4.374-3.152 0.127-0.398-0.248-1.255-0.571-1.304l-0.882 0.417c-1.452 0.694-1.735 0.562-3.275-2.977l-6.099-14.043c-1.578-3.641-1.527-4.052-0.316-5.374l0.727-0.803c0.145-0.404-0.284-1.286-0.612-1.334zM351.468 309.59c-0.326-0.362-1.075 0.073-1.183 0.634 0.199 2.331-0.034 6.001-2.149 7.39-1.932 1.268-3.602 0.295-4.32-1.654-0.664-1.799-0.036-4.233 1.075-6.231l1.44-2.651c1.37-2.512 2.886-6.346 1.319-10.723-1.763-4.945-5.959-6.207-10.487-3.266-2.766 1.799-4.088 3.961-4.544 4.854-0.238 1.256 0.438 4.402 1.437 7.112 0.402 0.386 1.096-0.024 1.189-0.609-0.374-2.989 0.287-7.994 2.844-9.66 2.213-1.437 3.963-0.048 4.7 1.969 1.172 3.242-0.401 6.635-1.748 8.984-1.621 2.826-3.104 6.72-1.666 10.608 1.602 4.414 5.31 5.735 9.563 2.952 0.966-0.634 2.12-1.575 3.11-2.813 0.329-0.41 0.571-0.658 0.888-0.966-0.075-1.009-0.531-3.303-1.467-5.929zM362.616 280.319c3.689-2.011 6.41 0.694 8.007 3.067 0.338 0.199 1.026-0.32 1.068-0.925-1.057-2.94-2.264-5.168-2.961-5.899-1.823 0.26-4.242 0.513-6.635 1.818-2.985 1.631-5.775 4.257-7.321 7.637-1.528 3.49-2.209 7.843-0.71 12.939 1.465 4.951 4.049 7.589 6.802 8.743 2.82 1.19 6.229 0.718 9.323-1.008 3.049-1.666 4.974-3.852 5.85-4.425-0.199-0.718-0.999-3.986-1.382-6.491-0.26-0.429-1.111-0.139-1.225 0.337 0.244 4.215-1.103 7.276-4.003 8.863-3.324 1.829-7.991-0.029-10.334-8.115-2.381-8.199-0.142-14.55 3.523-16.543zM394.302 287.311c-0.223-0.393-0.932-0.163-1.159 0.351-0.018 1.606-0.183 3.025-0.446 3.797-0.402 1.038-1.202 1.95-2.678 2.632l-2.406 1.111c-1.012 0.465-1.032 0.38-1.352-1.159l-1.585-7.257c-0.263-1.172-0.251-1.28 0.571-1.643l2.101-0.954c1.573-0.724 1.999-0.609 2.73 1.268l0.371 0.972c0.302 0.236 1.060-0.114 1.12-0.555-0.338-1.304-0.694-2.795-1.032-4.383-0.351-1.588-0.64-3.127-0.861-4.498-0.232-0.326-0.996-0.006-1.132 0.465l0.072 1.123c0.13 2.155-0.166 2.663-1.763 3.381l-2.092 0.96c-0.815 0.374-0.857 0.35-1.129-0.918l-1.105-5.017c-0.429-1.956-0.595-3.369-0.386-4.268 0.229-0.93 0.742-1.552 2.986-2.554 2.665-1.214 3.734-1.552 6.442 2.494 0.34 0.35 1.062-0.163 1.081-0.725-0.58-2.155-2.054-5.271-2.727-6.231-1.609 0.815-4.552 2.186-7.079 3.333l-3.991 1.799c-1.503 0.664-3.022 1.298-5.365 2.264-0.193 0.374 0.046 1.383 0.335 1.491l1.534-0.356c1.449-0.32 1.691-0.151 2.557 3.762l3.478 15.638c0.842 3.768 0.706 4.105-0.574 5.096l-0.715 0.543c-0.212 0.38 0.032 1.31 0.386 1.413 1.412-0.736 2.88-1.461 4.334-2.12l6.388-2.946c1.914-0.888 3.641-1.624 4.045-1.733-0.103-0.664-0.518-3.731-0.954-6.575zM415.615 256.181c-0.531-0.127-1.528 0.157-2.475 0.501-2.801 1.050-4.36 3.139-5.229 6.756-0.613 2.644-0.975 5.017-1.313 7.535-0.188 1.298-0.619 1.829-1.379 2.113-1.069 0.405-1.132 0.345-1.286-0.501l-0.851-5.289c-0.643-3.967-0.517-4.335 0.821-5.205l0.797-0.52c0.178-0.295 0.006-1.346-0.241-1.527-1.615 0.706-3.025 1.274-4.514 1.823-1.546 0.568-2.91 1.039-4.528 1.546-0.22 0.35-0.039 1.395 0.248 1.515l0.878-0.085c1.441-0.175 1.682 0.055 2.337 4.028l2.488 15.088c0.697 4.202 0.722 4.68-0.516 5.422l-0.803 0.483c-0.262 0.314-0.084 1.358 0.306 1.437 2.315-0.658 4.694-1.4 7.559-2.5 2.56-0.978 4.661-2.354 5.651-3.762 1.521-2.083 2.101-4.522 1.691-7.215-0.586-3.762-2.654-4.679-4.193-5.138-0.335-0.091-0.38-0.356-0.302-0.869 1.12-6.479 1.853-10.18 3.052-12.498 0.643-1.202 1.404-1.757 1.854-1.962 0.245-0.326 0.136-0.978-0.048-1.177zM436.723 272.234c-0.169-0.44-0.854-0.308-1.12 0.176-0.178 1.588-0.456 2.982-0.779 3.695-0.48 0.972-1.319 1.763-2.786 2.216l-2.385 0.742c-0.99 0.308-1.005 0.236-1.166-1.34l-0.821-7.438c-0.133-1.195-0.108-1.286 0.703-1.54l2.080-0.64c1.561-0.477 1.953-0.302 2.464 1.666l0.271 1.026c0.247 0.266 0.994 0.036 1.087-0.386-0.19-1.347-0.383-2.886-0.556-4.516-0.159-1.612-0.302-3.165-0.386-4.565-0.193-0.351-0.948-0.157-1.12 0.302l-0.040 1.111c-0.084 2.155-0.407 2.614-1.971 3.091l-2.077 0.64c-0.819 0.254-0.858 0.223-0.988-1.081l-0.568-5.132c-0.229-1.992-0.254-3.423 0.018-4.275 0.323-0.894 0.86-1.413 3.083-2.083 2.638-0.809 3.686-0.984 5.859 3.417 0.284 0.399 1.014 0 1.087-0.561-0.353-2.21-1.44-5.5-1.983-6.563-1.597 0.568-4.507 1.497-7 2.246l-3.962 1.19c-1.472 0.44-2.989 0.839-5.295 1.455-0.211 0.326-0.097 1.382 0.175 1.528l1.483-0.133c1.403-0.109 1.626 0.103 2.071 4.106l1.805 16.012c0.438 3.858 0.281 4.166-1.017 4.975l-0.734 0.435c-0.248 0.35-0.109 1.304 0.221 1.461 1.4-0.52 2.877-1.026 4.304-1.467l6.334-1.987c1.908-0.597 3.608-1.092 3.996-1.123-0.042-0.688-0.142-3.779-0.289-6.66z" />
<glyph unicode="&#xe955;" d="M686.081 324.328c-1.377-0.942-1.389-1.105-0.622-2.801l3.146-6.805c0.549-1.214 0.694-1.249 2.651 0.109 1.202 0.827 1.769 1.624 2.101 2.723 0.295 0.99 0.428 2.542-0.489 4.606-1.438 3.176-4.148 3.979-6.787 2.168z" />
<glyph unicode="&#xe956;" d="M799.385 426.939l-0.115-0.449c0.623 0.448 0.115 0.449 0.115 0.449z" />
<glyph unicode="&#xe957;" d="M757.471 414.272c5.023 2.711 16.012 4.323 20.081 7.426 3.182 2.422 0.87 3.496 4.806 7.42 13.102 2.192 14.846 6.557 14.846 6.557s-0.054 3.417 3.062 9.606c4.806 6.548 7.42-3.499 9.159 18.777-25.751-34.059-73.799-51.092-105.666-55.456-9.177 0-12.238-1.745-10.928-13.114v-32.749s21.844 10.040 34.5 28.389c0 0-1.751 2.615 2.18 1.751 9.051-2.017-1.298-7.867-2.18-10.488-3.979-11.949-34.5-29.253-34.5-29.253-19.212-8.743-13.44-9.334-18.343-12.009-3.526-1.926-11.224-4.933-21.615-9.829-11.351-8.291-15.402-8.477-22.714-10.482-18.119-7.426-15.517-10.686-25.54-14.412-11.242-4.172-20.764-4.366-30.575-4.366-10.91-1.316-25.763 0-25.763 0 21.838-4.365 27.507-7.511 28.818-12.661 1.304-5.162 2.186-10.928-3.925-18.789v-42.355c9.805 0 20.203 0.622 31.444 4.806 10.023 3.725 7.42 6.991 25.54 14.406 7.312 1.998 11.363 2.185 22.714 10.475 10.391 4.903 18.089 7.909 21.615 9.835 4.903 2.681 10.488 9.883 15.070 12.667 32.664 19.852 37.705 25.195 39.952 29.47 4.371 8.302 10.934 6.551 4.812 21.404-0.441-0.435 0 50.656 0 50.656s8.731 16.151-2.185 14.847c-1.739 0.435-27.14-2.209-27.955 3.496-0.422 3.061 12.36-0.29 22.702 1.304 17.044 2.627 19.224-9.165 13.114-18.336-0.441-0.441 0.447-20.528 0.447-20.528s17.896 13.102 25.757 23.589c4.13 5.501 11.532 4.456 20.094 12.227 7.606 6.898 10.523 18.292 12.975 27.935-0.792-0.569-3.41-1.859-11.236-4.792-4.256-1.599-9.322-7.185-12.661-8.731-6.104-2.832-24.024-5.681-24.447-7.172 0.229 0.863 0.248 5.090 6.545 8.477zM610.694 288.174l-0.978-0.52c-1.050-0.556-1.521-1.069-1.859-2.083-0.592-1.582-1.202-4.088-1.872-7.728l-1.4-7.723c-0.966-5.343-1.353-8.736-1.788-11.169-0.254-0.295-0.688-0.562-1.268-0.755-0.477-0.151-0.845-0.138-1.111-0.029-0.664 0.905-1.775 2.734-2.608 3.888l-9.999 14.025c-2.427 3.393-2.645 3.417-4.003 3.339l-1.691-0.085c-0.434 0.338-0.483 1.105-0.175 1.413 2.064 0.604 3.417 0.936 5.494 1.582 1.86 0.555 3.568 1.135 5.983 1.968 0.368-0.138 0.502-0.918 0.345-1.359l-1.148-0.609c-0.67-0.386-0.894-0.713-0.821-1.087 0.079-0.326 1.087-1.811 2.584-3.925l5.422-7.825c0.863-1.268 1.437-2.059 1.86-2.632 0.163 0.761 0.423 1.962 0.628 3.297l0.646 4.154c0.452 2.808 1.153 7.783 1.346 9.304 0.109 0.845 0.145 1.334 0.073 1.569-0.049 0.278-0.194 0.411-1.196 0.35l-1.208-0.066c-0.386 0.229-0.556 1.087-0.133 1.424 1.871 0.489 3.381 0.912 4.891 1.377 1.34 0.417 2.506 0.821 3.635 1.244 0.344-0.055 0.592-1.002 0.35-1.34zM630.352 268.974c-2.011-0.688-3.864-1.352-5.615-2.011-1.811-0.688-3.671-1.431-5.699-2.282-0.351 0.108-0.58 0.983-0.314 1.334l0.99 0.579c1.655 0.954 1.812 1.31 0.906 4.866l-3.587 14.244c-0.954 3.707-1.255 3.906-3.115 3.568l-1.129-0.193c-0.38 0.12-0.61 1.026-0.345 1.382 2.101 0.682 4.034 1.365 5.899 2.046 1.812 0.67 3.726 1.414 5.791 2.259 0.35-0.139 0.58-1.038 0.344-1.388l-1.038-0.604c-1.685-0.966-1.853-1.323-0.942-5.030l3.52-14.243c0.881-3.574 1.171-3.749 2.97-3.411l1.093 0.217c0.345-0.114 0.525-1.002 0.271-1.334zM652.994 305.321c-0.978-0.652-1.412-1.225-1.66-2.252-0.453-1.623-0.869-4.141-1.262-7.806l-0.821-7.728c-0.574-5.356-0.713-8.719-0.954-11.152-0.229-0.32-0.64-0.621-1.171-0.875-0.446-0.181-0.809-0.217-1.063-0.132-0.712 0.809-1.878 2.5-2.777 3.52l-10.529 12.721c-2.548 3.080-2.753 3.080-4.033 2.862l-1.631-0.278c-0.435 0.302-0.537 1.038-0.254 1.383 1.932 0.791 3.212 1.268 5.144 2.119 1.739 0.749 3.321 1.503 5.591 2.572 0.374-0.103 0.543-0.845 0.435-1.298l-1.051-0.73c-0.64-0.447-0.821-0.797-0.725-1.141 0.096-0.308 1.172-1.66 2.735-3.58l5.729-7.106c0.906-1.172 1.534-1.871 1.969-2.391 0.109 0.767 0.266 1.963 0.386 3.291l0.338 4.16c0.242 2.796 0.568 7.783 0.628 9.28 0.078 0.851 0.060 1.322-0.012 1.558-0.061 0.278-0.218 0.386-1.183 0.223l-1.141-0.199c-0.393 0.193-0.628 0.99-0.223 1.376 1.775 0.683 3.176 1.268 4.6 1.89 1.244 0.549 2.355 1.074 3.406 1.63 0.338-0.043 0.64-0.948 0.447-1.292l-0.918-0.622zM681.251 293.433c-1.872-0.93-5.193-2.711-8.043-4.293l-4.516-2.475c-1.666-0.918-3.369-1.884-5.953-3.393-0.35 0.066-0.664 0.917-0.459 1.249l1.546 1.141c1.485 1.111 1.618 1.431 0.435 4.721l-4.939 13.603c-1.244 3.387-1.546 3.489-3.272 2.952l-0.966-0.308c-0.41 0.054-0.688 0.936-0.417 1.352 1.721 0.833 3.496 1.763 5.223 2.699l7.578 4.106c2.288 1.231 4.305 2.378 4.74 2.705 0.253-0.592 1.424-3.165 2.457-5.555-0.006-0.495-0.797-1.014-1.262-0.863-0.845 1.081-1.727 1.938-2.367 2.216-0.918 0.343-2.137 0.211-3.9-0.737l-2.85-1.558c-1.166-0.634-1.159-0.713-0.658-2.089l2.312-6.479c0.374-1.020 0.423-1.080 1.389-0.555l2.427 1.323c1.823 0.996 2.162 1.485 1.908 3.454l-0.145 1.008c0.145 0.435 1.015 0.925 1.305 0.689 0.35-1.22 0.773-2.573 1.262-3.973 0.477-1.389 0.966-2.674 1.443-3.798-0.072-0.429-0.918-0.954-1.298-0.749l-0.483 0.809c-0.948 1.557-1.48 1.631-3.314 0.628l-2.434-1.335c-0.948-0.513-0.966-0.568-0.574-1.66l1.546-4.311c0.58-1.655 1.111-2.723 1.763-3.098 0.688-0.404 1.449-0.308 3.978 1.069 3.037 1.666 4.16 2.415 4.668 7.529 0.157 0.549 1.063 0.881 1.365 0.513 0.508-1.951 0.652-5.313 0.508-6.538zM706.38 310.109c-3.019-2.101-5.434-2.3-7.958-0.875-1.871 1.087-3.393 2.228-4.987 3.52-0.828 0.658-1.486 0.555-2.294-0.018-1.183-0.809-1.214-0.918-0.894-1.612l1.92-4.196c1.437-3.115 1.751-3.212 3.357-2.464l0.966 0.453c0.295-0.006 0.682-0.821 0.531-1.178-1.763-1.147-3.297-2.162-4.872-3.26-1.642-1.135-3.073-2.174-4.751-3.423-0.362 0.006-0.736 0.815-0.562 1.166l0.815 0.791c1.365 1.292 1.437 1.672-0.012 4.776l-5.688 12.172c-1.629 3.502-1.877 3.84-3.38 3.080l-1.002-0.495c-0.411-0.054-0.834 0.821-0.508 1.28 2.464 1.938 5.041 3.894 8.247 6.122 2.862 1.981 5.543 3.225 7.185 3.285 2.5 0.139 4.292-0.941 5.289-3.206 1.395-3.121-0.030-5.826-1.195-7.686-0.254-0.417-0.157-0.615 0.169-0.888 4.256-3.098 6.744-4.728 8.935-5.041 1.183-0.12 2.113 0.266 2.62 0.574 0.375 0.042 0.58-0.471 0.519-0.785-0.423-0.603-1.449-1.401-2.451-2.089zM720.762 322.83l-3.925-3.592c-1.449-1.329-2.898-2.729-5.12-4.854-0.351-0.048-0.821 0.682-0.676 1.050l1.268 1.521c1.22 1.455 1.286 1.812-0.519 4.608l-7.438 11.617c-1.872 2.88-2.162 2.91-3.75 1.908l-0.869-0.55c-0.405-0.066-0.839 0.688-0.67 1.177 1.51 1.274 3.037 2.632 4.516 4.009l6.569 6.062c1.974 1.824 3.713 3.49 4.094 3.931 0.338-0.495 1.993-2.632 3.465-4.661 0.097-0.465-0.568-1.166-1.062-1.166-1.021 0.803-2.041 1.376-2.741 1.455-0.966 0.079-2.125-0.398-3.641-1.793l-2.469-2.277c-1.026-0.941-0.966-1.008-0.229-2.203l3.502-5.543c0.574-0.882 0.628-0.924 1.467-0.151l2.101 1.938c1.6 1.473 1.83 2.028 1.19 3.834l-0.345 0.936c0.066 0.459 0.815 1.159 1.159 1.020 0.55-1.074 1.238-2.246 1.98-3.46 0.743-1.183 1.491-2.294 2.168-3.249 0.012-0.417-0.718-1.14-1.111-1.062l-0.64 0.64c-1.238 1.226-1.763 1.141-3.344-0.326l-2.114-1.932c-0.803-0.766-0.809-0.821-0.241-1.763l2.336-3.695c0.912-1.407 1.643-2.276 2.325-2.469 0.761-0.193 1.485 0.096 3.671 2.131 2.632 2.409 3.61 3.448 3.115 8.489 0.018 0.562 0.863 1.135 1.207 0.869 0.887-1.733 1.691-4.908 1.775-6.128-1.63-1.419-4.552-4.039-7.004-6.322z" />
<glyph unicode="&#xe958;" d="M497.082 618.767c3.146 0 5.017 2.36 5.017 5.258 0 4.055-3.206 7.194-6.895 9.314-2.18-1.389-3.811-4.411-3.811-8.169 0-3.324 1.938-6.403 5.688-6.403z" />
<glyph unicode="&#xe959;" d="M499.014 638.178c1.694 1.274 3.448 4.054 3.448 7.749 0 3.019-1.57 6.403-5.135 6.403-3.39 0-5.205-3.022-5.205-5.805 0-4.169 4.29-6.898 6.892-8.347z" />
<glyph unicode="&#xe95a;" d="M571.781 594.591c-1.884 1.126-15.861 1.488-28.474 1.171v-13.093c0.193-0.193 0.99-0.54 2.367-0.888-0.139 0.248-0.223 0.543-0.266 0.891-0.229 2.071 0.936 2.91 12.172 5.775 5.192 1.325 10.675 2.261 15.976 3.167 2.928 0.501 5.977 1.020 8.821 1.609-4.178-0.42-8.845-0.13-10.596 1.368z" />
</font>
</defs>
</svg>
