<?xml version="1.0" encoding="utf-8"?>
<!-- Generator: Adobe Illustrator 25.0.0, SVG Export Plug-In . SVG Version: 6.00 Build 0)  -->
<svg version="1.1" id="Layer_1" xmlns="http://www.w3.org/2000/svg" xmlns:xlink="http://www.w3.org/1999/xlink" x="0px" y="0px"
	 viewBox="0 0 295.1 60.5" style="enable-background:new 0 0 295.1 60.5;" xml:space="preserve">
<style type="text/css">
	.st0{clip-path:url(#SVGID_2_);}
</style>
<g>
	<g>
		<defs>
			<rect id="SVGID_1_" width="295.1" height="60.5"/>
		</defs>
		<clipPath id="SVGID_2_">
			<use xlink:href="#SVGID_1_"  style="overflow:visible;"/>
		</clipPath>
		<path class="st0" d="M243.5,50.1v-1.2h-5.8v-2.2h4.4v-1.2h-4.4v-2.1h5.8v-1.2h-7.3v8H243.5z M232.7,50.1v-8h-1.5V48l-0.5-0.6
			l-5-5.3h-1.4v8h1.5v-5.9l0.5,0.6l5.2,5.4H232.7z M220.7,42.1h-1.5v8h1.5V42.1z M216.3,42.5v-0.4h-8.2v1.2h5.7l-6,6.3v0.4h8.4v-1.2
			h-6L216.3,42.5z M203.1,47h-3.5l1.7-3.4L203.1,47z M206.4,50.1l-4.4-8h-1.2l-4.3,8h1.6l1-2h4.7l1.1,2H206.4z M194.2,50.1v-4.1
			h-4.1v1.2h2.5v0.1c0,1-1.1,1.9-2.7,1.9c-2,0-3.3-1.4-3.3-3V46c0-1.6,1.2-3,3.4-3c1.3,0,2.4,0.6,3.1,1.3l0.9-0.9
			c-0.8-0.9-2.3-1.6-4.1-1.6c-2.9,0-4.9,2-4.9,4.3v0.1c0,2.2,1.8,4.2,4.7,4.2c1.4,0,2.4-0.5,3.2-1.4l0.2,1.1H194.2z M180.3,47h-3.5
			l1.7-3.4L180.3,47z M183.5,50.1l-4.4-8h-1.2l-4.3,8h1.6l1-2h4.7l1.1,2H183.5z M171,50.1v-8H169l-3.1,5.5l-0.4,0.7l-0.4-0.7
			l-3.2-5.5h-2.1v8h1.5v-6.3l0.4,0.7l3.3,5.6h0.7l3.3-5.6l0.4-0.7v6.3H171z"/>
		<path class="st0" d="M295.1,34.1v-8h-1.5V32l-0.5-0.6l-5-5.3h-1.4v8h1.5v-5.9l0.5,0.6l5.2,5.4H295.1z M282.1,30.2
			c0,1.5-1.1,3-3.2,3c-2,0-3.2-1.4-3.2-3V30c0-1.5,1.1-2.9,3.2-2.9c2,0,3.2,1.4,3.2,2.9V30.2z M283.6,30.2v-0.3
			c0-2.2-1.8-4.2-4.7-4.2c-2.8,0-4.7,2-4.7,4.2v0.3c0,2.1,1.8,4.2,4.7,4.2C281.8,34.4,283.6,32.3,283.6,30.2 M271.3,34.1v-8h-2
			l-3.1,5.5l-0.4,0.7l-0.4-0.7l-3.2-5.5h-2.1v8h1.5v-6.3l0.4,0.7l3.3,5.6h0.7l3.3-5.6l0.4-0.7v6.3H271.3z M255.3,28.5
			c0,0.6-0.5,1.2-1.6,1.2h-3.2v-2.4h3.1C254.8,27.3,255.3,27.9,255.3,28.5L255.3,28.5z M257.2,34.1L257.2,34.1
			c-0.4-0.4-0.5-0.8-0.5-1.4l0-0.7c0-0.9-0.3-1.6-1.9-1.8c1.6-0.3,2-1.1,2-2c0-1.2-1.1-2.2-3.5-2.2H249v8h1.5v-3.2h2.8
			c1.5,0,1.8,0.3,1.9,1.1l0,0.8c0,0.7,0.2,1.3,0.6,1.3H257.2z M245.9,34.1v-1.2h-5.8v-2.2h4.4v-1.2h-4.4v-2.1h5.8v-1.2h-7.3v8H245.9
			z M235.2,34.1v-8h-1.5v3.4h-5.5v-3.4h-1.5v8h1.5v-3.4h5.5v3.4H235.2z M218.1,27.3v-1.2h-8.5v1.2h3.5v6.7h1.5v-6.7H218.1z
			 M206.6,34.1v-8h-1.5V32l-0.5-0.6l-5-5.3h-1.4v8h1.5v-5.9l0.5,0.6l5.2,5.4H206.6z M194.8,30.7v-4.7h-1.5v4.7
			c0,1.5-0.8,2.4-2.7,2.4c-1.8,0-2.8-0.9-2.8-2.4v-4.7h-1.5v4.7c0,2.1,1.3,3.6,4.2,3.6C193.5,34.4,194.8,32.7,194.8,30.7
			 M181.9,30.2c0,1.5-1.1,3-3.2,3c-2,0-3.2-1.4-3.2-3V30c0-1.5,1.1-2.9,3.2-2.9c2,0,3.2,1.4,3.2,2.9V30.2z M183.4,30.2v-0.3
			c0-2.2-1.8-4.2-4.7-4.2c-2.8,0-4.7,2-4.7,4.2v0.3c0,2.1,1.8,4.2,4.7,4.2C181.6,34.4,183.4,32.3,183.4,30.2 M171,34.1v-8H169
			l-3.1,5.5l-0.4,0.7l-0.4-0.7l-3.2-5.5h-2.1v8h1.5v-6.3l0.4,0.7l3.3,5.6h0.7l3.3-5.6l0.4-0.7v6.3H171z"/>
		<path class="st0" d="M260.8,14.2c0,1.5-1.2,2.7-3.2,2.7H255v-5.5h2.6c2,0,3.2,1.1,3.2,2.7V14.2z M262.3,14.2v-0.3
			c0-2.2-1.8-3.9-4.6-3.9h-4.1v8h4.1C260.5,18.1,262.3,16.3,262.3,14.2 M250.8,18.1v-1.2h-6.3v-6.7H243v8H250.8z M240,18.1v-1.2
			h-5.8v-2.2h4.4v-1.2h-4.4v-2.1h5.8v-1.2h-7.3v8H240z M229.2,10.1h-1.5v8h1.5V10.1z M224.8,11.3v-1.2h-7.1v8h1.5v-3.3h4.2v-1.2
			h-4.2v-2.3H224.8z M214.2,18.1v-8h-1.5v3.4h-5.5v-3.4h-1.5v8h1.5v-3.4h5.5v3.4H214.2z M202.7,11.3v-1.2h-8.5v1.2h3.5v6.7h1.5v-6.7
			H202.7z M190.1,12.5c0,0.6-0.5,1.2-1.6,1.2h-3.2v-2.4h3.1C189.6,11.3,190.1,11.9,190.1,12.5L190.1,12.5z M192,18.1L192,18.1
			c-0.4-0.4-0.5-0.8-0.5-1.4l0-0.7c0-0.9-0.3-1.6-1.9-1.8c1.6-0.3,2-1.1,2-2c0-1.2-1.1-2.2-3.5-2.2h-4.4v8h1.5v-3.2h2.8
			c1.5,0,1.8,0.3,1.9,1.1l0,0.8c0,0.7,0.2,1.3,0.6,1.3H192z M179.2,14.2c0,1.5-1.1,3-3.2,3c-2,0-3.2-1.4-3.2-3V14
			c0-1.5,1.1-2.9,3.2-2.9c2,0,3.2,1.4,3.2,2.9V14.2z M180.7,14.2v-0.3c0-2.2-1.8-4.2-4.7-4.2c-2.8,0-4.7,2-4.7,4.2v0.3
			c0,2.1,1.8,4.2,4.7,4.2C178.9,18.4,180.7,16.3,180.7,14.2 M168.4,18.1v-8h-1.5V16l-0.5-0.6l-5-5.3h-1.4v8h1.5v-5.9l0.5,0.6
			l5.2,5.4H168.4z"/>
	</g>
	<polygon points="0,0 0,60.5 34.5,60.5 	"/>
	<polygon points="2.1,0 36.6,60.5 36.6,0 	"/>
	<polygon points="38.6,0 38.6,60.5 73.1,60.5 	"/>
	<polygon points="40.8,0 75.2,60.5 75.2,0 	"/>
	<polygon points="111.8,0 77.4,60.5 111.8,60.5 	"/>
	<polygon points="75.2,0 75.2,60.5 109.7,0 	"/>
	<rect x="113.8" y="0" width="36.5" height="29.3"/>
	<rect x="113.8" y="31.2" width="36.5" height="29.3"/>
</g>
</svg>
