<?xml version="1.0" encoding="utf-8"?>
<!-- Generator: Adobe Illustrator 23.1.1, SVG Export Plug-In . SVG Version: 6.00 Build 0)  -->
<svg version="1.1" id="Layer_1" xmlns="http://www.w3.org/2000/svg" xmlns:xlink="http://www.w3.org/1999/xlink" x="0px" y="0px"
	 viewBox="0 0 155.95 97.72" style="enable-background:new 0 0 155.95 97.72;" xml:space="preserve">
<style type="text/css">
	.st0{fill:#6699CC;}
	.st1{fill:#FFFFFF;}
	.st2{fill:none;stroke:#FFFFFF;stroke-width:0.9398;}
</style>
<rect class="st0" width="155.95" height="97.72"/>
<g>
	<path class="st1" d="M44.06,36.53V47.9h2.64v3.25h-8.6V47.9h2.42V33.21H38.1v-3.25h5.51l10.44,13.3V33.21H51.4v-3.25h8.5v3.25
		h-2.32v17.97l-1.96,0.06L44.06,36.53z"/>
	<path class="st1" d="M64.93,47.9h2.51l0.68-14.69h-2.64v-3.25h5.8l6.51,11.79l6.51-11.79h5.77v3.25h-2.64l0.68,14.69h2.51v3.25
		h-8.7V47.9h2.54l-0.42-10.92l-6.06,10.63h-0.48l-6.06-10.63L71.01,47.9h2.54v3.25h-8.63V47.9z"/>
	<path class="st1" d="M95.91,47.9h2.42V33.21h-2.42v-3.25h8.7v3.25h-2.64v5.6h9.79v-5.6h-2.64v-3.25h8.7v3.25h-2.42V47.9h2.42v3.25
		h-8.7V47.9h2.64V42h-9.79v5.9h2.64v3.25h-8.7V47.9z"/>
</g>
<g>
	<path class="st1" d="M23.33,68.62v3.27h0.76v0.94h-2.46V71.9h0.69v-4.23h-0.69v-0.94h1.58l2.99,3.83v-2.89h-0.76v-0.94h2.43v0.94
		H27.2v5.18l-0.56,0.02L23.33,68.62z"/>
	<path class="st1" d="M28.75,70.8c0-1.11,0.83-2.11,2.15-2.11c1.34,0,2.15,0.97,2.15,2.11c0,1.11-0.83,2.11-2.15,2.11
		C29.56,72.91,28.75,71.93,28.75,70.8z M32.01,70.8c0-0.74-0.46-1.26-1.12-1.26s-1.12,0.52-1.12,1.26s0.46,1.26,1.12,1.26
		S32.01,71.54,32.01,70.8z"/>
	<path class="st1" d="M37.54,69.36c0,0.34-0.27,0.63-0.6,0.63c-0.3,0-0.51-0.18-0.59-0.36c-0.29,0.1-0.62,0.42-0.8,0.77V72h0.7v0.83
		h-2.3V72h0.6v-2.38h-0.6v-0.85h1.57v0.92c0.34-0.55,0.76-0.99,1.28-0.99C37.29,68.7,37.54,69,37.54,69.36z"/>
	<path class="st1" d="M38.98,72.35c-0.09-0.17-0.14-0.38-0.14-0.64v-2.09h-0.78v-0.85h0.78v-0.85l1-0.44v1.29h1.23v0.85h-1.23v1.89
		c0,0.13,0.02,0.21,0.06,0.3c0.07,0.13,0.22,0.19,0.42,0.19c0.26,0,0.55-0.1,0.79-0.21l-0.08,0.87c-0.28,0.14-0.6,0.24-0.97,0.24
		C39.58,72.91,39.18,72.74,38.98,72.35z"/>
	<path class="st1" d="M41.92,66.9v-0.85h1.6v3.34c0.38-0.36,0.8-0.69,1.37-0.69c0.43,0,0.77,0.16,0.99,0.44
		c0.17,0.23,0.27,0.55,0.27,0.92V72h0.6v0.83h-2.16V72h0.55v-1.7c0-0.22-0.05-0.38-0.13-0.49c-0.1-0.13-0.26-0.19-0.45-0.19
		c-0.35,0-0.72,0.2-1.04,0.47V72h0.55v0.83h-2.16V72h0.6v-5.1H41.92z"/>
	<path class="st1" d="M51.95,72h0.6v0.83h-2.17V72h0.57v-2.38h-1.82V72h0.74v0.83h-2.34V72h0.61v-2.38h-0.69v-0.85h0.69v-0.7
		c0-0.71,0.19-1.26,0.54-1.61c0.31-0.32,0.76-0.49,1.22-0.49c0.71,0,1.06,0.38,1.06,0.81c0,0.33-0.28,0.62-0.61,0.62
		c-0.33,0-0.6-0.26-0.62-0.57c-0.12,0.01-0.27,0.06-0.39,0.23s-0.21,0.44-0.21,0.86v0.84h2.82V72z"/>
	<path class="st1" d="M54.52,71.15c0.14,0.63,0.65,0.91,1.33,0.91c0.49,0,1-0.16,1.46-0.43l-0.08,0.91
		c-0.42,0.25-0.94,0.37-1.53,0.37c-1.32,0-2.23-0.83-2.23-2.1c0-1.15,0.8-2.12,2.05-2.12c1.29,0,1.96,0.87,1.96,1.95
		c0,0.16-0.02,0.36-0.05,0.5H54.52z M54.51,70.44h1.96c-0.02-0.56-0.38-0.93-0.97-0.93C55.06,69.51,54.62,69.77,54.51,70.44z"/>
	<path class="st1" d="M58.31,72h0.63v-5.1h-0.63v-0.85h1.63V72h0.6v0.83h-2.23V72z"/>
	<path class="st1" d="M61.4,70.82c0-1.18,0.85-2.12,1.94-2.12c0.52,0,0.89,0.19,1.12,0.39V66.9h-0.61v-0.85h1.61V72h0.6v0.83h-1.6
		v-0.45c-0.29,0.29-0.67,0.52-1.19,0.52C62.2,72.91,61.4,72.05,61.4,70.82z M64.46,71.63v-1.74c-0.27-0.19-0.58-0.32-0.96-0.32
		c-0.56,0-1.07,0.44-1.07,1.24c0,0.78,0.48,1.22,1.07,1.22C63.88,72.04,64.19,71.87,64.46,71.63z"/>
	<path class="st1" d="M69.19,71.9h0.72l0.19-4.23h-0.76v-0.94h1.66l1.86,3.4l1.86-3.4h1.65v0.94h-0.76l0.19,4.23h0.72v0.94h-2.49
		V71.9h0.73l-0.12-3.15l-1.73,3.06h-0.14l-1.73-3.06l-0.12,3.15h0.73v0.94h-2.47V71.9z"/>
	<path class="st1" d="M77.46,70.8c0-1.11,0.83-2.11,2.15-2.11c1.34,0,2.15,0.97,2.15,2.11c0,1.11-0.83,2.11-2.15,2.11
		C78.27,72.91,77.46,71.93,77.46,70.8z M80.72,70.8c0-0.74-0.46-1.26-1.12-1.26s-1.12,0.52-1.12,1.26s0.46,1.26,1.12,1.26
		S80.72,71.54,80.72,70.8z"/>
	<path class="st1" d="M83.32,72.37c-0.13-0.21-0.2-0.49-0.2-0.82v-1.93h-0.6v-0.85h1.6v2.53c0,0.18,0.03,0.31,0.08,0.42
		c0.09,0.18,0.26,0.27,0.5,0.27c0.35,0,0.72-0.2,1.04-0.47v-1.89h-0.63v-0.85h1.63V72h0.6v0.83h-1.57v-0.65
		c-0.39,0.38-0.82,0.72-1.41,0.72C83.88,72.91,83.52,72.7,83.32,72.37z"/>
	<path class="st1" d="M89.74,69.42c0.39-0.38,0.82-0.72,1.41-0.72c0.48,0,0.83,0.19,1.04,0.52c0.14,0.22,0.21,0.5,0.21,0.83V72h0.6
		v0.83h-2.16V72h0.55v-1.7c0-0.17-0.03-0.32-0.08-0.42c-0.09-0.18-0.26-0.27-0.5-0.27c-0.35,0-0.72,0.2-1.04,0.47V72h0.55v0.83
		h-2.16V72h0.6v-2.38h-0.6v-0.85h1.57V69.42z"/>
	<path class="st1" d="M94.46,72.35c-0.09-0.17-0.14-0.38-0.14-0.64v-2.09h-0.78v-0.85h0.78v-0.85l1-0.44v1.29h1.23v0.85h-1.23v1.89
		c0,0.13,0.02,0.21,0.06,0.3c0.07,0.13,0.22,0.19,0.42,0.19c0.26,0,0.55-0.1,0.79-0.21l-0.08,0.87c-0.28,0.14-0.6,0.24-0.97,0.24
		C95.06,72.91,94.67,72.74,94.46,72.35z"/>
	<path class="st1" d="M99.84,71.9h0.69v-4.23h-0.69v-0.94h2.49v0.94h-0.76v1.61h2.8v-1.61h-0.75v-0.94h2.49v0.94h-0.69v4.23h0.69
		v0.94h-2.49V71.9h0.75v-1.7h-2.8v1.7h0.76v0.94h-2.49V71.9z"/>
	<path class="st1" d="M108.11,71.15c0.14,0.63,0.65,0.91,1.33,0.91c0.49,0,1-0.16,1.46-0.43l-0.08,0.91
		c-0.42,0.25-0.94,0.37-1.53,0.37c-1.32,0-2.23-0.83-2.23-2.1c0-1.15,0.8-2.12,2.05-2.12c1.29,0,1.96,0.87,1.96,1.95
		c0,0.16-0.02,0.36-0.05,0.5H108.11z M108.1,70.44h1.96c-0.02-0.56-0.38-0.93-0.97-0.93C108.66,69.51,108.22,69.77,108.1,70.44z"/>
	<path class="st1" d="M115.54,69.36c0,0.34-0.27,0.63-0.6,0.63c-0.3,0-0.51-0.18-0.59-0.36c-0.29,0.1-0.62,0.42-0.8,0.77V72h0.7
		v0.83h-2.3V72h0.6v-2.38h-0.6v-0.85h1.57v0.92c0.34-0.55,0.76-0.99,1.28-0.99C115.29,68.7,115.54,69,115.54,69.36z"/>
	<path class="st1" d="M116.26,72h0.6v-2.38h-0.6v-0.85h1.57v0.64c0.31-0.34,0.76-0.71,1.35-0.71c0.43,0,0.76,0.17,0.96,0.44
		c0.05,0.07,0.09,0.15,0.13,0.23c0.38-0.37,0.83-0.67,1.35-0.67c0.56,0,0.95,0.2,1.15,0.58c0.11,0.2,0.17,0.46,0.17,0.76V72h0.6
		v0.83h-2.15V72h0.54v-1.72c0-0.16-0.02-0.28-0.06-0.38c-0.08-0.19-0.25-0.29-0.48-0.29c-0.33,0-0.68,0.19-0.99,0.45V72h0.54v0.83
		h-2.1V72h0.55v-1.72c0-0.16-0.02-0.28-0.06-0.38c-0.08-0.19-0.24-0.29-0.48-0.29c-0.33,0-0.68,0.19-0.99,0.45V72h0.53v0.83h-2.14
		V72z"/>
	<path class="st1" d="M124.3,70.8c0-1.11,0.83-2.11,2.15-2.11c1.34,0,2.15,0.97,2.15,2.11c0,1.11-0.83,2.11-2.15,2.11
		C125.11,72.91,124.3,71.93,124.3,70.8z M127.56,70.8c0-0.74-0.46-1.26-1.12-1.26s-1.12,0.52-1.12,1.26s0.46,1.26,1.12,1.26
		S127.56,71.54,127.56,70.8z"/>
	<path class="st1" d="M131.06,69.42c0.39-0.38,0.82-0.72,1.41-0.72c0.48,0,0.83,0.19,1.04,0.52c0.14,0.22,0.21,0.5,0.21,0.83V72h0.6
		v0.83h-2.16V72h0.55v-1.7c0-0.17-0.03-0.32-0.08-0.42c-0.09-0.18-0.26-0.27-0.5-0.27c-0.35,0-0.72,0.2-1.04,0.47V72h0.55v0.83
		h-2.16V72h0.6v-2.38h-0.6v-0.85h1.57V69.42z"/>
</g>
<line class="st2" x1="21.62" y1="58.97" x2="134.32" y2="58.97"/>
</svg>
