<?xml version="1.0" encoding="utf-8"?>
<!-- Generator: Adobe Illustrator 25.0.0, SVG Export Plug-In . SVG Version: 6.00 Build 0)  -->
<svg version="1.1" id="Layer_1" xmlns="http://www.w3.org/2000/svg" xmlns:xlink="http://www.w3.org/1999/xlink" x="0px" y="0px"
	 viewBox="0 0 953 597" style="enable-background:new 0 0 953 597;" xml:space="preserve">
<style type="text/css">
	.st0{fill:#FFFFFF;}
</style>
<path class="st0" d="M-0.9-0.8v800.9l1079-0.1V-0.9L-0.9-0.8z M1072.4,4.8v192.7L964.9,4.8H1072.4z M958.2,4.8l107.6,192.7H958.2
	V4.8z M958.2,402.6l107.6,192.7H958.2V402.6z M964.9,402.6h107.6v192.7L964.9,402.6z M837.9,496v-93.4h114.2V496H837.9z
	 M952.2,501.8v93.5H837.9v-93.5H952.2z M837.6,396.6L730.1,203.9h215.1L837.6,396.6z M832,402.6v192.7H724.4L832,402.6z
	 M830.4,396.6H722.8V203.9L830.4,396.6z M832,197.5H724.4L832,4.8V197.5L832,197.5z M824.8,4.8L717.3,197.5L609.7,4.8H824.8z
	 M602.5,4.8L710,197.5H602.5V4.8z M716.5,203.9v192.7L608.9,203.9H716.5z M602.2,203.9l107.6,192.7H602.2V203.9z M602.5,402.6
	l107.6,192.7H602.5V402.6z M596.1,4.8v192.7L488.6,4.8H596.1z M481.9,4.8l107.6,192.7H481.9V4.8z M481.6,203.9h114.2v93.4H481.6
	V203.9z M481.6,303.2h114.2v93.4H481.6V303.2z M481.9,402.6l107.6,192.7H481.9V402.6z M361.3,4.8h114.2v93.4H361.3V4.8z
	 M361.3,104.1h114.2v93.4H361.3V104.1z M468.1,203.9L360.6,396.6L253,203.9H468.1z M475.2,203.9v192.7H367.7L475.2,203.9z
	 M354.9,402.6v192.7H247.4L354.9,402.6z M353.3,396.6H245.7V203.9L353.3,396.6z M354.9,197.5H247.4L355,4.8v192.7H354.9z M347.8,4.8
	L240.2,197.5L132.7,4.8H347.8z M125.4,4.8L233,197.5H125.4V4.8z M239.4,203.9v192.7L131.8,203.9H239.4z M125.2,203.9l107.6,192.7
	H125.2V203.9z M125.4,402.6L233,595.3H125.4V402.6z M119.1,4.8v192.7L11.5,4.8H119.1z M4.8,4.8l107.6,192.7H4.8V4.8z M119.1,794.3
	H4.8v-93.4h114.3V794.3z M119.1,695.1H4.8v-93.4h114.3V695.1z M112.4,595.3H4.9V402.6L112.4,595.3z M11.5,402.6h107.6v192.7
	L11.5,402.6z M119.1,396.6H4.8v-93.5h114.3V396.6z M119.1,297.3H4.8v-93.4h114.3V297.3z M125.2,794.4V601.7l107.6,192.7H125.2z
	 M239.4,794.4L131.8,601.7h107.6L239.4,794.4L239.4,794.4z M132.7,402.6h215.1L240.3,595.3L132.7,402.6z M245.7,794.4V601.7
	l107.6,192.7H245.7z M253,601.7h215.1L360.6,794.4L253,601.7z M475.2,794.4H367.7l107.6-192.7v192.7H475.2z M475.5,595.3H361.3
	v-93.5h114.2L475.5,595.3L475.5,595.3z M475.5,496H361.3v-93.4h114.2L475.5,496L475.5,496z M595.8,794.4H481.6V701h114.2V794.4z
	 M595.8,695.1H481.6v-93.4h114.2V695.1z M596.1,595.3L488.6,402.6h107.5V595.3z M602.2,794.4V601.7l107.6,192.7H602.2z M716.5,794.4
	L608.9,601.7h107.6V794.4L716.5,794.4z M609.8,402.6h215.1L717.3,595.3L609.8,402.6z M722.8,794.4V601.7l107.6,192.7H722.8z
	 M730.1,601.7h215.1L837.6,794.4L730.1,601.7z M952.3,794.4H844.8l107.6-192.7L952.3,794.4L952.3,794.4z M952.3,396.6H844.8
	l107.5-192.7V396.6z M952.6,197.5H838.3v-93.4h114.2L952.6,197.5L952.6,197.5z M952.6,98.3H838.3V4.9h114.2L952.6,98.3L952.6,98.3z
	 M1072.5,794.4H958.2V701h114.2v93.4H1072.5z M1072.5,695.1H958.2v-93.4h114.2v93.4H1072.5z M1072.5,396.6H958.2v-93.4h114.2v93.4
	H1072.5z M1072.5,297.3H958.2v-93.4h114.2v93.4H1072.5z"/>
</svg>
