<?xml version="1.0" encoding="UTF-8"?><svg id="Layer_1" xmlns="http://www.w3.org/2000/svg" viewBox="0 0 783.82 539.32"><defs><style>.cls-1{fill:#fff;stroke-width:0px;}</style></defs><path class="cls-1" d="M45.71,443.38l-32.99-33.97-3.19-3.59v37.56H.01v-50.74h9.14l31.99,33.9,3.27,3.66v-37.56h9.52v50.74s-8.22,0-8.22,0Z"/><path class="cls-1" d="M95.01,445.37c-17.98,0-29.63-12.95-29.63-26.43v-1.69c0-13.7,11.65-26.43,29.63-26.43s29.7,12.73,29.7,26.43v1.69c0,13.48-11.66,26.43-29.7,26.43ZM115.11,417.4c0-9.82-7.16-18.58-20.1-18.58s-20.04,8.76-20.04,18.58v1.22c0,9.84,7.09,18.74,20.04,18.74s20.1-8.9,20.1-18.74v-1.22Z"/><path class="cls-1" d="M179.88,443.38c-2.59,0-3.74-3.59-4.04-8.15l-.3-5.19c-.31-5.02-2.37-7.16-11.89-7.16h-17.98v20.49h-9.51v-50.74h27.65c15.24,0,22.08,6.09,22.08,13.95,0,5.56-2.81,10.81-12.71,12.64,9.91.77,12.03,5.26,12.12,11.2l.07,4.19c.07,3.5.68,6.02,3.12,8.53v.23h-8.61ZM176.29,407.81c0-3.66-2.96-7.24-11.13-7.24h-19.5v15.24h20.35c7,0,10.27-3.34,10.27-7.38v-.61h0Z"/><path class="cls-1" d="M226.83,400.57v42.81h-9.52v-42.81h-22.17v-7.92h53.85v7.92h-22.17.01Z"/><path class="cls-1" d="M304.83,443.38v-21.78h-34.88v21.78h-9.52v-50.74h9.52v21.49h34.88v-21.49h9.52v50.74h-9.52Z"/><path class="cls-1" d="M338.29,400.57v14.55h26.59v7.54h-26.59v20.72h-9.44v-50.74h45.17v7.92h-35.73,0Z"/><path class="cls-1" d="M385,443.38v-50.74h9.52v50.74h-9.52Z"/><path class="cls-1" d="M409,443.38v-50.74h46.07v7.92h-36.56v13.02h28.12v7.7h-28.12v14.17h36.56v7.92h-46.07Z"/><path class="cls-1" d="M466.91,443.38v-50.74h9.51v42.81h39.7v7.92h-49.21Z"/><path class="cls-1" d="M552.01,443.38h-25.98v-50.74h25.98c17.97,0,29.39,10.9,29.39,24.6v1.69c0,13.48-11.42,24.45-29.39,24.45ZM571.88,417.4c0-9.82-7.68-16.84-20.11-16.84h-16.23v35.05h16.23c12.43,0,20.11-7.16,20.11-16.99v-1.22Z"/><path class="cls-1" d="M61.24,530.46v-40.15l-2.51,4.42-21.26,35.73h-4.65l-21.02-35.73-2.52-4.42v40.15H0v-50.74h13.18l20.03,34.82,2.37,4.27,2.35-4.27,19.81-34.82h13.02v50.74s-9.52,0-9.52,0Z"/><path class="cls-1" d="M112.84,532.44c-17.98,0-29.63-12.95-29.63-26.43v-1.69c0-13.7,11.65-26.43,29.63-26.43s29.7,12.73,29.7,26.43v1.69c0,13.48-11.66,26.43-29.7,26.43ZM132.94,504.48c0-9.82-7.16-18.58-20.1-18.58s-20.04,8.76-20.04,18.58v1.22c0,9.84,7.09,18.74,20.04,18.74s20.1-8.9,20.1-18.74v-1.22h0Z"/><path class="cls-1" d="M180.87,532.44c-18.51,0-26.66-9.91-26.66-23.09v-29.63h9.44v29.79c0,9.37,6.18,14.92,17.9,14.92s16.99-5.56,16.99-14.92v-29.79h9.52v29.63c0,12.57-8.08,23.09-27.2,23.09h.01Z"/><path class="cls-1" d="M268.49,530.46l-32.99-33.97-3.19-3.59v37.56h-9.52v-50.74h9.14l31.99,33.9,3.27,3.66v-37.56h9.52v50.74h-8.22Z"/><path class="cls-1" d="M320.85,487.64v42.81h-9.52v-42.81h-22.17v-7.92h53.85v7.92h-22.17.01Z"/><path class="cls-1" d="M426.03,530.46v-21.78h-34.88v21.78h-9.52v-50.74h9.52v21.49h34.88v-21.49h9.52v50.74h-9.52Z"/><path class="cls-1" d="M451.05,530.46v-50.74h46.09v7.92h-36.56v13.02h28.1v7.7h-28.1v14.17h36.56v7.92h-46.09Z"/><path class="cls-1" d="M553.67,530.46c-2.59,0-3.73-3.59-4.04-8.15l-.31-5.19c-.3-5.02-2.35-7.16-11.88-7.16h-17.97v20.49h-9.52v-50.74h27.65c15.24,0,22.09,6.09,22.09,13.95,0,5.56-2.82,10.81-12.73,12.64,9.91.77,12.03,5.26,12.1,11.2l.09,4.19c.07,3.5.68,6.02,3.12,8.53v.23h-8.6ZM550.08,494.88c0-3.66-2.96-7.24-11.11-7.24h-19.5v15.24h20.34c7,0,10.27-3.34,10.27-7.38v-.61h0Z"/><path class="cls-1" d="M635.34,530.46v-40.15l-2.51,4.42-21.26,35.73h-4.65l-21.02-35.73-2.52-4.42v40.15h-9.28v-50.74h13.17l20.04,34.82,2.37,4.27,2.35-4.27,19.81-34.82h13.02v50.74h-9.52,0Z"/><path class="cls-1" d="M686.93,532.44c-17.97,0-29.62-12.95-29.62-26.43v-1.69c0-13.7,11.65-26.43,29.62-26.43s29.72,12.73,29.72,26.43v1.69c0,13.48-11.66,26.43-29.72,26.43ZM707.05,504.48c0-9.82-7.17-18.58-20.12-18.58s-20.03,8.76-20.03,18.58v1.22c0,9.84,7.09,18.74,20.03,18.74s20.12-8.9,20.12-18.74v-1.22Z"/><path class="cls-1" d="M774.78,530.46l-32.99-33.97-3.19-3.59v37.56h-9.52v-50.74h9.14l31.99,33.9,3.27,3.66v-37.56h9.52v50.74h-8.22Z"/><polygon class="cls-1" points=".2 317.26 .2 .01 165.63 317.26 .2 317.26"/><polygon class="cls-1" points="186.63 0 186.63 317.26 20.73 0 186.63 0"/><polygon class="cls-1" points="205.52 317.26 205.52 .01 371.41 317.26 205.52 317.26"/><polygon class="cls-1" points="578.37 317.26 578.37 .01 412.48 317.26 578.37 317.26"/><polygon class="cls-1" points="226.05 0 391.94 317.26 557.84 0 226.05 0"/><rect class="cls-1" x="597.2" width="186.62" height="148.68"/><rect class="cls-1" x="597.2" y="168.31" width="186.62" height="148.95"/></svg>