<?xml version="1.0" encoding="utf-8"?>
<!-- Generator: Adobe Illustrator 25.0.0, SVG Export Plug-In . SVG Version: 6.00 Build 0)  -->
<svg version="1.1" id="Layer_1" xmlns="http://www.w3.org/2000/svg" xmlns:xlink="http://www.w3.org/1999/xlink" x="0px" y="0px"
	 viewBox="0 0 499.9 370.3" style="enable-background:new 0 0 499.9 370.3;" xml:space="preserve">
<style type="text/css">
	.st0{opacity:0.1;fill:#FFFFFF;}
</style>
<path class="st0" d="M-3.1,0v373l503,0V0L-3.1,0z M497.3,2.7v89.7L447.1,2.7H497.3z M444,2.7l50.1,89.7H444V2.7z M444,187.9
	l50.1,89.7H444V187.9z M447.1,187.9h50.1v89.7L447.1,187.9z M387.9,231.4v-43.5h53.3v43.5H387.9z M441.2,234.1v43.5h-53.3v-43.5
	H441.2z M387.8,185.1l-50.1-89.7h100.3L387.8,185.1z M385.2,187.9v89.7H335L385.2,187.9z M384.4,185.1h-50.1V95.4L384.4,185.1z
	 M385.2,92.4H335l50.1-89.7V92.4z M331.7,2.7h50.1l-50.1,89.7L281.6,2.7H331.7z M278.2,2.7l50.1,89.7h-50.1V2.7z M331.3,95.4v89.7
	l-50.1-89.7H331.3z M278.1,95.4l50.1,89.7h-50.1V95.4z M278.2,187.9l50.1,89.7h-50.1V187.9z M275.2,2.7v89.7L225.1,2.7H275.2z
	 M222,2.7l50.1,89.7H222V2.7z M221.8,95.4h53.3v43.5h-53.3V95.4z M221.8,141.6h53.3v43.5h-53.3V141.6z M222,187.9l50.1,89.7H222
	V187.9z M165.7,2.7H219v43.5h-53.3V2.7z M165.7,48.9H219v43.5h-53.3V48.9z M215.5,95.4l-50.1,89.7l-50.1-89.7H215.5z M218.9,95.4
	v89.7h-50.1L218.9,95.4z M162.8,187.9v89.7h-50.1L162.8,187.9z M162,185.1h-50.1V95.4L162,185.1z M162.8,92.4h-50.1l50.1-89.7V92.4z
	 M109.3,2.7h50.1l-50.1,89.7L59.2,2.7H109.3z M55.8,2.7l50.1,89.7H55.8V2.7z M108.9,95.4v89.7L58.8,95.4H108.9z M55.7,95.4
	l50.1,89.7H55.7V95.4z M55.8,187.9l50.1,89.7H55.8V187.9z M52.8,2.7v89.7L2.7,2.7H52.8z M-0.4,2.7l50.1,89.7H-0.4V2.7z M52.8,370.3
	H-0.4v-43.5h53.3V370.3z M52.8,324.1H-0.4v-43.5h53.3V324.1z M49.7,277.6H-0.4v-89.7L49.7,277.6z M2.7,187.9h50.1v89.7L2.7,187.9z
	 M52.8,185.1H-0.4v-43.5h53.3V185.1z M52.8,138.9H-0.4V95.3h53.3V138.9z M55.7,370.4v-89.7l50.1,89.7H55.7z M108.9,370.4l-50.1-89.7
	h50.1V370.4z M59.2,187.9h100.3l-50.1,89.7L59.2,187.9z M111.9,370.4v-89.7l50.1,89.7H111.9z M115.3,280.6h100.3l-50.1,89.7
	L115.3,280.6z M218.9,370.4h-50.1l50.1-89.7V370.4z M219,277.6h-53.3v-43.5H219V277.6z M219,231.4h-53.3v-43.5H219V231.4z
	 M275.1,370.3h-53.3v-43.5h53.3V370.3z M275.1,324.1h-53.3v-43.5h53.3V324.1z M275.2,277.6l-50.1-89.7h50.1V277.6z M278.1,370.4
	v-89.7l50.1,89.7H278.1z M331.3,370.4l-50.1-89.7h50.1V370.4z M281.6,187.9h100.3l-50.1,89.7L281.6,187.9z M334.3,370.4v-89.7
	l50.1,89.7H334.3z M337.7,280.6h100.3l-50.1,89.7L337.7,280.6z M441.3,370.4h-50.1l50.1-89.7V370.4z M441.3,185.1h-50.1l50.1-89.7
	V185.1z M441.4,92.4h-53.3V48.9h53.3V92.4z M441.4,46.2h-53.3V2.7h53.3V46.2z M497.3,370.3H444v-43.5h53.3V370.3z M497.3,324.1H444
	v-43.5h53.3V324.1z M497.3,185.1H444v-43.5h53.3V185.1z M497.3,138.9H444V95.4h53.3V138.9z"/>
</svg>
