<svg width="400" height="224" viewBox="0 0 400 224" fill="none" xmlns="http://www.w3.org/2000/svg">
<path d="M65.5941 166.11H71.8067L81.1022 192.41H75.1486L73.4141 187.004H63.7387L61.9572 192.41H56.2145L65.5941 166.11ZM65.2326 182.473H71.9609L68.6423 172.124L65.2326 182.473Z" fill="#8E2F44" stroke="#8E2F44" stroke-width="0.7225"/>
<path d="M111.796 166.11V170.768H103.936V192.41H98.409V170.768H90.5125V166.11H111.796Z" fill="#8E2F44" stroke="#8E2F44" stroke-width="0.7225"/>
<path d="M125.922 192.41V166.11H131.377V176.139H141.591V166.11H147.045V192.41H141.591V180.67H131.377V192.41H125.922Z" fill="#8E2F44" stroke="#8E2F44" stroke-width="0.7225"/>
<path d="M163.274 166.11H168.765V187.681H181.884V192.41H163.274V166.11Z" fill="#8E2F44" stroke="#8E2F44" stroke-width="0.7225"/>
<path d="M215.955 170.768H202.053V176.354H214.815V180.92H202.053V187.681H216.596V192.41H196.687V166.11H215.955V170.768Z" fill="#8E2F44" stroke="#8E2F44" stroke-width="0.7225"/>
<path d="M250.921 166.11V170.768H243.061V192.41H237.534V170.768H229.636V166.11H250.921Z" fill="#8E2F44" stroke="#8E2F44" stroke-width="0.7225"/>
<path d="M270.09 192.41H264.634V166.11H270.09V192.41Z" fill="#8E2F44" stroke="#8E2F44" stroke-width="0.7225"/>
<path d="M288.686 168.859C289.902 167.736 291.332 166.871 292.891 166.317C294.451 165.763 296.106 165.53 297.757 165.633C299.408 165.737 301.022 166.174 302.5 166.918C303.978 167.663 305.289 168.699 306.356 169.965C307.404 171.4 308.027 173.1 308.155 174.872H302.665C302.426 173.835 301.967 172.862 301.321 172.017C300.712 171.418 299.983 170.956 299.181 170.663C298.379 170.37 297.523 170.253 296.672 170.319C295.821 170.386 294.994 170.635 294.247 171.05C293.501 171.464 292.852 172.034 292.345 172.721C291.097 174.776 290.507 177.164 290.652 179.564C290.478 181.912 291.108 184.25 292.438 186.192C292.97 186.889 293.658 187.452 294.447 187.834C295.236 188.217 296.104 188.409 296.98 188.394C297.797 188.444 298.613 188.299 299.362 187.971C300.111 187.642 300.772 187.14 301.288 186.505C301.943 185.59 302.405 184.552 302.648 183.453H308.103C307.732 186.128 306.459 188.595 304.496 190.447C302.464 192.281 299.796 193.248 297.062 193.141C295.415 193.225 293.77 192.942 292.246 192.312C290.721 191.683 289.355 190.722 288.246 189.501C286.086 186.473 284.961 182.827 285.04 179.107C285.119 175.387 286.398 171.792 288.685 168.859L288.686 168.859Z" fill="#8E2F44" stroke="#8E2F44" stroke-width="0.7225"/>
<path d="M327.451 184.293C327.533 185.266 327.879 186.198 328.453 186.987C329.066 187.584 329.803 188.039 330.612 188.32C331.42 188.6 332.28 188.699 333.131 188.609C334.22 188.642 335.308 188.498 336.351 188.182C337.032 188.019 337.637 187.628 338.065 187.072C338.492 186.517 338.716 185.831 338.7 185.13C338.709 184.721 338.607 184.318 338.405 183.963C338.202 183.607 337.907 183.314 337.55 183.115C336.404 182.518 335.174 182.103 333.901 181.883L331.056 181.258C329.034 180.926 327.084 180.244 325.295 179.243C324.401 178.602 323.687 177.742 323.222 176.745C322.757 175.748 322.555 174.648 322.638 173.551C322.614 172.442 322.834 171.341 323.283 170.326C323.732 169.312 324.399 168.409 325.236 167.681C327.402 165.98 330.123 165.148 332.87 165.345C335.438 165.272 337.959 166.046 340.044 167.548C341.031 168.292 341.827 169.26 342.367 170.372C342.908 171.483 343.178 172.707 343.156 173.944H337.881C337.878 173.239 337.677 172.55 337.302 171.954C336.927 171.358 336.392 170.88 335.759 170.573C334.735 170.101 333.616 169.875 332.49 169.911C331.273 169.851 330.065 170.149 329.016 170.768C328.608 171.017 328.274 171.369 328.046 171.788C327.818 172.208 327.705 172.681 327.718 173.158C327.704 173.596 327.818 174.028 328.045 174.402C328.273 174.776 328.604 175.076 328.999 175.265C330.117 175.76 331.288 176.126 332.49 176.354L337.101 177.44C338.734 177.749 340.282 178.399 341.646 179.349C342.434 179.994 343.058 180.818 343.466 181.752C343.875 182.685 344.056 183.703 343.995 184.72C344.014 185.864 343.774 186.997 343.291 188.034C342.809 189.071 342.097 189.985 341.209 190.706C338.96 192.422 336.168 193.268 333.346 193.089C330.438 193.255 327.56 192.427 325.184 190.741C324.211 189.981 323.434 188.999 322.917 187.877C322.4 186.756 322.158 185.527 322.211 184.293L327.451 184.293Z" fill="#8E2F44" stroke="#8E2F44" stroke-width="0.7225"/>
<path d="M120.594 39.803C117.595 40.1739 114.599 40.566 111.604 40.9792V137.082C100.086 138.671 88.605 140.572 77.1603 142.786C65.0232 122.168 52.942 101.902 40.9166 81.9871V117.2C44.7169 116.236 48.5236 115.306 52.3367 114.412V148.096C34.7452 152.222 17.2996 157.096 0 162.716V127.621C3.028 126.636 6.06137 125.674 9.10011 124.736V63.7288C6.06144 64.6676 3.02807 65.6294 0 66.6141V31.2831C14.6846 26.5076 29.4876 22.2716 44.4091 18.5751C55.6192 35.5056 66.8812 52.741 78.1953 70.2812V46.2092C75.1118 46.8006 72.0316 47.4147 68.9548 48.0514V12.9952C86.0738 9.45253 103.287 6.61147 120.594 4.472V39.803Z" fill="#8E2F44"/>
<path d="M108.503 11.2049C98.3924 12.6347 88.1779 14.3275 78.1447 16.2339L73.167 17.1796V42.3641L80.4257 40.9861C80.9722 40.8825 81.5187 40.7796 82.0652 40.6775L81.7778 84.1703C69.3785 65.2866 56.7807 46.3856 44.1911 27.7809L41.7757 24.2113L37.6035 25.283C28.1241 27.7179 18.5845 30.3997 9.25075 33.2519L4.91821 34.5755V60.0996L12.8234 57.6845C13.249 57.5548 13.675 57.4252 14.1014 57.2955V128.128C12.4817 128.609 10.8635 129.097 9.24703 129.592L4.91821 130.916V156.202L12.8234 153.787C22.5617 150.812 32.5184 148.029 42.4184 145.515L47.0322 144.342V120.438L39.4083 122.374C38.4646 122.615 37.5213 122.857 36.5784 123.1V66.0176C50.6173 88.4463 64.5821 111.096 78.1768 133.484L80.3653 137.087L84.5079 136.326C90.116 135.299 95.8117 134.333 101.438 133.457L106.616 132.652V36.5709C107.777 36.3993 108.938 36.2313 110.1 36.0671L115.311 35.3275L115.544 10.2084L108.503 11.2049Z" fill="#6AB2E2"/>
<path d="M269.252 134.73C250.883 132.752 232.466 131.563 214.002 131.164V96.3035C217.18 96.3724 220.357 96.4646 223.535 96.5803C223.535 85.4439 223.535 74.3075 223.535 63.171C215.638 75.1317 207.738 87.2372 199.836 99.4875C192.167 87.1365 184.5 74.9218 176.833 62.8436C176.833 74.0847 176.833 85.3258 176.833 96.567C179.918 96.4564 183.004 96.3679 186.09 96.3015V131.162C167.676 131.558 149.293 132.74 130.939 134.71V99.8499C134.071 99.5135 137.204 99.2001 140.339 98.9097V37.6673C137.204 37.9578 134.071 38.2712 130.939 38.6075V3.27654C146.144 1.64344 161.384 0.551256 176.658 0C184.435 13.211 192.215 26.5624 199.998 40.0542C207.845 26.5623 215.69 13.2132 223.535 0.00697921C238.798 0.562821 254.038 1.65953 269.252 3.29712C269.252 15.0741 269.252 26.8511 269.252 38.6281C266.225 38.302 263.196 37.9974 260.166 37.7143C260.166 58.1284 260.166 78.5425 260.166 98.9566C263.196 99.2398 266.225 99.5444 269.252 99.8705C269.252 111.49 269.252 123.11 269.252 134.73Z" fill="#8E2F44"/>
<path d="M256.787 32.2494L263.449 32.8433V7.82791L257.873 7.33156C252.26 6.83151 246.59 6.40183 240.925 6.04498V5.95486L240.866 6.04129C237.278 5.81657 233.697 5.62148 230.123 5.45602L226.434 5.28564L224.567 8.47243C216.331 22.5062 208.107 36.6709 200.043 50.7047C192.166 36.6252 184.169 22.4692 176.197 8.50323L174.343 5.25469L170.609 5.42262C166.819 5.593 163.016 5.79796 159.199 6.0375L159.046 5.81032V6.04738C153.44 6.40052 147.829 6.82526 142.271 7.3179L136.693 7.81302L136.692 13.4174L136.695 32.8271L143.351 32.2369C144.124 32.1678 144.896 32.1003 145.668 32.0344V103.597C144.536 103.692 143.403 103.79 142.271 103.89L136.693 104.385L136.692 109.989L136.695 128.93L143.353 128.34C153.618 127.427 164.054 126.756 174.371 126.342L180.246 126.106V101.6L173.883 101.855C173.015 101.89 172.149 101.926 171.283 101.965V45.8832C179.142 57.6451 186.984 69.5219 194.714 81.364L199.815 89.1798L204.947 81.3825C212.768 69.4947 220.718 57.5612 228.687 45.7363V101.964C227.843 101.927 226.999 101.891 226.156 101.858L219.792 101.603V126.109L225.667 126.345C236.007 126.758 246.479 127.434 256.787 128.352L263.448 128.945V104.398L257.87 103.902C256.794 103.807 255.718 103.714 254.64 103.623V32.0617C255.356 32.1234 256.071 32.186 256.787 32.2494Z" fill="#6AB2E2"/>
<path d="M400 66.6623V31.283C381.951 25.4134 363.725 20.3587 345.325 16.119V49.0947C348.11 49.7372 350.892 50.3983 353.671 51.0781V64.975C348.354 63.6742 343.025 62.4419 337.684 61.278C334.892 60.6694 332.096 60.0797 329.297 59.5087V45.6118C332.252 46.2148 335.204 46.8387 338.152 47.4834C338.165 36.4943 338.178 25.5052 338.191 14.5161C319.112 10.3424 299.91 7.04338 280.585 4.61889V39.9981C283.711 40.3906 286.835 40.8062 289.957 41.2448V102.439C286.835 102 283.711 101.585 280.585 101.192V136.052C299.903 138.478 319.118 141.78 338.23 145.958V112.882C335.256 112.231 332.278 111.602 329.297 110.994V95.076C332.096 95.6471 334.891 96.2369 337.684 96.8455C343.025 98.0093 348.354 99.2416 353.671 100.542V116.46C350.892 115.78 348.11 115.119 345.325 114.477V147.552C363.708 151.792 381.933 156.847 400 162.716V127.856C397.486 127.039 394.969 126.237 392.448 125.452V64.2574C394.969 65.0433 397.486 65.8449 400 66.6623Z" fill="#8E2F44"/>
<path d="M390.585 130.157C389.393 129.787 388.201 129.422 387.008 129.063V57.6328L394.523 59.9207V34.399L390.185 33.079C379.561 29.8453 368.735 26.8474 358.005 24.1705L350.405 22.2753V45.6177L355.046 46.7733C356.445 47.1215 357.843 47.475 359.241 47.8339V71.3676C354.417 70.17 349.3 68.9661 343.803 67.7364L338.987 66.6017C335.755 65.8967 332.52 65.2188 329.397 64.5891L329.012 64.5101C327.425 64.1891 325.835 63.8742 324.242 63.5655V39.7331C324.534 39.7911 324.825 39.8479 325.118 39.9059L332.458 41.3691L332.375 18.3033L327.467 17.3254C316.167 15.077 304.667 13.1027 293.29 11.4605L286.298 10.4505V35.5449L291.544 36.3018C292.93 36.5018 294.316 36.7068 295.701 36.9167V108.386C294.897 108.267 294.095 108.15 293.29 108.034L286.298 107.024V131.649L291.544 132.405C302.688 134.012 313.971 135.948 325.079 138.158L332.392 139.615V116.224L327.526 115.205C326.567 115.004 325.607 114.805 324.647 114.61L324.699 88.5685C328.109 89.1265 331.558 89.7192 334.975 90.3341C343.746 92.2256 351.733 94.0914 359.241 96.0064V122.663C359.048 122.615 358.856 122.566 358.663 122.519L351.064 120.62V143.88L355.698 145.041C366.023 147.626 376.428 150.513 386.623 153.619L394.269 155.948L395.039 131.535L390.585 130.157Z" fill="#6AB2E2"/>
</svg>
