<svg width="495" height="317" viewBox="0 0 495 317" fill="none" xmlns="http://www.w3.org/2000/svg">
<path d="M-3 -52.9748V317L495 316.975V-53L-3 -52.9748ZM492.378 -50.3659V38.6552L442.734 -50.3659H492.378ZM439.666 -50.3659L489.311 38.6552H439.666L439.666 -50.3659ZM439.666 133.365L489.311 222.386H439.666L439.666 133.365ZM442.734 133.365H492.378V222.386L442.734 133.365ZM384.141 176.531V133.365H436.871V176.531H384.141ZM436.871 179.211V222.377H384.141V179.211L436.871 179.211ZM384.008 130.623L334.364 41.6015H433.652L384.008 130.623ZM381.42 133.365V222.386H331.776L381.42 133.365ZM380.656 130.623H331.011V41.6015L380.656 130.623ZM381.404 38.6552H331.76L381.404 -50.3659V38.6552ZM328.467 -50.3659H378.111L328.467 38.6552L278.823 -50.3659H328.467ZM275.471 -50.3659L325.115 38.6552H275.471V-50.3659ZM328.087 41.6015V130.623L278.443 41.6015H328.087ZM275.375 41.6015L325.02 130.623H275.375V41.6015ZM275.486 133.365L325.131 222.386H275.486V133.365ZM272.546 -50.3659V38.6552L222.902 -50.3659H272.546ZM219.835 -50.3659L269.479 38.6552H219.835V-50.3659ZM219.692 41.6015H272.422V84.768H219.692V41.6015ZM219.692 87.4474H272.422V130.614H219.692V87.4474ZM219.85 133.365L269.495 222.386H219.85V133.365ZM164.153 -50.3659H216.883V-7.19933H164.153V-50.3659ZM164.153 -4.51992H216.883V38.6467H164.153V-4.51992ZM213.468 41.6015L163.824 130.623L114.18 41.6015H213.468ZM216.761 41.6015V130.623H167.117L216.761 41.6015ZM161.238 133.365V222.386H111.593L161.238 133.365ZM160.472 130.623H110.827V41.6015L160.472 130.623ZM161.222 38.6552H111.578L161.222 -50.3659L161.222 38.6552ZM108.284 -50.3659H157.929L108.284 38.6552L58.6402 -50.3659H108.284ZM55.2882 -50.3659L104.932 38.6552H55.2882L55.2882 -50.3659ZM107.903 41.6015V130.623L58.2583 41.6015H107.903ZM55.1912 41.6015L104.836 130.623H55.1912L55.1912 41.6015ZM55.304 133.365L104.948 222.386H55.304L55.304 133.365ZM52.3634 -50.3659V38.6552L2.71912 -50.3659H52.3634ZM-0.347897 -50.3659L49.2963 38.6552H-0.347897V-50.3659ZM52.3821 314.342H-0.347897V271.175H52.3821V314.342ZM52.3821 268.496H-0.347897V225.329H52.3821V268.496ZM49.312 222.386H-0.332109V133.365L49.312 222.386ZM2.73491 133.365H52.3792V222.386L2.73491 133.365ZM52.3821 130.592H-0.347897V87.4255H52.3821V130.592ZM52.3821 84.7461H-0.347897V41.5796H52.3821V84.7461ZM55.1912 314.372V225.351L104.836 314.372H55.1912ZM107.903 314.372L58.2583 225.351H107.903V314.372ZM58.656 133.365H157.945L108.3 222.386L58.656 133.365ZM110.827 314.372V225.351L160.472 314.372H110.827ZM114.18 225.351H213.468L163.824 314.372L114.18 225.351ZM216.761 314.372H167.117L216.761 225.351V314.372ZM216.899 222.377H164.169V179.211H216.899V222.377ZM216.899 176.531H164.169V133.365H216.899V176.531ZM272.422 314.364H219.692V271.197H272.422V314.364ZM272.422 268.518H219.692V225.351H272.422V268.518ZM272.562 222.386L222.917 133.365H272.562V222.386ZM275.375 314.372V225.351L325.02 314.372H275.375ZM328.087 314.372L278.443 225.351H328.087V314.372ZM278.839 133.365H378.127L328.483 222.386L278.839 133.365ZM331.011 314.372V225.351L380.656 314.372H331.011ZM334.364 225.351H433.652L384.008 314.372L334.364 225.351ZM436.945 314.372H387.301L436.945 225.351V314.372ZM436.945 130.623H387.301L436.945 41.6015V130.623ZM437.065 38.6466H384.336V-4.51992H437.065V38.6466ZM437.065 -7.19933H384.336V-50.3659H437.065V-7.19933ZM492.396 314.364H439.666V271.197H492.396V314.364ZM492.396 268.518H439.666V225.351H492.396V268.518ZM492.396 130.614H439.666V87.4474H492.396V130.614ZM492.396 84.768H439.666V41.6015H492.396V84.768Z" fill="#F1F0F0"/>
</svg>
