<?xml version="1.0" encoding="utf-8"?>
<!-- Generator: Adobe Illustrator 25.0.0, SVG Export Plug-In . SVG Version: 6.00 Build 0)  -->
<svg version="1.1" id="Layer_1" xmlns="http://www.w3.org/2000/svg" xmlns:xlink="http://www.w3.org/1999/xlink" x="0px" y="0px"
	 viewBox="0 0 165.6 165.6" style="enable-background:new 0 0 165.6 165.6;" xml:space="preserve">
<style type="text/css">
	.st0{fill:#FFFFFF;}
	.st1{fill:#002F5E;}
</style>
<g id="a">
</g>
<g id="b">
	<g id="c">
		<g>
			<path class="st0" d="M82.8,6.5C40.7,6.5,6.5,40.8,6.5,82.8s34.2,76.3,76.3,76.3c42.1,0,76.3-34.2,76.3-76.3S124.9,6.5,82.8,6.5z
				 M82.8,156.7c-40.8,0-73.9-33.1-73.9-73.9S42,8.9,82.8,8.9c40.8,0,73.9,33.1,73.9,73.9S123.6,156.7,82.8,156.7z"/>
			<path class="st1" d="M82.8,0C37.1,0,0,37.1,0,82.8s37.1,82.8,82.8,82.8c45.7,0,82.8-37.1,82.8-82.8S128.5,0,82.8,0z M82.8,159.1
				c-42.1,0-76.3-34.2-76.3-76.3S40.7,6.5,82.8,6.5c42.1,0,76.3,34.2,76.3,76.3S124.9,159.1,82.8,159.1z"/>
			<path class="st1" d="M32.5,102.3c-0.5-1.4-2.3-2.6-5.6-1.3c-2.5,1-4.7,2.9-3.7,5.3c0.6,1.7,2.4,2.5,5.4,1.4
				C31.4,106.6,33.4,104.6,32.5,102.3z"/>
			<path class="st1" d="M49.6,33.2c0.2,0.3,0.3,0.4,0.5,0.4c0.1,0,0.5-0.2,1-0.5c1.3-0.8,1.2-2,0.6-3c-0.8-1.3-2.2-1.6-3.4-0.8
				c-0.8,0.5-0.8,0.6-0.5,1.1L49.6,33.2L49.6,33.2z"/>
			<path class="st1" d="M82.8,8.9C42,8.9,8.9,42,8.9,82.8s33.1,73.9,73.9,73.9c40.8,0,73.9-33.1,73.9-73.9S123.6,8.9,82.8,8.9z
				 M138,53.2c1.5-0.7,1.9-0.8,1.7-1.8l-0.1-0.3c0-0.2,0.5-0.5,0.7-0.3c0.8,1.5,1.4,2.9,2.2,4.5c0.8,1.8,1.2,3.3,1.3,4.5
				c0.2,2.4-1.1,4.4-3.3,5.4c-2.1,0.9-4.1,0.6-5.9-0.9c-1.1-0.9-1.9-2.2-2.7-4c-0.5-1.1-0.9-2.3-1.1-3c-0.2-0.5-0.6-1.4-1.1-2.3
				c0-0.2,0.5-0.5,0.7-0.3l0.3,0.5c0.5,0.9,0.9,0.8,2.5,0.1L138,53.2L138,53.2z M125.4,88.5c0.5-0.2,1.4-1.2,2-1.4
				c1.3-0.5,1.7-0.7,1.8-0.8l0-0.1c0,0,0.1,0,0,0.1c-0.4,1.6-0.9,3.4-2.1,4.5c-1.4,1.3-2.6,1.1-3.2,2c-1.3,1.7-4.2,3.8-4.2,3.8
				s-0.1-3.2-0.1-3.3c1-1.5,0.6-3.4-2.1-3c-1.7,0.3-3.7-0.3-3.7,0.2c0.1,0.9,4.2,0.5,4.5,0.6c1.8-0.2,0.4,2.4,0.4,2.4
				s-0.1,8.3,0,8.2c1,2.4-0.1,2.1-0.8,3.5c-0.4,0.7-1.2,1.6-6.5,4.8c-0.7,0.5-1.6,1.6-2.4,2c-0.6,0.3-1.8,0.8-3.5,1.6
				c-1.8,1.3-2.5,1.4-3.7,1.7c-2.9,1.2-2.5,1.7-4.1,2.3c-1.8,0.7-3.5,0.8-5.1,0.8v-6.9c1-1.3,0.8-2.2,0.6-3c-0.2-0.8-1.1-1.3-4.7-2
				c0,0,2.4,0.2,4.2,0c1.6,0,3.1,0,4.9-0.7c1.6-0.6,1.2-1.1,4.1-2.3c1.2-0.3,1.8-0.4,3.7-1.7c1.7-0.8,2.9-1.3,3.5-1.6
				c0.8-0.4-0.1-0.5,3-1.9c0,0,4.9-2.8,5.6-4.7c0.1-0.4,1.8-1.4,0.4-1.7c-0.6-0.1-0.4,0.3-0.4,0.3c-2,3-5.6,4.6-5.6,4.6v-5.3
				c-0.2-1.8,0.3-2.1,1.8-2.1c5.2-0.7,12.9-3.5,17.1-9c-0.3,3.6-0.7,2-1.5,3c-0.5,1-0.5,1.6-0.5,1.6s-0.3,0.7-2.4,1.1
				c-0.6,0.6-0.3,0.8-0.8,1.2c-0.7,0.5-2.4,0.8-3.2,1.2c-1,0.5-1,1.2-1.1,1.4C121.5,89.4,124.4,88.9,125.4,88.5L125.4,88.5z
				 M82.3,110.1c0,0-1.9,0.3-1.9,0.1c0-0.1-0.2-4.2-0.2-5.5c0-0.6-0.2-3.1,1.7-6c-4.8-0.1-8.2-0.6-8.2-0.6l0.1-0.9
				c3.8,0.7,7.8,0.8,11.2,0.7l0-1.5c-12.1,0-30.5-1-40-24h16.3C49.8,85.1,78,97,86.2,93.3c-13.1,0.2-23-6.6-24.5-13.5
				c0.6,0.3,1.2,0.5,1.8,0.5h3.8c0.9,6.2,6.9,10.7,13,11.1c-4.5-2.5-8.9-6.5-9.8-11.1h25.3c-0.1,2.7-0.6,5.2-1.5,6.6
				c2.2-1.8,3.3-4.2,3.6-6.6h1.9c0.7,0,1.3-0.2,1.8-0.5c-1.3,5.1-5.5,10.4-11.3,12.9c8-2.1,12.4-7.1,13.5-12.5h0.1v-0.6
				c0.4-2.7,0.1-5.4-0.9-7.9c-0.5-0.8-1.5-2.2-3.6-3.2c0.6-0.6,0.4-1.3,0.2-1.7c-0.8-0.8-1.8-1.5-2.8-2.1
				c1.4-9.8,22.9-17.1,25.3,3.4c1.4,11.9-16.3,26.6-33.6,28.2l0,1.5c3-0.2,4.9-0.5,4.9-0.5l-0.1,0.8c-2.1,0.3-4.3,0.5-6.3,0.6
				c0.7,1.4,0.7,1,4.8,1c4.8,0,5.2,3.8,5.2,3.8c-2.2,0.4-4.8,1.6-6,1.9c-0.2,0-0.4,0-0.6,0c-0.1,0-0.1-0.1-0.1-0.2
				c-0.9-1.1-3.9-0.8-5,0.3l-0.2,4.5C85.8,110.3,82.3,110.1,82.3,110.1L82.3,110.1z M77.9,104.4c-2.8-0.3-8.4-0.9-8.4-0.9
				c0,0,0.1-2.8,2.9-4.3c2.3,0.7,6.6,0.6,6.6,0.6S77.1,102.2,77.9,104.4z M53.4,65.5c0.5,0.1,1.6-1.9-0.5-3.4
				c-2.1-1.5-5.1-3.7-3.2-9c1.1-3.2,4.4-5.8,4.4-5.8s-0.9,5.4,1.9,7.6c2.9,2.2,5,9.1-1.6,14.9c-1,0.9-1-0.5-3.8-2.6
				c-2.7-2-4.2-5-1.9-8.5c0.3-0.4-0.4,1.8,2.7,3.2C54.7,63.4,51.6,65,53.4,65.5z M54.9,44.7c0,0,6.3,2.3,2.2,8.5c0,0-2.7,0-1.9-3.7
				C56,45.8,54.9,44.7,54.9,44.7z M74.8,68.7c-1.2-1.5,0-2.4,0-2.4h9.5v-1.5h-4.4v0.8h-1.2v-0.8h-1.4c2.2-5,8-6.3,11.5,0l-2.4-0.1
				v1.7h5.5c1.3,1.3-0.1,2.2-0.1,2.2H88V70H94c0.8,0.9,1.3,2.8,1.6,5.1H71.1c0.7-1.7,2-3.4,3.9-5.1h5.5c0.5,0.1,1,0.2,1.5,0.3v-1.6
				L74.8,68.7L74.8,68.7z M97.7,68.6h-4.4c0,0,0.9-1.6-0.2-2.2h4C97.2,66.4,99.4,67,97.7,68.6z M98.9,69.9c2,1.5,3,3.6,3.2,6.1
				c-0.6-0.5-1.4-0.8-2.2-0.8h-2.2c-0.4-2-1.2-3.8-2-5.2C95.7,69.8,98.9,69.9,98.9,69.9L98.9,69.9z M73.5,68.6h-4
				C67.8,67,70,66.4,70,66.4h3.7C72.5,67.3,73.5,68.6,73.5,68.6z M70.7,70c-1.4,1.8-2.3,3.5-2.8,5.1h-4.4c-0.6,0-1.1,0.2-1.6,0.4
				c0.7-2,2.2-4,4.8-5.6C66.7,70,70.7,70,70.7,70z M64.4,77.4c0,0,1.5-2,3,0c0,0,1.1-2,2.6,0c0,0,0.3,1.2,2,0.3
				c-0.4-0.5-1.2-1.1-2-0.9c1.4-1.3,3.6,0.3,3.6,0.3s1.5-2,3,0c0,0,1.1-2,2.6,0c0,0,0.3,1.2,2,0.3c0.1,0,0.1-0.1,0.2-0.1
				c-0.4-0.4-1-0.7-1.6-0.5c1.4-1.3,3.6,0.3,3.6,0.3s1.5-2,3,0c0,0,1.1-2,2.6,0c0,0,0.3,1.2,2,0.3c0.1,0,0.1-0.1,0.2-0.1
				c-0.4-0.4-1-0.7-1.6-0.5c1.4-1.3,3.6,0.3,3.6,0.3s1.5-2,3,0c0,0,1.1-2,2.6,0c0,0,0.3,1.2,2,0.3c1.6-0.9-0.2,0.3-0.2,0.3
				c-1.4,2.6-3,0.6-3,0.6s-1.5,2-3,0c0,0-1.1,2-2.6,0c0,0-0.3-0.5-0.8-0.9c-0.2,0.2-0.5,0.3-0.5,0.3c-1.4,2.6-3,0.6-3,0.6
				s-1.5,2-3,0c0,0-1.1,2-2.6,0c0,0-0.3-0.5-0.7-0.9c-0.2,0.1-0.4,0.3-0.4,0.3c-1.4,2.6-3,0.6-3,0.6s-1.5,2-3,0c0,0-1.1,2-2.6,0
				c0,0-0.1-0.2-0.4-0.5c-0.1,0.1-0.2,0.2-0.2,0.2c-1.4,2.6-3,0.6-3,0.6s-1.5,2-3,0c0,0-1.1,2-2.6,0c0,0-1.1-1.8-2.4-1.4
				C62.2,75.7,64.4,77.4,64.4,77.4L64.4,77.4z M102.7,77.4c1.1,0.7-0.3,1.3-0.6,1.3s-0.7-0.3-0.7-0.3l-1.1,0.6
				C100.3,79.1,101.6,76.8,102.7,77.4z M62.7,78.7l-1.2-0.3c0,0-0.4,0.3-0.7,0.3c-0.3,0-1.7-0.7-0.5-1.3
				C61.4,76.8,62.7,78.7,62.7,78.7z M130.4,38.9l-0.3-0.5c0-0.3,0.4-0.5,0.6-0.5c0.6,0.8,1.2,1.6,1.9,2.5c0.6,0.8,1.3,1.5,1.9,2.3
				c0,0.2-0.3,0.6-0.6,0.5l-0.4-0.4c-0.7-0.7-1.1-0.5-2.4,0.6l-4,3.3c-0.6,0.5-1.2,1.1-1.3,1.5c0,0.3,0.1,0.7,1,1.9
				c1.3,1.6,1.7,1.8,3.6,1.2c0.2,0.1,0.5,0.4,0.4,0.6c-0.8,0.5-2.1,1.1-2.8,1.3c-0.9-1.2-1.9-2.4-2.7-3.4l-1.7-2.1
				c-0.7-0.8-1.3-1.6-2-2.3c0-0.2,0.3-0.6,0.6-0.5l0.4,0.4c0.7,0.7,1.1,0.5,2.4-0.6l4.3-3.5C130.7,40,130.9,39.7,130.4,38.9z
				 M117.9,31.2c1.1-1.4,1.2-1.7,0.5-2.4l-0.2-0.2c-0.1-0.3,0.3-0.6,0.5-0.6c0.6,0.5,1.4,1.1,2.2,1.8l3.4,2.6c0.9,0.7,1.8,1.3,2,1.4
				c-0.1,0.3-0.8,1.4-1.4,2.4c-0.2,0.1-0.6-0.1-0.6-0.4c0.1-0.5,0.3-0.9,0.3-1.2c0.1-0.6-0.4-1.1-1.5-1.9l-1.1-0.8
				c-0.5-0.4-0.6-0.4-1.4,0.7l-1.3,1.7c-0.3,0.4-0.3,0.4,0.2,0.8l0.8,0.6c1.2,0.9,1.4,1,2,0.5l0.5-0.4c0.2,0,0.6,0.3,0.6,0.5
				c-0.4,0.5-0.8,1-1.2,1.5c-0.4,0.6-0.8,1.1-1.1,1.6c-0.2,0.1-0.6-0.2-0.6-0.4l0.3-0.6c0.3-0.8,0.1-0.9-1-1.8l-0.8-0.6
				c-0.5-0.4-0.5-0.3-0.8,0.1l-1,1.3c-0.5,0.6-0.9,1.2-0.9,1.6c0,0.4,0.4,0.8,1.8,1.8c1.7,1.3,2.4,1.1,3.8,0.4
				c0.2,0,0.5,0.3,0.5,0.5c-0.9,0.7-1.9,1.6-2.4,1.9c-1.3-1.1-2.4-1.9-3.6-2.8l-2.3-1.7c-0.9-0.6-1.7-1.2-2.7-1.9
				c-0.1-0.2,0.2-0.6,0.4-0.6l0.7,0.4c0.9,0.5,1.1,0.3,2.2-1.1C114.5,35.7,117.9,31.2,117.9,31.2z M106.3,31.3l2.4-5
				c0.8-1.6,0.9-2,0-2.5l-0.5-0.3c-0.1-0.2,0.1-0.7,0.4-0.7c0.8,0.5,1.7,0.9,2.7,1.4c0.9,0.4,1.8,0.8,2.7,1.2c0.1,0.2,0,0.7-0.3,0.7
				l-0.5-0.2c-0.9-0.3-1.2,0-1.9,1.6l-2.4,5c-0.8,1.6-0.9,2,0,2.5l0.5,0.3c0.1,0.2-0.1,0.7-0.4,0.7c-0.8-0.5-1.7-0.9-2.7-1.4
				c-1-0.5-1.9-0.9-2.8-1.2c-0.1-0.2,0-0.7,0.3-0.7l0.5,0.2C105.3,33.2,105.6,32.9,106.3,31.3L106.3,31.3z M92.2,29.3l0.4,0
				c1,0.1,1.2-0.2,1.6-1.9l1.4-5.4c0.4-1.7,0.4-2-0.5-2.5l-0.2-0.1c-0.2-0.2,0-0.7,0.2-0.7c0.7,0.2,1.6,0.5,2.7,0.8l4.1,1
				c1.1,0.3,2.2,0.5,2.4,0.5c-0.1,0.3-0.3,1.5-0.5,2.7c-0.2,0.2-0.6,0.1-0.7-0.1c0-0.5,0-0.9-0.1-1.1c-0.2-0.6-0.7-0.9-2.1-1.2
				L99.4,21c-0.6-0.2-0.7-0.1-1,1.1l-0.5,2.2c-0.1,0.4-0.1,0.5,0.5,0.6l1.1,0.3c1.4,0.4,1.7,0.4,2.1-0.3l0.3-0.6
				c0.2-0.1,0.6,0,0.7,0.2c-0.2,0.6-0.4,1.2-0.6,1.9c-0.2,0.7-0.3,1.4-0.4,2c-0.2,0.1-0.7,0.1-0.7-0.1l0-0.7c0-0.8-0.2-0.9-1.7-1.3
				L98.1,26c-0.6-0.1-0.6-0.1-0.7,0.4l-0.4,1.8c-0.4,1.7-0.4,2.1,0.5,2.4l0.7,0.3c0.2,0.2,0,0.7-0.2,0.7c-1.1-0.3-2.1-0.6-3.1-0.9
				C93.9,30.4,93,30.2,92,30C91.9,29.9,91.9,29.4,92.2,29.3L92.2,29.3z M74.5,18c1,0,2,0,3,0c1,0,2-0.1,2.8-0.2
				c0.2,0.1,0.3,0.6,0,0.8l-0.4,0.1c-1,0.2-1.1,0.5-1,2.3l0,1.4c0,0.6,0.1,0.6,1,0.6l3.6-0.1c0.9,0,1,0,0.9-0.6l0-1.4
				c0-1.8-0.1-2.1-1.1-2.2l-0.4,0c-0.2-0.2-0.2-0.7,0-0.8c0.9,0,1.9,0,2.9,0c1,0,2-0.1,2.9-0.2c0.2,0.1,0.3,0.6,0,0.8l-0.4,0.1
				c-1,0.2-1.1,0.5-1,2.3l0.1,5.5c0,1.8,0.1,2.2,1.1,2.2l0.5,0c0.2,0.2,0.2,0.7,0,0.8c-1,0-2,0-3,0c-1.1,0-2.1,0.1-2.9,0.2
				c-0.2-0.1-0.3-0.6,0-0.8l0.4-0.1c1-0.2,1.1-0.5,1-2.3l0-1.8c0-0.6-0.1-0.6-1-0.6l-3.6,0.1c-0.9,0-1,0.1-0.9,0.6l0,1.8
				c0,1.8,0.1,2.2,1.1,2.2l0.5,0c0.2,0.2,0.2,0.7,0,0.8c-1,0-2,0-3,0c-1.1,0-2.1,0.1-2.9,0.2c-0.2-0.1-0.3-0.6,0-0.8l0.4-0.1
				c1-0.2,1.1-0.5,1-2.3l-0.1-5.5c0-1.8-0.1-2.2-1.1-2.2l-0.5,0C74.3,18.6,74.4,18.1,74.5,18L74.5,18z M73.3,48.1
				c3.4-1.2,10-0.9,10.2-0.9c0.2,0,6.8-0.3,10.2,0.9c2.6,0.9,2.7,1.1,2.6,1.5c0,0,0,0.2-0.2,0.2c0,2-0.1,5,0,5.5l0,0
				c0.2,0.6,0,1.2-0.1,1.5c0,0.1-0.1,0.2-0.1,0.3c0,0,0,0,0.1,0l0.1,0l0.1,0.1c0.5,0.6,0.7,1.1,0.6,1.5c-0.3,0.9-1.9,1.2-3.9,1.5
				c-0.8,0.1-1.7,0.3-2.5,0.5c-0.1,0-0.3,0.1-0.4,0.1c0.1,0,0.1,0,0.2,0c0.6,0.1,0.9,0.3,0.9,0.7c0,0.5-0.8,0.5-1.1,0.5
				c-0.3,0-0.8,0-1.3-0.1c-0.4-0.5-0.8-0.9-1.3-1.3v-2.3l0.3,0c1.8-0.1,4.9-0.1,5.3,0.3c0.3,0.2,1.8,0.1,2.1-0.1
				c0,0-0.1-0.1-0.2-0.2c-2-0.4-6-0.9-11.3-0.7l-0.1,0l0,0c-5.1-0.4-10.6,0.6-11.2,0.7c-0.1,0.1-0.2,0.1-0.2,0.2
				c0.3,0.2,1.9,0.3,2.1,0.1c0.5-0.4,3.5-0.4,5.3-0.3l0.3,0v1.6c-0.2,0.1-0.4,0.2-0.6,0.3c-0.2,0.1-0.5,0.3-0.7,0.4
				C77.9,61,77.4,61.4,77,62c-0.4,0-1,0-1-0.5c0-0.3,0.3-0.6,0.9-0.7c0.1,0,0.1,0,0.2,0c-0.1,0-0.2-0.1-0.4-0.1
				c-0.8-0.2-1.7-0.4-2.5-0.5c-2-0.3-3.6-0.6-3.9-1.5c-0.2-0.4,0-0.9,0.6-1.5l0.1-0.1l0.1,0c0.1,0,0.1,0,0.1,0c0,0-0.1-0.2-0.1-0.3
				c-0.1-0.3-0.3-0.9-0.2-1.5l0,0c0-0.4,0-3.4,0-5.5c-0.1-0.1-0.2-0.2-0.2-0.2C70.6,49.2,70.7,49,73.3,48.1L73.3,48.1z M58.9,22
				c0.2,0.4,0.5,0.3,1.3,0.1l7.4-2.3c0.9-0.3,1.1-0.4,1.1-0.9c0.1-0.1,0.5-0.3,0.6-0.1c0.1,0.7,0.4,2.1,0.7,3.2
				c0,0.2-0.5,0.4-0.7,0.3c-0.2-0.5-0.5-1-1-1.1c-0.4-0.2-1-0.1-1.9,0.2l-0.7,0.2c-0.4,0.1-0.5,0.2-0.3,0.9l2.1,6.5
				c0.5,1.7,0.7,2,1.7,1.8l0.7-0.1c0.3,0.1,0.4,0.6,0.2,0.7c-1.1,0.3-2.1,0.6-3,0.9c-1,0.3-2,0.7-3.1,1.1c-0.2,0-0.4-0.5-0.3-0.7
				l0.8-0.3c0.9-0.4,0.9-0.8,0.3-2.5l-2.1-6.5c-0.2-0.7-0.2-0.7-0.8-0.5l-0.8,0.2c-0.7,0.2-1.2,0.4-1.5,1c-0.2,0.4-0.3,0.8-0.3,1.4
				c-0.1,0.2-0.5,0.3-0.7,0.1c0-1.1-0.2-2.6-0.3-3.2C58.4,22,58.7,21.9,58.9,22z M43.5,31.3c0.8-0.6,2.3-1.7,4-2.7
				c1.5-0.9,2.6-1.5,3.7-1.7c1.2-0.2,2.3,0.2,3,1.3c0.8,1.3,0.4,2.5-0.3,3.4c-0.1,0.2,0,0.4,0.3,0.6c2,1,3.6,1.6,4.6,1.7
				c0.6,0.1,1.1-0.1,1.4-0.2c0.2,0,0.4,0.3,0.3,0.4c-0.2,0.3-0.5,0.5-1.3,1c-1.4,0.9-2.5,1.1-4.2,0.4c-1-0.4-2.2-1-2.9-1.4
				c-0.5-0.2-0.9-0.1-1.3,0.1c-0.4,0.2-0.4,0.3-0.2,0.7l0.9,1.3c1,1.5,1.2,1.8,2.1,1.3l0.5-0.2c0.3,0,0.5,0.5,0.4,0.7
				c-0.8,0.5-1.7,1-2.6,1.5c-0.9,0.6-1.7,1.1-2.5,1.7c-0.2,0-0.5-0.4-0.4-0.6l0.4-0.3c0.8-0.6,0.6-1-0.3-2.5l-2.8-4.4
				c-1.2-1.8-1.3-1.8-2.2-1.5L43.9,32C43.7,32.1,43.3,31.5,43.5,31.3z M34,40c2.9-3.3,6.5-3.1,8.9-1c2.8,2.4,2.9,6.2,0.4,9.1
				c-2.8,3.3-6.5,3.4-8.9,1.2C31.7,46.9,31.4,43,34,40z M22.3,60.1c0.2-0.5,0.4-0.9,0.6-1.6c0.7,0,1.5-0.2,3.3-0.8l3.3-1.1
				c0.8-0.3,2.2-0.8,2.5-0.9c-0.2-0.1-0.4-0.2-0.9-0.5l-1.4-0.6c-1-0.5-1.9-0.8-2.2-0.9c-1-0.4-1.4-0.3-1.7,0.3l-0.4,0.6
				c-0.2,0.1-0.7-0.1-0.7-0.4c0.4-0.8,0.7-1.3,1-2.1c0.3-0.7,0.5-1.2,0.9-2.1c0.2-0.2,0.7,0,0.7,0.3l-0.2,0.6
				c-0.2,0.7,0.1,1,0.9,1.5c0.3,0.2,1.1,0.6,2.1,1L34,55c0.5,0.2,2.5,1.1,2.9,1.2c0.1,0.1,0.1,0.4,0,0.6c0,0.1-0.1,0.1-0.1,0.2
				c-0.4,0.1-1.2,0.3-3.4,1.1L27.7,60c-1.3,0.4-2.3,0.7-2.6,0.9c0.5,0.3,1.3,0.6,2,1l1.6,0.7c1,0.5,1.9,0.8,2.2,0.9
				c1,0.4,1.4,0.3,1.8-0.4l0.3-0.5c0.2-0.1,0.7,0.1,0.7,0.4c-0.4,0.8-0.7,1.4-1,2.1c-0.3,0.7-0.5,1.2-0.9,2.1
				c-0.2,0.2-0.7,0-0.7-0.3l0.2-0.6c0.2-0.7-0.1-1-0.9-1.5c-0.3-0.2-1.1-0.6-2.1-1L25,62.3c-1.4-0.6-1.7-0.7-2.1-0.6
				c-0.3,0.1-0.8,0.7-0.9,0.9l-0.2,0.2c-0.2,0.1-0.7-0.2-0.7-0.4C21.6,61.5,22,60.7,22.3,60.1L22.3,60.1z M19.4,93.3l-0.1,0.7
				c-0.1,0.2-0.6,0.2-0.7,0c0-0.9,0-1.8-0.1-2.8c-0.1-1-0.1-1.7-0.2-2.7c0.1-0.2,0.6-0.2,0.7-0.1l0.1,0.5c0.2,0.8,0.4,0.8,1.6,0.8
				l6.4-0.4l0-0.1c-1.1-0.5-2.1-1-4.1-1.9l-1-0.4c-1.2-0.5-3.1-1.2-3.9-1.5c-0.1-0.1-0.1-0.2-0.1-0.3c0-0.1,0-0.2,0.1-0.3
				c0.9-0.3,2.5-1.2,3.3-1.6c1.7-1,3.5-1.9,5.3-2.8l0-0.1c-1.1,0.1-1.9,0.1-2.6,0.1c-1,0-2.6,0.1-3.6,0.1c-1.2,0.1-1.5,0.1-1.6,0.7
				l-0.1,0.8c-0.1,0.2-0.6,0.2-0.7,0c0-0.8,0-1.3,0-2c0-0.5-0.1-1.3-0.2-2.3c0.1-0.2,0.6-0.3,0.7,0c0.2,1.2,0.4,1.4,1.5,1.4
				c0.3,0,1.7,0.1,3.9,0.1c1.2,0,2.5,0,3.4-0.1c0.8-0.1,1.2-0.3,1.3-1.1l0.1-0.4c0.1-0.2,0.6-0.2,0.7,0c0,0.9,0,1.5,0,2.4
				c0,0.8,0.1,1.5,0.2,2.2c-1.3,0.1-2.6,0.9-3.6,1.4c-1.3,0.7-2.6,1.4-3.7,2.1c1,0.5,2.3,1.1,3.5,1.7c0.9,0.4,2.6,1.2,4.1,1.5
				c0,0.9,0,1.5,0,2.1c0,0.5,0.1,1.5,0.2,2.3c-0.1,0.2-0.5,0.2-0.7,0.1l-0.1-0.4c-0.3-1.2-0.8-1.2-1.8-1.2c-1.9,0.1-5.4,0.3-6.7,0.5
				C19.9,92.5,19.5,92.6,19.4,93.3L19.4,93.3z M22.3,106.5c-1.5-4,0.1-7.2,3.1-8.3c3.3-1.3,6.8,0.3,8.2,4c1.5,4-0.3,7.1-3.2,8.2
				C26.9,111.7,23.6,110.1,22.3,106.5z M34.7,125.3c-1.1-0.2-2.3-1-3.1-2.1c-0.9-1.2-1.6-2.5-1.6-3.5c0-1.2,0.7-2.4,2.2-3.6l3.1-2.4
				c1.4-1.1,1.6-1.4,1.1-2.2l-0.3-0.4c0-0.3,0.4-0.5,0.6-0.4c0.5,0.8,1.1,1.6,1.8,2.4c0.6,0.8,1.2,1.6,1.9,2.3
				c0,0.2-0.3,0.6-0.6,0.5l-0.4-0.4c-0.7-0.7-1-0.5-2.4,0.5l-2.9,2.3c-1.9,1.4-2.7,3.1-1.4,4.8c1.4,1.8,3.2,1.5,5.1,0l1.7-1.3
				c0.9-0.7,1.5-1.3,1.8-1.5c0.8-0.7,0.9-1,0.5-1.6l-0.4-0.6c0-0.3,0.4-0.5,0.6-0.4c0.5,0.7,0.8,1.2,1.3,1.8c0.5,0.6,0.8,1,1.4,1.7
				c0.1,0.2-0.3,0.6-0.6,0.5l-0.4-0.4c-0.5-0.5-0.9-0.4-1.7,0.1c-0.3,0.2-1,0.7-1.9,1.4l-1.8,1.4C37.2,125,35.9,125.5,34.7,125.3
				L34.7,125.3z M56.9,130.9l-0.5-0.3c-0.7-0.3-1-0.2-1.6,0.6c-0.2,0.3-0.8,0.9-1.4,1.8l-2.3,3.2c-0.3,0.4-1.5,2.1-1.8,2.5
				c-0.1,0-0.4,0-0.5-0.1c-0.1,0-0.1-0.1-0.2-0.2c0-0.5,0-1.2-0.3-3.4l-0.7-5.8c-0.2-1.3-0.3-2.3-0.4-2.7c-0.4,0.4-0.9,1.1-1.3,1.8
				l-1,1.4c-0.7,0.9-1.1,1.7-1.3,1.9c-0.5,0.9-0.6,1.3,0,1.8l0.5,0.4c0.1,0.2-0.2,0.6-0.5,0.6c-0.7-0.6-1.2-0.9-1.8-1.4
				c-0.6-0.4-1-0.7-1.9-1.3c-0.1-0.2,0.1-0.7,0.4-0.6l0.5,0.3c0.7,0.3,1,0.1,1.6-0.6c0.2-0.3,0.8-0.9,1.4-1.8l2.1-2.9
				c0.9-1.2,1-1.5,1-1.9c0-0.3-0.5-0.9-0.7-1.1l-0.1-0.2c-0.1-0.2,0.3-0.6,0.5-0.6c0.8,0.6,1.4,1.1,2,1.6c0.5,0.3,0.8,0.5,1.4,0.9
				c-0.2,0.6-0.2,1.5,0.1,3.3l0.4,3.5c0.1,0.8,0.3,2.2,0.4,2.6c0.2-0.1,0.3-0.3,0.6-0.8l0.9-1.2c0.7-0.9,1.1-1.7,1.3-1.9
				c0.5-0.9,0.6-1.3,0.1-1.7l-0.5-0.5c-0.1-0.2,0.2-0.6,0.5-0.6c0.6,0.5,1.1,0.9,1.8,1.4c0.6,0.4,1,0.7,1.9,1.3
				C57.4,130.5,57.2,130.9,56.9,130.9L56.9,130.9z M68.9,137.7c-0.2,0.1-0.6,0-0.7-0.2c0.1-0.5,0.2-1.1-0.1-1.5
				c-0.2-0.4-0.7-0.7-1.6-1l-0.6-0.2c-0.4-0.2-0.5-0.1-0.7,0.5l-2.3,6.3c-0.6,1.6-0.7,2,0.2,2.4l0.6,0.3c0.1,0.2-0.1,0.7-0.3,0.7
				c-1-0.4-2-0.8-2.9-1.2c-1-0.4-1.9-0.7-3.1-1.1c-0.1-0.2,0-0.6,0.2-0.7l0.8,0.2c0.9,0.2,1.1-0.1,1.7-1.7l2.3-6.3
				c0.2-0.7,0.3-0.7-0.3-0.9l-0.8-0.3c-0.6-0.2-1.2-0.4-1.8-0.1c-0.4,0.2-0.7,0.4-1.1,0.9c-0.2,0.1-0.6-0.1-0.6-0.3
				c0.6-0.8,1.4-2.1,1.7-2.6c0.1-0.1,0.5,0,0.5,0.2c-0.1,0.4,0.2,0.6,1,0.8l7.1,2.6c0.8,0.3,1.1,0.4,1.4,0c0.2-0.1,0.5,0.1,0.5,0.2
				C69.9,135.4,69.3,136.8,68.9,137.7z M72.9,118.4c-1.6,0-3.3-0.1-5.1-0.8c-1.6-0.6-1.2-1.1-4.1-2.3c-1.2-0.3-1.8-0.4-3.7-1.7
				c-1.7-0.8-2.9-1.3-3.5-1.6c-0.8-0.4-1.7-1.6-2.4-2c-5.3-3.2-6.1-4.1-6.5-4.8c-0.7-1.3-1.8-1.1-0.8-3.5c0.1,0.1,0-8.2,0-8.2
				s-1.4-2.6,0.4-2.4c0.3-0.1,4.4,0.4,4.5-0.6c0.1-0.5-2,0-3.7-0.2c-2.8-0.4-3.1,1.5-2.1,3c0.1,0.1-0.1,3.3-0.1,3.3
				s-2.9-2.1-4.2-3.8c-0.7-0.9-1.9-0.7-3.2-2c-1.2-1.1-1.7-3-2.1-4.5c-0.1-0.1,0-0.1,0-0.1l0,0.1c0.1,0.1,0.6,0.3,1.8,0.8
				c0.7,0.3,1.5,1.2,2,1.4c1,0.5,3.9,0.9,4,1.2c0-0.1,0-0.8-1.1-1.4c-0.8-0.4-2.6-0.7-3.2-1.2c-0.5-0.4-0.1-0.6-0.8-1.2
				c-2.1-0.4-2.4-1.1-2.4-1.1s0-0.6-0.5-1.6c-0.8-1.1-1.2,0.6-1.5-3c4.2,5.5,11.9,8.3,17.1,9c1.5,0,2,0.3,1.8,2.1v5.3
				c0,0-3.5-1.6-5.6-4.6c0,0,0.3-0.4-0.4-0.3c-1.5,0.3,0.2,1.3,0.4,1.7c0.6,1.9,5.6,4.7,5.6,4.7c3.1,1.4,2.2,1.5,3,1.9
				c0.6,0.3,1.8,0.8,3.5,1.6c1.8,1.3,2.5,1.4,3.7,1.7c2.9,1.2,2.5,1.7,4.1,2.3c1.8,0.7,3.4,0.7,4.9,0.7c1.8,0.2,4.2,0,4.2,0
				c-3.5,0.7-4.5,1.2-4.7,2c-0.2,0.8-0.4,1.8,0.6,3L72.9,118.4L72.9,118.4z M73.4,120.4c0,0,0-0.3,0-0.9H74v-8.4l-0.2-0.3
				c-0.7-0.8-0.6-1.4-0.4-2c0-0.1,0.3-0.5,3.8-1.2l-0.1-0.4c0.2-0.1,0.4-0.1,0.6-0.2c2.5-1.1,0.7-0.8,0.1-0.9
				c-0.6-0.1-0.8-0.6,0.1-0.6c0.9,0,1.8,0.3,1.8,0.8v3c0,0-3.5,0.2-3.9-0.3c-0.4-0.5-3-0.1-1.7,1.1c0.9,0.3,4.2,1.2,8.7,0.8
				c0.2,0,0,0,0,0c3.7,0.5,7.7-0.6,8.7-0.8c1.3-1.2-1.3-1.6-1.7-1.1c-0.4,0.5-3.9,0.3-3.9,0.3v-3c0-0.5,0.8-0.8,1.8-0.8
				c0.9,0,0.7,0.5,0.1,0.6c-0.6,0.1-2.4-0.1,0.1,0.9c0.2,0.1,0.4,0.2,0.6,0.2l-0.1,0.4c3.5,0.7,3.7,1.1,3.8,1.2
				c0.2,0.7,0.2,1.2-0.4,2l-0.2,0.3v8.4h0.6c0,0.5,0,0.9,0,0.9s0.8-0.1-1.7,1.4c-2.5,1.5-7.7,1.1-7.7,1.1s-5.1,0.4-7.7-1.1
				C72.6,120.3,73.4,120.4,73.4,120.4z M95.8,147.1c-0.9,0-1.9,0.1-2.9,0.2c-1,0.1-2,0.2-2.8,0.3c-0.2-0.1-0.3-0.6-0.1-0.8l0.4-0.1
				c1-0.2,1-0.6,0.8-2.3l-0.2-1.8c-0.1-0.6-0.1-0.6-1-0.5l-3.5,0.3c-0.9,0.1-0.9,0.1-0.9,0.7l0.2,1.8c0.2,1.7,0.3,2.1,1.2,2.1l0.5,0
				c0.2,0.1,0.2,0.6,0,0.8c-0.9,0-1.9,0.1-2.9,0.2c-1,0.1-2,0.2-2.8,0.3c-0.2-0.1-0.3-0.6-0.1-0.8l0.4-0.1c1-0.2,1-0.6,0.8-2.3
				l-0.5-5.4c-0.2-1.7-0.3-2.1-1.2-2.1l-0.5,0c-0.2-0.1-0.2-0.6,0-0.8c0.9,0,1.9-0.1,3-0.2c1-0.1,2-0.2,2.8-0.3
				c0.2,0.1,0.3,0.6,0.1,0.8l-0.4,0.1c-1,0.2-1,0.6-0.8,2.3l0.1,1.3c0.1,0.6,0.2,0.6,1,0.5l3.5-0.3c0.8-0.1,0.9-0.1,0.9-0.7
				l-0.1-1.3c-0.2-1.7-0.3-2.1-1.2-2.1l-0.4,0c-0.2-0.1-0.2-0.6,0-0.8c0.8,0,1.8-0.1,2.9-0.2c1-0.1,2-0.2,2.8-0.3
				c0.2,0.1,0.3,0.6,0.1,0.8l-0.4,0.1c-1,0.2-1,0.6-0.8,2.3l0.5,5.4c0.2,1.7,0.3,2.1,1.2,2.1l0.5,0C96,146.5,96,147,95.8,147.1z
				 M111.2,141.8c-1.6,0.5-2.9,1-4.2,1.5l-2.6,1c-1,0.4-1.9,0.8-3,1.2c-0.2,0-0.4-0.5-0.3-0.7l0.7-0.4c0.9-0.4,0.8-0.8,0.2-2.4
				l-1.9-5.1c-0.6-1.6-0.8-1.9-1.8-1.7l-0.3,0.1c-0.3-0.1-0.4-0.6-0.2-0.7c0.7-0.2,1.6-0.5,2.6-0.9l3.9-1.5c1.1-0.4,2-0.8,2.2-0.9
				c0.2,0.3,0.7,1.4,1.2,2.4c0,0.2-0.4,0.4-0.7,0.3c-0.3-0.4-0.6-0.7-0.8-0.9c-0.5-0.4-1.2-0.2-2.3,0.2l-1.3,0.5
				c-0.6,0.2-0.6,0.3-0.2,1.5l0.8,2c0.2,0.4,0.2,0.4,0.7,0.2l0.9-0.3c1.3-0.5,1.6-0.6,1.5-1.4l-0.1-0.6c0.1-0.2,0.5-0.3,0.7-0.2
				c0.2,0.6,0.4,1.2,0.6,1.8c0.3,0.7,0.5,1.3,0.8,1.8c-0.1,0.2-0.5,0.4-0.7,0.3l-0.4-0.5c-0.5-0.7-0.7-0.6-2-0.1l-0.9,0.3
				c-0.5,0.2-0.6,0.2-0.4,0.7l0.6,1.5c0.3,0.7,0.6,1.4,0.9,1.6c0.3,0.2,0.9,0.1,2.4-0.5c2-0.8,2.2-1.4,2.3-2.9
				c0.1-0.1,0.5-0.3,0.7-0.2C111.1,139.9,111.3,141.3,111.2,141.8L111.2,141.8z M127.1,131.2c-0.2,0.3-0.5,0.6-1.2,1.1
				c-1.3,1-2.4,1.2-4.1,0.7c-1-0.3-2.2-0.9-2.9-1.2c-0.5-0.2-0.8-0.1-1.2,0.2c-0.4,0.3-0.4,0.3-0.1,0.7l0.9,1.3
				c1,1.4,1.3,1.7,2.2,1.2l0.5-0.3c0.3,0,0.5,0.4,0.4,0.6c-0.8,0.5-1.6,1.1-2.4,1.7c-0.8,0.6-1.6,1.2-2.4,1.8
				c-0.2,0-0.5-0.3-0.5-0.6l0.4-0.4c0.7-0.7,0.6-1-0.5-2.4l-3-4.1c-1.2-1.7-1.4-1.7-2.2-1.3l-0.3,0.1c-0.2,0.1-0.6-0.4-0.4-0.6
				c0.8-0.6,2.2-1.8,3.7-2.9c1.4-1,2.5-1.6,3.5-1.9c1.2-0.2,2.3,0.1,3,1.1c0.9,1.2,0.5,2.4-0.1,3.3c-0.1,0.2,0,0.4,0.3,0.5
				c2,0.9,3.6,1.3,4.7,1.4c0.6,0,1-0.1,1.3-0.3C127,130.8,127.2,131.1,127.1,131.2L127.1,131.2z M138.3,117.5
				c-0.6,0.8-1,1.4-1.6,2.2c-0.2,0-0.6-0.2-0.6-0.4l0.2-0.4c0.4-0.7,0.2-0.9-0.7-1.6l-5.2-3.8l0,0c0.5,1.1,1,2.1,2,4.1l0.5,1
				c0.6,1.1,1.6,2.9,2.1,3.6c0,0.1-0.1,0.2-0.1,0.3c-0.1,0.1-0.2,0.2-0.3,0.2c-0.9-0.3-2.7-0.7-3.6-0.9c-2-0.3-3.9-0.7-5.8-1.2l0,0
				c0.9,0.7,1.5,1.2,2.1,1.6c0.8,0.7,2.1,1.6,2.9,2.2c1,0.7,1.2,0.9,1.7,0.5l0.6-0.5c0.2,0,0.5,0.2,0.6,0.5c-0.5,0.6-0.9,1-1.3,1.6
				c-0.3,0.4-0.7,1-1.3,1.9c-0.2,0.1-0.6-0.2-0.6-0.4c0.6-1,0.6-1.3-0.2-2c-0.2-0.2-1.3-1.1-2.9-2.5c-0.9-0.7-1.9-1.6-2.7-2.1
				c-0.7-0.5-1.1-0.5-1.7,0l-0.3,0.3c-0.2,0-0.6-0.3-0.6-0.5c0.6-0.7,0.9-1.1,1.5-1.9c0.5-0.6,0.9-1.2,1.2-1.8c1,0.8,2.5,1,3.7,1.2
				c1.5,0.3,2.9,0.6,4.2,0.7c-0.5-1.1-1.1-2.3-1.7-3.5c-0.4-0.9-1.2-2.6-2.2-3.8c0.6-0.7,1-1.2,1.3-1.6c0.3-0.4,0.9-1.2,1.3-1.9
				c0.2-0.1,0.5,0.1,0.6,0.4l-0.2,0.4c-0.5,1.1-0.2,1.4,0.6,2c1.5,1.1,4.3,3.2,5.4,3.9c0.8,0.5,1.2,0.7,1.7,0.2l0.5-0.5
				c0.2,0,0.6,0.3,0.6,0.5C139.4,116,138.9,116.7,138.3,117.5L138.3,117.5z M145.1,103.4c-1.3,4-4.6,5.5-7.6,4.5
				c-3.4-1.1-5.1-4.5-3.8-8.3c1.4-4.1,4.7-5.3,7.7-4.3C144.7,96.4,146.3,99.7,145.1,103.4z M141.6,88.4l1.8,0c1.1,0,2,0,2.3,0
				c1-0.1,1.4-0.2,1.5-1l0.1-0.6c0.2-0.2,0.6-0.2,0.8,0.1c-0.1,0.9-0.1,1.5-0.1,2.2c0,0.8,0,1.3,0,2.3c-0.1,0.2-0.6,0.3-0.8,0
				l-0.1-0.6c-0.1-0.7-0.4-0.9-1.4-1c-0.3,0-1.2-0.1-2.3-0.1l-3.5-0.1c-1.5,0-1.8,0-2.1,0.3c-0.2,0.2-0.4,0.9-0.5,1.2l-0.1,0.2
				c-0.2,0.2-0.7,0.1-0.8-0.1c0.1-1,0.1-1.8,0.1-2.6c0-0.6,0-1,0-1.7c0.6-0.2,1.3-0.7,2.7-1.9l2.6-2.3c0.6-0.5,1.7-1.5,1.9-1.8
				c-0.2-0.1-0.4-0.1-1-0.1l-1.5,0c-1.1,0-2,0-2.3,0c-1,0.1-1.4,0.2-1.5,0.9l-0.1,0.7c-0.2,0.2-0.6,0.2-0.8-0.1
				c0.1-0.8,0.1-1.4,0.1-2.2c0-0.8,0-1.3,0-2.3c0.1-0.2,0.6-0.3,0.8,0l0.1,0.6c0.1,0.7,0.4,0.9,1.4,1c0.3,0,1.2,0.1,2.3,0.1l3.9,0.1
				c0.5,0,2.6,0.1,3.1,0c0.1,0.1,0.2,0.4,0.2,0.5c0,0.1,0,0.2,0,0.3c-0.4,0.3-1,0.7-2.7,2.2l-4.3,3.9c-1,0.9-1.8,1.5-2,1.8
				C140,88.3,140.8,88.3,141.6,88.4L141.6,88.4z"/>
			<path class="st1" d="M36.1,46.5c2,1.8,4.8,2.8,6.5,0.8c1.2-1.4,1.1-3.4-1.3-5.5c-2.3-2-5-2.9-6.7-1C33.6,42,33.4,44.2,36.1,46.5z
				"/>
			<path class="st1" d="M114.8,127.3c-0.7,0.5-0.8,0.6-0.4,1.1l2,2.7c0.2,0.3,0.3,0.4,0.5,0.4c0.1,0,0.5-0.2,1-0.6
				c1.2-0.9,1.1-2.1,0.4-3C117.3,126.6,116,126.4,114.8,127.3z"/>
			<path class="st1" d="M133,60.7c1.1,2.6,3.7,2.8,6.2,1.6c2.8-1.2,3.5-3.7,2.6-6c-0.6-1.4-0.7-1.3-1.8-0.9l-5.4,2.4
				C133.1,58.5,132.3,59,133,60.7z"/>
			<path class="st1" d="M140.9,98.5c-2.9-1-5.6-0.7-6.4,1.6c-0.5,1.4,0.2,3.5,3.4,4.6c2.5,0.8,5.4,0.7,6.2-1.7
				C144.8,101.3,143.9,99.5,140.9,98.5z"/>
			<path class="st0" d="M21.8,62.8l0.2-0.2c0.2-0.2,0.7-0.8,0.9-0.9c0.4-0.1,0.7,0,2.1,0.6l3.3,1.5c1,0.5,1.8,0.9,2.1,1
				c0.8,0.5,1.1,0.8,0.9,1.5l-0.2,0.6c0,0.3,0.5,0.4,0.7,0.3c0.4-0.9,0.5-1.4,0.9-2.1c0.3-0.7,0.6-1.3,1-2.1c0-0.3-0.4-0.5-0.7-0.4
				l-0.3,0.5c-0.4,0.7-0.8,0.7-1.8,0.4c-0.3-0.1-1.1-0.4-2.2-0.9l-1.6-0.7c-0.8-0.3-1.6-0.7-2-1c0.4-0.2,1.3-0.5,2.6-0.9l5.6-1.9
				c2.2-0.8,2.9-1,3.4-1.1c0.1-0.1,0.1-0.2,0.1-0.2c0.1-0.1,0.1-0.4,0-0.6c-0.4-0.1-2.4-1-2.9-1.2l-3.6-1.6c-1-0.5-1.8-0.9-2.1-1
				c-0.9-0.4-1.1-0.8-0.9-1.5l0.2-0.6c0-0.3-0.5-0.4-0.7-0.3c-0.4,0.9-0.5,1.4-0.9,2.1c-0.3,0.8-0.6,1.3-1,2.1
				c0,0.3,0.4,0.5,0.7,0.4l0.4-0.6c0.4-0.6,0.8-0.7,1.7-0.3c0.3,0.1,1.1,0.4,2.2,0.9l1.4,0.6c0.5,0.2,0.7,0.3,0.9,0.5
				c-0.3,0.2-1.7,0.7-2.5,0.9l-3.3,1.1c-1.8,0.6-2.7,0.8-3.3,0.8c-0.3,0.7-0.4,1.1-0.6,1.6c-0.3,0.7-0.7,1.5-1.1,2.3
				C21.1,62.6,21.6,62.9,21.8,62.8L21.8,62.8z"/>
			<path class="st0" d="M34.4,49.3c2.5,2.1,6.1,2,8.9-1.2c2.5-2.9,2.4-6.7-0.4-9.1c-2.4-2.1-6-2.3-8.9,1
				C31.4,43,31.7,46.9,34.4,49.3z M34.6,40.8c1.6-1.9,4.3-1.1,6.7,1c2.5,2.1,2.5,4.1,1.3,5.5c-1.7,1.9-4.5,0.9-6.5-0.8
				C33.4,44.2,33.6,42,34.6,40.8z"/>
			<path class="st0" d="M43.9,32l0.3-0.1c0.8-0.4,1-0.3,2.2,1.5l2.8,4.4c1,1.5,1.1,1.9,0.3,2.5l-0.4,0.3c-0.1,0.2,0.2,0.6,0.4,0.6
				c0.8-0.6,1.6-1.1,2.5-1.7c0.9-0.5,1.7-1.1,2.6-1.5c0.1-0.2-0.1-0.6-0.4-0.7l-0.5,0.2c-0.9,0.4-1.2,0.2-2.1-1.3l-0.9-1.3
				c-0.2-0.3-0.2-0.4,0.2-0.7c0.4-0.3,0.8-0.4,1.3-0.1c0.7,0.4,2,1,2.9,1.4c1.7,0.6,2.8,0.5,4.2-0.4c0.8-0.5,1.1-0.8,1.3-1
				c0.1-0.1-0.1-0.4-0.3-0.4c-0.3,0.2-0.8,0.3-1.4,0.2c-1-0.1-2.7-0.7-4.6-1.7c-0.4-0.2-0.4-0.3-0.3-0.6c0.6-0.9,1.1-2.1,0.3-3.4
				c-0.7-1.1-1.8-1.5-3-1.3c-1.1,0.2-2.2,0.7-3.7,1.7c-1.6,1.1-3.2,2.1-4,2.7C43.3,31.5,43.7,32.1,43.9,32z M48.3,29.2
				c1.2-0.8,2.6-0.5,3.4,0.8c0.6,1,0.7,2.2-0.6,3c-0.5,0.3-0.9,0.6-1,0.5c-0.1,0-0.3-0.1-0.5-0.4l-1.8-2.9
				C47.5,29.8,47.5,29.7,48.3,29.2z"/>
			<path class="st0" d="M59.3,25.3c0.1-0.7,0.1-1.1,0.3-1.4c0.3-0.6,0.9-0.8,1.5-1l0.8-0.2c0.6-0.2,0.6-0.2,0.8,0.5l2.1,6.5
				c0.5,1.7,0.6,2.1-0.3,2.5l-0.8,0.3c-0.2,0.2,0,0.7,0.3,0.7c1.2-0.4,2.1-0.8,3.1-1.1c1-0.3,1.9-0.6,3-0.9c0.1-0.2,0-0.7-0.2-0.7
				l-0.7,0.1c-1,0.2-1.2-0.1-1.7-1.8l-2.1-6.5c-0.2-0.7-0.2-0.7,0.3-0.9l0.7-0.2c0.9-0.3,1.5-0.3,1.9-0.2c0.5,0.2,0.7,0.6,1,1.1
				c0.2,0.1,0.6-0.1,0.7-0.3c-0.3-1-0.6-2.5-0.7-3.2c-0.1-0.1-0.5,0-0.6,0.1c0,0.5-0.3,0.6-1.1,0.9l-7.4,2.3
				c-0.8,0.2-1.1,0.3-1.3-0.1c-0.1-0.1-0.5,0-0.6,0.2c0.1,0.6,0.3,2.2,0.3,3.2C58.8,25.6,59.2,25.5,59.3,25.3z"/>
			<path class="st0" d="M75.1,18.8c1,0.1,1.1,0.5,1.1,2.2l0.1,5.5c0,1.8,0,2.1-1,2.3L75,29c-0.2,0.2-0.1,0.7,0,0.8
				c0.8-0.1,1.8-0.1,2.9-0.2c1,0,2,0,3,0c0.2-0.1,0.2-0.6,0-0.8l-0.5,0c-1-0.1-1.1-0.5-1.1-2.2l0-1.8c0-0.6,0-0.6,0.9-0.6l3.6-0.1
				c0.9,0,1,0,1,0.6l0,1.8c0,1.8,0,2.1-1,2.3l-0.4,0.1c-0.2,0.2-0.1,0.7,0,0.8c0.8-0.1,1.8-0.1,2.9-0.2c1,0,2,0,3,0
				c0.2-0.1,0.2-0.6,0-0.8l-0.5,0c-1-0.1-1.1-0.5-1.1-2.2l-0.1-5.5c0-1.8,0-2.1,1-2.3l0.4-0.1c0.2-0.2,0.1-0.7,0-0.8
				c-0.9,0.1-1.9,0.1-2.9,0.2c-1.1,0-2.1,0-2.9,0c-0.2,0.1-0.2,0.6,0,0.8l0.4,0c1,0.1,1.1,0.5,1.1,2.2l0,1.4c0,0.6-0.1,0.6-0.9,0.6
				l-3.6,0.1c-0.9,0-1,0-1-0.6l0-1.4c0-1.8,0-2.1,1-2.3l0.4-0.1c0.2-0.2,0.1-0.7,0-0.8C79.6,18,78.6,18,77.6,18c-1.1,0-2.1,0-3,0
				c-0.2,0.1-0.2,0.6,0,0.8L75.1,18.8L75.1,18.8z"/>
			<path class="st0" d="M94.8,30.7c1,0.2,2,0.5,3.1,0.9c0.2-0.1,0.4-0.5,0.2-0.7l-0.7-0.3c-0.9-0.3-0.9-0.7-0.5-2.4l0.4-1.8
				c0.1-0.5,0.2-0.5,0.7-0.4l1.1,0.3c1.4,0.4,1.6,0.4,1.7,1.3l0,0.7c0.1,0.2,0.6,0.3,0.7,0.1c0.1-0.6,0.2-1.3,0.4-2
				c0.2-0.6,0.4-1.3,0.6-1.9c-0.1-0.2-0.5-0.4-0.7-0.2l-0.3,0.6c-0.4,0.7-0.6,0.7-2.1,0.3l-1.1-0.3c-0.6-0.1-0.6-0.2-0.5-0.6
				l0.5-2.2c0.3-1.2,0.4-1.3,1-1.1l1.3,0.3c1.4,0.4,1.9,0.6,2.1,1.2c0.1,0.3,0.1,0.7,0.1,1.1c0.1,0.2,0.6,0.3,0.7,0.1
				c0.2-1.2,0.5-2.4,0.5-2.7c-0.2,0-1.3-0.2-2.4-0.5l-4.1-1c-1-0.3-2-0.5-2.7-0.8c-0.2,0.1-0.4,0.5-0.2,0.7l0.2,0.1
				c0.9,0.4,0.9,0.8,0.5,2.5l-1.4,5.4c-0.4,1.7-0.6,2-1.6,1.9l-0.4,0c-0.2,0.1-0.3,0.6-0.2,0.8C93,30.2,93.9,30.4,94.8,30.7
				L94.8,30.7z"/>
			<path class="st0" d="M103.6,33.4c0.9,0.4,1.8,0.8,2.8,1.2c0.9,0.4,1.8,0.9,2.7,1.4c0.2,0,0.5-0.5,0.4-0.7l-0.5-0.3
				c-0.8-0.5-0.7-0.9,0-2.5l2.4-5c0.8-1.6,1-1.9,1.9-1.6l0.5,0.2c0.3-0.1,0.4-0.5,0.3-0.7c-0.9-0.4-1.8-0.8-2.7-1.2
				c-1-0.5-1.9-0.9-2.7-1.4c-0.2,0-0.5,0.5-0.4,0.7l0.5,0.3c0.8,0.5,0.7,0.9,0,2.5l-2.4,5c-0.8,1.6-1,1.9-1.9,1.6l-0.5-0.2
				C103.6,32.7,103.5,33.2,103.6,33.4L103.6,33.4z"/>
			<path class="st0" d="M112.3,36.8l-0.7-0.4c-0.3,0-0.5,0.4-0.4,0.6c1,0.7,1.9,1.3,2.7,1.9l2.3,1.7c1.1,0.9,2.3,1.7,3.6,2.8
				c0.5-0.3,1.6-1.1,2.4-1.9c0-0.3-0.3-0.5-0.5-0.5c-1.3,0.8-2,0.9-3.8-0.4c-1.3-1-1.7-1.5-1.8-1.8c0-0.4,0.4-1,0.9-1.6l1-1.3
				c0.3-0.4,0.3-0.4,0.8-0.1l0.8,0.6c1.2,0.9,1.3,1,1,1.8l-0.3,0.6c0,0.2,0.4,0.5,0.6,0.4c0.3-0.5,0.7-1.1,1.1-1.6
				c0.4-0.5,0.8-1,1.2-1.5c0-0.2-0.3-0.5-0.6-0.5l-0.5,0.4c-0.7,0.5-0.9,0.4-2-0.5l-0.8-0.6c-0.5-0.4-0.5-0.4-0.2-0.8l1.3-1.7
				c0.8-1,0.8-1.1,1.4-0.7l1.1,0.8c1,0.8,1.5,1.3,1.5,1.9c0,0.3-0.1,0.7-0.3,1.2c0.1,0.2,0.4,0.5,0.6,0.4c0.7-1,1.3-2.1,1.4-2.4
				c-0.2-0.1-1.1-0.7-2-1.4l-3.4-2.6c-0.8-0.6-1.6-1.3-2.2-1.8c-0.2,0-0.6,0.3-0.5,0.6l0.2,0.2c0.7,0.7,0.5,1-0.5,2.4l-3.3,4.4
				C113.5,37.1,113.2,37.3,112.3,36.8z"/>
			<path class="st0" d="M129.4,41.1l-4.3,3.5c-1.4,1.1-1.7,1.3-2.4,0.6l-0.4-0.4c-0.3-0.1-0.6,0.3-0.6,0.5c0.6,0.7,1.3,1.5,2,2.3
				l1.7,2.1c0.8,1,1.8,2.3,2.7,3.4c0.7-0.2,2-0.8,2.8-1.3c0.1-0.3-0.2-0.6-0.4-0.6c-2,0.6-2.4,0.4-3.6-1.2c-0.9-1.1-1.1-1.6-1-1.9
				c0.1-0.4,0.7-1,1.3-1.5l4-3.3c1.4-1.1,1.7-1.3,2.4-0.6l0.4,0.4c0.3,0.1,0.6-0.3,0.6-0.5c-0.6-0.7-1.3-1.5-1.9-2.3
				c-0.7-0.8-1.3-1.6-1.9-2.5c-0.2-0.1-0.6,0.2-0.6,0.5l0.3,0.5C130.9,39.7,130.7,40,129.4,41.1z"/>
			<path class="st0" d="M130.6,55.3l-0.3-0.5c-0.2-0.1-0.7,0.1-0.7,0.3c0.4,0.9,0.9,1.8,1.1,2.3c0.3,0.7,0.7,1.9,1.1,3
				c0.8,1.8,1.6,3.1,2.7,4c1.8,1.4,3.8,1.8,5.9,0.9c2.3-1,3.5-3,3.3-5.4c-0.1-1.2-0.5-2.7-1.3-4.5c-0.7-1.7-1.4-3.1-2.2-4.5
				c-0.2-0.2-0.7,0-0.7,0.3l0.1,0.3c0.2,1.1-0.2,1.2-1.7,1.8l-4.9,2.2C131.4,56.1,131.1,56.2,130.6,55.3L130.6,55.3z M134.6,57.9
				l5.4-2.4c1.1-0.5,1.2-0.5,1.8,0.9c1,2.2,0.2,4.7-2.6,6c-2.5,1.1-5.1,0.9-6.2-1.6C132.3,59,133.1,58.5,134.6,57.9z"/>
			<path class="st1" d="M114.7,73.4l-0.4-0.9c-1.1-1.8-3.9-0.9-3,1.3c0.8,1.8,1.3,2.9,0.4,4.4c-0.6,0.9-2.2,1.7-2.2,1.7
				c9.3-3.2,10.3-12.8,7.7-18c-4.9-9.6-23.6,2.6-11.3,8.1C106.8,65.1,117.5,64.8,114.7,73.4L114.7,73.4z"/>
			<path class="st0" d="M61.9,75.5c0.5-0.3,1-0.4,1.6-0.4h4.4c0.5-1.7,1.5-3.4,2.8-5.1h-4C64.1,71.6,62.5,73.5,61.9,75.5z"/>
			<path class="st0" d="M95.7,69.9c0.8,1.4,1.6,3.2,2,5.2h2.2c0.8,0,1.6,0.3,2.2,0.8c-0.1-2.4-1.1-4.6-3.2-6.1
				C98.9,69.9,95.7,69.8,95.7,69.9L95.7,69.9z"/>
			<path class="st0" d="M111.4,68.7c0-0.4-0.3-0.7-0.7-0.7c-0.4,0-0.7,0.3-0.7,0.7c0,0.4,0.3,0.7,0.7,0.7
				C111.1,69.4,111.4,69.1,111.4,68.7z"/>
			<path class="st1" d="M113.2,82.4l0.2-1.2l-0.8,0.9c-3.1,3.3-7.9,6.2-10.5,7.8c-0.7,0.4-1.3,0.8-1.6,1l0.3,0.7
				C108,89.1,112.7,85.7,113.2,82.4z"/>
			<path class="st0" d="M51.5,61.9c-3.1-1.4-2.4-3.6-2.7-3.2c-2.3,3.4-0.8,6.4,1.9,8.5c2.9,2.1,2.8,3.5,3.8,2.6
				c6.7-5.8,4.5-12.7,1.6-14.9c-2.9-2.2-1.9-7.6-1.9-7.6s-3.2,2.6-4.4,5.8c-1.9,5.3,1.1,7.5,3.2,9c2.1,1.5,1,3.5,0.5,3.4
				C51.6,65,54.7,63.4,51.5,61.9L51.5,61.9z"/>
			<path class="st0" d="M100.3,79.1l1.1-0.6c0,0,0.4,0.3,0.7,0.3s1.7-0.7,0.6-1.3C101.6,76.8,100.3,79.1,100.3,79.1z"/>
			<path class="st0" d="M63.2,78.5c1.5,2,2.6,0,2.6,0c1.5,2,3,0,3,0s1.6,2,3-0.6c0,0,0.1-0.1,0.2-0.2c0.2,0.3,0.4,0.5,0.4,0.5
				c1.5,2,2.6,0,2.6,0c1.5,2,3,0,3,0s1.6,2,3-0.6c0,0,0.2-0.1,0.4-0.3c0.4,0.4,0.7,0.9,0.7,0.9c1.5,2,2.6,0,2.6,0c1.5,2,3,0,3,0
				s1.6,2,3-0.6c0,0,0.2-0.2,0.5-0.3c0.5,0.4,0.8,0.9,0.8,0.9c1.5,2,2.6,0,2.6,0c1.5,2,3,0,3,0s1.6,2,3-0.6c0,0,1.9-1.2,0.2-0.3
				c-1.7,0.9-2-0.3-2-0.3c-1.5-2-2.6,0-2.6,0c-1.5-2-3,0-3,0s-2.2-1.7-3.6-0.3c0.6-0.2,1.1,0.1,1.6,0.5c-0.1,0-0.1,0.1-0.2,0.1
				c-1.7,0.9-2-0.3-2-0.3c-1.5-2-2.6,0-2.6,0c-1.5-2-3,0-3,0s-2.2-1.7-3.6-0.3c0.6-0.2,1.2,0.1,1.6,0.5c-0.1,0-0.1,0.1-0.2,0.1
				c-1.7,0.9-2-0.3-2-0.3c-1.5-2-2.6,0-2.6,0c-1.5-2-3,0-3,0s-2.2-1.7-3.6-0.3c0.8-0.2,1.5,0.4,2,0.9c-1.7,0.9-2-0.3-2-0.3
				c-1.5-2-2.6,0-2.6,0c-1.5-2-3,0-3,0s-2.2-1.7-3.6-0.3C62.1,76.7,63.2,78.5,63.2,78.5L63.2,78.5z"/>
			<path class="st0" d="M60.3,77.4c-1.1,0.7,0.3,1.3,0.5,1.3c0.3,0,0.7-0.3,0.7-0.3l1.2,0.3C62.7,78.7,61.4,76.8,60.3,77.4z"/>
			<path class="st0" d="M97.2,66.4h-4c1,0.6,0.2,2.2,0.2,2.2h4.4C99.4,67,97.2,66.4,97.2,66.4z"/>
			<path class="st0" d="M70,66.4c0,0-2.2,0.7-0.5,2.2h4c0,0-1-1.3,0.2-2.2H70z"/>
			<path class="st0" d="M72.4,99.2c-2.7,1.5-2.9,4.2-2.9,4.3c0,0,5.6,0.6,8.4,0.9c-0.9-2.2,1-4.6,1-4.6S74.7,99.9,72.4,99.2z"/>
			<path class="st0" d="M90.4,105.1c0,0.1,0,0.2,0.1,0.2c0.2,0,0.4,0,0.6,0c1.2-0.2,3.8-1.5,6-1.9c0,0-0.3-3.8-5.2-3.8
				c-4,0-4.1,0.4-4.8-1c2-0.1,4.1-0.3,6.3-0.6l0.1-0.8c0,0-2,0.3-4.9,0.5l0-1.5c17.3-1.5,35-16.3,33.6-28.2
				c-2.4-20.5-23.9-13.2-25.3-3.4c1.1,0.6,2,1.3,2.8,2.1c0.2,0.4,0.4,1.1-0.2,1.7c2.1,1,3.2,2.4,3.6,3.2c1,2.5,1.4,5.2,0.9,7.9v0.6
				h-0.1c-1.1,5.4-5.5,10.4-13.5,12.5c5.8-2.5,10-7.8,11.3-12.9c-0.6,0.3-1.2,0.5-1.8,0.5h-1.9c-0.4,2.4-1.4,4.7-3.6,6.6
				c0.9-1.4,1.4-3.9,1.5-6.6H70.5c0.9,4.6,5.3,8.7,9.8,11.1c-6.1-0.5-12.2-4.9-13-11.1h-3.8c-0.7,0-1.3-0.2-1.8-0.5
				c1.5,6.9,11.4,13.6,24.5,13.5c-8.2,3.7-36.4-8.2-25-20.9H44.9c9.5,23,27.9,24,40,24l0,1.5c-3.4,0.1-7.4,0-11.2-0.7l-0.1,0.9
				c0,0,3.4,0.5,8.2,0.6c-2,2.8-1.7,5.3-1.7,6c0,1.3,0.2,5.4,0.2,5.5c0,0.1,1.9-0.1,1.9-0.1s3.5,0.2,2.8-0.1l0.2-4.5
				C86.4,104.4,89.5,104,90.4,105.1L90.4,105.1z M117.2,61.8c2.7,5.2,1.6,14.9-7.7,18c0,0,1.7-0.8,2.2-1.7c0.9-1.5,0.3-2.6-0.4-4.4
				c-0.9-2.2,1.9-3,3-1.3l0.4,0.9c2.7-8.6-8-8.3-8.8-3.4C93.6,64.4,112.4,52.3,117.2,61.8L117.2,61.8z M110,68.7
				c0-0.4,0.3-0.7,0.7-0.7c0.4,0,0.7,0.3,0.7,0.7c0,0.4-0.3,0.7-0.7,0.7C110.3,69.4,110,69.1,110,68.7z M102.1,89.9
				c2.6-1.6,7.3-4.5,10.5-7.8l0.8-0.9l-0.2,1.2c-0.6,3.2-5.2,6.6-12.4,9.1l-0.3-0.7C100.8,90.6,101.4,90.3,102.1,89.9z"/>
			<path class="st0" d="M82.8,122.9c0,0,5.1,0.4,7.7-1.1c2.5-1.5,1.7-1.4,1.7-1.4s0-0.3,0-0.9h-0.6v-8.4l0.2-0.3
				c0.7-0.8,0.6-1.3,0.4-2c0-0.1-0.3-0.5-3.8-1.2l0.1-0.4c-0.2-0.1-0.4-0.1-0.6-0.2c-2.5-1.1-0.7-0.8-0.1-0.9
				c0.6-0.1,0.8-0.6-0.1-0.6c-0.9,0-1.8,0.3-1.8,0.8v3c0,0,3.5,0.2,3.9-0.3c0.4-0.5,3-0.1,1.7,1.1c-0.9,0.3-5,1.3-8.7,0.8
				c-4.5,0.4-7.7-0.6-8.7-0.8c-1.3-1.2,1.3-1.6,1.7-1.1c0.4,0.5,3.9,0.3,3.9,0.3v-3c0-0.5-0.8-0.8-1.8-0.8c-0.9,0-0.7,0.5-0.1,0.6
				c0.6,0.1,2.4-0.1-0.1,0.9c-0.2,0.1-0.4,0.2-0.6,0.2l0.1,0.4c-3.5,0.7-3.7,1.1-3.8,1.2c-0.2,0.7-0.2,1.2,0.4,2l0.2,0.3v8.4h-0.6
				c0,0.5,0,0.9,0,0.9s-0.8-0.1,1.7,1.4C77.7,123.3,82.8,122.9,82.8,122.9z M83.1,114c0,0,0.1,0,0.1,0c0,0,0.1,0,0.1,0
				c0,0.1,0.1,0.2,0.6,0.2l2.7,0.1c0.5,0,0.6,0,0.7-0.2c0,0,0.1,0,0.1,0c0,0,0.1,0,0.1,0.1c-0.1,0.3-0.1,0.9-0.1,1.4
				c0,0.1-0.2,0.1-0.3,0c-0.1-0.5-0.2-0.9-0.8-0.9l-0.4,0c-0.2,0-0.2,0-0.2,0.2l-0.1,3.6c0,0.8,0,0.8,0.4,0.9l0.3,0c0,0,0,0.2,0,0.3
				c-0.5,0-0.8,0-1.2-0.1c-0.3,0-0.7,0-1.2,0c-0.1,0-0.1-0.2,0-0.3l0.3,0c0.3,0,0.4-0.1,0.4-0.9l0.1-3.6c0-0.2,0-0.2-0.2-0.2l-0.5,0
				c-0.5,0-0.7,0.3-0.9,0.9c-0.1,0-0.2,0-0.3-0.1C83,114.8,83,114.3,83.1,114L83.1,114z M79.1,119.4c-0.3,0-0.7,0-1.2-0.1
				c-0.1-0.1,0-0.2,0-0.3l0.3,0c0.3,0,0.4-0.1,0.4-0.8l0.2-3c0-0.7,0-0.8-0.3-0.9l-0.2-0.1c-0.1-0.1,0-0.2,0-0.3
				c0.3,0,0.7,0.1,1,0.1l1.5,0.1c0.5,0,0.9,0,1,0c0,0.1,0,0.7,0,1.3c0,0.1-0.2,0.1-0.3,0c-0.1-0.3-0.1-0.5-0.2-0.7
				c-0.1-0.2-0.3-0.3-0.7-0.3l-0.6,0c-0.2,0-0.2,0-0.3,0.3l-0.1,1.4c0,0.2,0,0.2,0.2,0.3l0.5,0c0.4,0,0.5,0,0.6-0.4l0-0.2
				c0.1-0.1,0.2-0.1,0.3,0c0,0.3-0.1,0.5-0.1,0.9c0,0.3,0,0.6,0,0.9c0,0.1-0.2,0.1-0.3,0l0-0.2c-0.1-0.4-0.1-0.5-0.5-0.5l-0.5,0
				c-0.2,0-0.2,0-0.2,0.2l-0.1,1c0,0.4,0,0.6,0.1,0.8c0.1,0.2,0.2,0.2,0.7,0.3c0.6,0,0.9,0,1.3-0.9c0.1-0.1,0.2,0,0.3,0.1
				c-0.1,0.4-0.3,1.1-0.4,1.3c-0.4,0-1.1-0.1-1.7-0.1L79.1,119.4L79.1,119.4z"/>
			<path class="st0" d="M82.8,110.7C82.8,110.7,83,110.7,82.8,110.7L82.8,110.7z"/>
			<path class="st0" d="M65.9,108.9c-0.2-0.1-0.2-0.1-0.3,0.3l-0.2,1.3c0,0.2,0,0.3,0.3,0.4c0.2,0.1,0.3,0,0.4-0.1
				c0.1-0.1,0.2-0.3,0.3-0.7C66.5,109.5,66.3,109,65.9,108.9L65.9,108.9z"/>
			<path class="st0" d="M50.4,99.8c-0.1-0.1-0.2-0.1-0.3-0.1c0,0-0.1,0.1-0.1,0.3l-0.7,2.2c-0.1,0.3-0.2,0.6-0.1,0.8
				c0,0.2,0.2,0.3,0.3,0.5c0.8,0.6,1.4-0.2,1.7-1C51.5,101.4,51.3,100.4,50.4,99.8L50.4,99.8z"/>
			<path class="st0" d="M36.3,86.3L36.3,86.3C36.3,86.2,36.2,86.2,36.3,86.3z"/>
			<path class="st0" d="M72.2,108.5c0.2-0.8,1.1-1.3,4.7-2c0,0-2.4,0.2-4.2,0c-1.6,0-3.1,0-4.9-0.7c-1.6-0.6-1.2-1.1-4.1-2.3
				c-1.2-0.3-1.8-0.4-3.7-1.7c-1.7-0.8-2.9-1.3-3.5-1.6c-0.8-0.4,0.1-0.5-3-1.9c0,0-4.9-2.8-5.6-4.7c-0.1-0.4-1.8-1.4-0.4-1.7
				c0.6-0.1,0.4,0.3,0.4,0.3c2,3,5.6,4.6,5.6,4.6v-5.3c0.2-1.8-0.3-2.1-1.8-2.1c-5.2-0.7-12.9-3.5-17.1-9c0.3,3.6,0.7,2,1.5,3
				c0.5,1,0.5,1.6,0.5,1.6s0.3,0.7,2.4,1.1c0.6,0.6,0.3,0.8,0.8,1.2c0.7,0.5,2.4,0.8,3.2,1.2c1,0.5,1,1.2,1.1,1.4
				c-0.1-0.2-3-0.7-4-1.2c-0.5-0.2-1.4-1.2-2-1.4c-1.3-0.5-1.7-0.7-1.8-0.8c0.4,1.6,0.9,3.4,2.1,4.5c1.4,1.3,2.6,1.1,3.2,2
				c1.3,1.7,4.2,3.8,4.2,3.8s0.1-3.2,0.1-3.3c-1-1.5-0.6-3.4,2.1-3c1.7,0.3,3.7-0.3,3.7,0.2c-0.1,0.9-4.2,0.5-4.5,0.6
				c-1.8-0.2-0.4,2.4-0.4,2.4s0.1,8.3,0,8.2c-1,2.4,0.1,2.1,0.8,3.5c0.4,0.7,1.2,1.6,6.5,4.8c0.7,0.5,1.6,1.6,2.4,2
				c0.6,0.3,1.8,0.8,3.5,1.6c1.8,1.3,2.5,1.4,3.7,1.7c2.9,1.2,2.5,1.7,4.1,2.3c1.8,0.7,3.5,0.8,5.1,0.8v-6.9
				C71.9,110.2,72,109.3,72.2,108.5L72.2,108.5z M50.5,104.2c-0.4,0-0.8-0.2-1.3-0.5c-0.2-0.2-0.5-0.4-0.6-0.5
				c-0.2-0.2-0.5-0.3-0.8-0.5c0-0.1,0-0.2,0.1-0.2l0.2,0.1c0.2,0.1,0.3,0.1,0.5-0.5l0.7-2.2c0.2-0.6,0.2-0.7,0-0.9l-0.1-0.1
				c0-0.1,0-0.2,0.1-0.2c0.4,0.2,0.8,0.5,1.3,0.8c0.4,0.3,0.8,0.6,1,1c0.5,0.7,0.6,1.7,0.4,2.4C51.7,103.8,51.2,104.3,50.5,104.2z
				 M52.8,106.6c-0.2-0.2-0.5-0.4-0.7-0.6c-0.2-0.2-0.5-0.3-0.7-0.5c0-0.1,0-0.2,0.1-0.2l0.1,0.1c0.2,0.1,0.3,0.1,0.5-0.5l1-2.3
				c0.3-0.6,0.2-0.6,0-0.8l-0.1-0.1c0-0.1,0-0.2,0.1-0.2c0.2,0.2,0.5,0.4,0.7,0.5c0.2,0.2,0.5,0.3,0.7,0.5c0,0.1,0,0.2-0.1,0.2
				l-0.1-0.1c-0.2-0.1-0.3-0.1-0.5,0.5l-1,2.3c-0.3,0.6-0.2,0.7-0.1,0.9l0.1,0.1C53,106.5,52.9,106.6,52.8,106.6z M56.8,105.2
				c-0.1,0.1-0.2,0-0.2-0.1c0-0.4,0-1-0.3-1.2c-0.3-0.2-0.6,0-0.7,0.3c-0.1,0.3,0,0.7,0.2,1l0.2,0.4c0.2,0.4,0.5,1,0.2,1.7
				c-0.3,0.8-1,1-1.7,0.5c-0.4-0.3-0.7-0.6-0.7-0.8c0-0.2,0.1-0.7,0.2-1.2c0.1-0.1,0.2,0,0.2,0.1c-0.1,0.5,0,1.3,0.5,1.6
				c0.4,0.2,0.6,0,0.8-0.3c0.2-0.5-0.1-1.1-0.3-1.5c-0.3-0.5-0.5-1.1-0.3-1.7c0.3-0.7,0.9-0.9,1.5-0.5c0.2,0.1,0.3,0.3,0.5,0.5
				c0.1,0.1,0.1,0.1,0.1,0.2C57.1,104.4,57,104.8,56.8,105.2L56.8,105.2z M58.7,109.9c0.6,0.3,1-0.1,1.3-0.5c0.1,0,0.2,0.1,0.2,0.1
				c-0.2,0.5-0.4,0.8-0.5,1c-0.3,0-0.7-0.1-1.1-0.3c-0.5-0.3-0.9-0.7-1.2-1.2c-0.2-0.6-0.4-1.3-0.1-2.1c0.2-0.8,0.7-1.2,1.1-1.4
				c0.5-0.2,1-0.1,1.5,0.2c0.5,0.3,0.8,0.6,0.9,0.7c0,0.1-0.2,0.6-0.2,1c0,0.1-0.2,0-0.2-0.1c0-0.7-0.2-1.2-0.6-1.4
				c-0.5-0.3-1.3,0-1.7,1.3C57.7,108.6,58.1,109.6,58.7,109.9z M63.8,108.8c0,0.1-0.2,0-0.2-0.1c0-0.3,0-0.5-0.1-0.6
				c-0.1-0.2-0.2-0.3-0.4-0.4l-0.4-0.2c-0.2-0.1-0.2-0.1-0.2,0.2l-0.3,1.2c0,0.2,0,0.2,0.1,0.3l0.3,0.2c0.3,0.1,0.3,0.1,0.4-0.2
				l0.1-0.2c0,0,0.2,0,0.2,0.1c-0.1,0.2-0.1,0.5-0.2,0.7c-0.1,0.3-0.1,0.5-0.1,0.7c0,0.1-0.2,0-0.2-0.1l0-0.2c0-0.3,0-0.4-0.3-0.5
				l-0.3-0.2c-0.1-0.1-0.1-0.1-0.2,0.1l-0.2,0.8c-0.1,0.3-0.1,0.5-0.1,0.7c0,0.2,0.1,0.3,0.5,0.4c0.4,0.2,0.6,0.3,1-0.4
				c0.1-0.1,0.2,0,0.2,0.1c-0.1,0.3-0.3,0.9-0.4,1c-0.3-0.1-0.7-0.4-1.1-0.5l-0.6-0.3c-0.2-0.1-0.5-0.2-0.9-0.4c0-0.1,0-0.2,0.1-0.2
				l0.2,0.1c0.2,0.1,0.3,0,0.4-0.6l0.6-2.5c0.1-0.6,0.1-0.7-0.1-0.8l-0.1-0.1c0-0.1,0-0.2,0.1-0.2c0.2,0.1,0.5,0.2,0.7,0.3l1,0.5
				c0.3,0.1,0.6,0.3,0.7,0.3C63.9,107.8,63.8,108.3,63.8,108.8L63.8,108.8z M67.2,113.8c-0.1,0-0.2,0-0.4-0.1
				c-0.5-0.2-0.7-0.5-0.8-1.1c-0.1-0.4-0.2-0.8-0.2-1.2c0-0.2-0.1-0.3-0.2-0.3c-0.2-0.1-0.2-0.1-0.2,0.1l-0.1,0.9
				c-0.1,0.6-0.1,0.7,0.1,0.8l0.1,0.1c0,0,0,0.2,0,0.2c-0.3-0.1-0.5-0.2-0.7-0.3c-0.2-0.1-0.5-0.2-0.7-0.2c0-0.1,0-0.2,0-0.2l0.1,0
				c0.2,0,0.3,0,0.4-0.7l0.4-2.4c0.1-0.7,0.1-0.8-0.1-0.9l-0.1-0.1c0-0.1,0-0.2,0-0.2c0.4,0.1,0.8,0.2,1.2,0.4
				c0.4,0.2,0.8,0.4,0.9,0.6c0.2,0.3,0.3,0.7,0.3,1.2c-0.1,0.6-0.4,0.8-0.7,0.8c-0.1,0-0.1,0.1,0,0.1c0.2,1,0.3,1.6,0.5,2
				c0.1,0.2,0.2,0.3,0.3,0.3C67.3,113.7,67.3,113.8,67.2,113.8L67.2,113.8z M70.6,111.2c0,0.1-0.1,0-0.2,0c0-0.3-0.1-0.5-0.1-0.6
				c-0.1-0.2-0.2-0.3-0.5-0.4l-0.4-0.1c-0.2,0-0.2,0-0.2,0.2l-0.1,1.2c0,0.2,0,0.2,0.1,0.2l0.3,0.1c0.3,0.1,0.3,0,0.4-0.3l0-0.2
				c0,0,0.2,0,0.2,0.1c0,0.2-0.1,0.5-0.1,0.7c0,0.3,0,0.5-0.1,0.7c0,0.1-0.2,0-0.2,0l0-0.2c0-0.3-0.1-0.4-0.3-0.5l-0.3-0.1
				c-0.1,0-0.1,0-0.2,0.2l-0.1,0.8c0,0.3,0,0.6,0,0.7c0.1,0.1,0.1,0.2,0.5,0.3c0.4,0.1,0.6,0.2,0.9-0.6c0-0.1,0.2,0,0.2,0.1
				c-0.1,0.4-0.2,0.9-0.3,1.1c-0.3-0.1-0.7-0.2-1.1-0.4l-0.6-0.2c-0.2-0.1-0.5-0.1-0.9-0.2c0-0.1,0-0.2,0-0.2l0.2,0
				c0.2,0,0.3,0,0.3-0.7l0.3-2.6c0.1-0.6,0-0.7-0.2-0.8l-0.1-0.1c0-0.1,0-0.2,0-0.2c0.2,0.1,0.5,0.2,0.7,0.2l1,0.3
				c0.3,0.1,0.6,0.2,0.6,0.2C70.7,110.3,70.7,110.8,70.6,111.2L70.6,111.2z"/>
			<path class="st0" d="M111,102.8c-0.2,0.2-0.2,0.2-0.1,0.5l0.5,1.1c0.1,0.2,0.1,0.2,0.4,0c0.2-0.1,0.3-0.3,0.3-0.4
				c0-0.2,0.1-0.4-0.1-0.7C111.8,102.7,111.4,102.5,111,102.8L111,102.8z"/>
			<path class="st0" d="M129.3,86.2L129.3,86.2C129.4,86.2,129.3,86.2,129.3,86.2z"/>
			<path class="st0" d="M122.5,88.3c0.8-0.4,2.6-0.7,3.2-1.2c0.5-0.4,0.1-0.6,0.8-1.2c2.1-0.4,2.4-1.1,2.4-1.1s0-0.6,0.5-1.6
				c0.8-1.1,1.2,0.6,1.5-3c-4.2,5.5-11.9,8.3-17.1,9c-1.5,0-2,0.3-1.8,2.1v5.3c0,0,3.5-1.6,5.6-4.6c0,0-0.3-0.4,0.4-0.3
				c1.5,0.3-0.2,1.3-0.4,1.7c-0.6,1.9-5.6,4.7-5.6,4.7c-3.1,1.4-2.2,1.5-3,1.9c-0.6,0.3-1.8,0.8-3.5,1.6c-1.8,1.3-2.5,1.4-3.7,1.7
				c-2.9,1.2-2.5,1.7-4.1,2.3c-1.8,0.7-3.4,0.7-4.9,0.7c-1.8,0.2-4.2,0-4.2,0c3.5,0.7,4.4,1.2,4.7,2c0.2,0.8,0.4,1.8-0.6,3v6.9
				c1.6,0,3.3-0.1,5.1-0.8c1.6-0.6,1.2-1.1,4.1-2.3c1.2-0.3,1.8-0.4,3.7-1.7c1.7-0.8,2.9-1.3,3.5-1.6c0.8-0.4,1.7-1.6,2.4-2
				c5.3-3.2,6.1-4.1,6.5-4.8c0.7-1.3,1.8-1.1,0.8-3.5c-0.1,0.1,0-8.2,0-8.2s1.4-2.6-0.4-2.4c-0.3-0.1-4.4,0.4-4.5-0.6
				c-0.1-0.5,2,0,3.7-0.2c2.8-0.4,3.1,1.5,2.1,3c-0.1,0.1,0.1,3.3,0.1,3.3s2.9-2.1,4.2-3.8c0.7-0.9,1.9-0.7,3.2-2
				c1.2-1.1,1.7-3,2.1-4.5c-0.1,0.1-0.6,0.3-1.8,0.8c-0.7,0.3-1.5,1.2-2,1.4c-1,0.5-3.9,0.9-4,1.2C121.5,89.5,121.5,88.8,122.5,88.3
				L122.5,88.3z M98.8,108.7l-0.2,0.1c-0.2,0.1-0.2,0.2-0.3,0.3c-0.1,0.3-0.2,0.7-0.3,1.2l-0.2,1.2c-0.2,0.9-0.2,1.4-0.3,1.8
				c0,0-0.1,0.1-0.2,0.1c-0.1,0-0.1,0-0.2,0c-0.1-0.1-0.3-0.4-0.4-0.6l-1.6-2.3c-0.4-0.5-0.4-0.6-0.6-0.5l-0.3,0
				c-0.1-0.1-0.1-0.2,0-0.2c0.3-0.1,0.6-0.2,0.9-0.3c0.3-0.1,0.6-0.2,1-0.3c0.1,0,0.1,0.1,0.1,0.2l-0.2,0.1
				c-0.1,0.1-0.1,0.1-0.1,0.2c0,0.1,0.2,0.3,0.4,0.6l0.9,1.3c0.1,0.2,0.2,0.3,0.3,0.4c0-0.1,0.1-0.3,0.1-0.5l0.1-0.7
				c0.1-0.5,0.2-1.3,0.2-1.5c0-0.1,0-0.2,0-0.3c0,0,0-0.1-0.2-0.1l-0.2,0c-0.1,0-0.1-0.2,0-0.2c0.3-0.1,0.5-0.1,0.8-0.2
				c0.2-0.1,0.4-0.1,0.6-0.2C98.8,108.5,98.8,108.6,98.8,108.7L98.8,108.7z M102,111.8c-0.3,0.1-0.6,0.2-0.9,0.3
				c-0.3,0.1-0.6,0.2-0.9,0.4c-0.1,0-0.1-0.2-0.1-0.2l0.2-0.1c0.3-0.2,0.3-0.2,0.1-0.8l-0.6-2.3c-0.2-0.6-0.2-0.6-0.5-0.6l-0.2,0
				c-0.1,0-0.1-0.2-0.1-0.2c0.3-0.1,0.7-0.2,1-0.3c0.3-0.1,0.6-0.2,0.9-0.4c0.1,0,0.1,0.2,0.1,0.2l-0.2,0.1
				c-0.3,0.2-0.3,0.2-0.2,0.8l0.6,2.3c0.1,0.6,0.2,0.6,0.5,0.6l0.2,0C102,111.6,102,111.7,102,111.8L102,111.8z M105.6,105.9
				c-0.2,0.1-0.2,0.2-0.3,0.4c-0.1,0.3-0.1,0.7-0.2,1.3l-0.1,1.2c-0.1,0.9-0.1,1.4-0.2,1.8c0,0.1-0.1,0.1-0.2,0.1
				c-0.1,0-0.1,0-0.2,0c-0.1-0.1-0.3-0.4-0.4-0.6l-1.7-2.1c-0.4-0.5-0.4-0.5-0.7-0.5l-0.3,0c-0.1,0-0.1-0.2,0-0.2
				c0.3-0.1,0.5-0.2,0.8-0.3c0.3-0.1,0.5-0.2,0.9-0.4c0.1,0,0.1,0.1,0.1,0.2L103,107c-0.1,0.1-0.1,0.1-0.1,0.2c0,0,0.2,0.3,0.4,0.6
				l0.9,1.1c0.1,0.2,0.2,0.3,0.3,0.4c0-0.1,0-0.3,0.1-0.5l0.1-0.7c0-0.5,0.1-1.3,0.1-1.5c0-0.1,0-0.2,0-0.3c0,0,0-0.1-0.2,0l-0.2,0
				c-0.1,0-0.1-0.2,0-0.2c0.3-0.1,0.5-0.2,0.7-0.3c0.2-0.1,0.4-0.2,0.6-0.3c0.1,0,0.1,0.2,0.1,0.2L105.6,105.9L105.6,105.9z
				 M110.2,107.8c-0.3,0.2-0.8,0.4-1.3,0.7l-0.7,0.4c-0.3,0.1-0.5,0.3-1,0.5c-0.1,0-0.1-0.1-0.1-0.2l0.2-0.2
				c0.2-0.2,0.3-0.2,0.1-0.8l-0.8-2.2c-0.2-0.5-0.2-0.6-0.5-0.5l-0.2,0c-0.1,0-0.1-0.2-0.1-0.2c0.3-0.1,0.6-0.3,0.8-0.4l1.2-0.7
				c0.4-0.2,0.7-0.4,0.8-0.4c0,0.1,0.2,0.5,0.4,0.9c0,0.1-0.1,0.2-0.2,0.1c-0.1-0.2-0.3-0.3-0.4-0.4c-0.1-0.1-0.3,0-0.6,0.1
				l-0.5,0.3c-0.2,0.1-0.2,0.1-0.1,0.3l0.4,1c0.1,0.2,0.1,0.2,0.2,0.1l0.4-0.2c0.3-0.2,0.3-0.2,0.3-0.6l0-0.2c0-0.1,0.2-0.1,0.2-0.1
				c0.1,0.2,0.1,0.4,0.2,0.6c0.1,0.2,0.2,0.4,0.2,0.6c0,0.1-0.1,0.2-0.2,0.1l-0.1-0.1c-0.2-0.3-0.2-0.3-0.5-0.1l-0.4,0.2
				c-0.2,0.1-0.2,0.1-0.1,0.3l0.2,0.7c0.1,0.3,0.2,0.4,0.3,0.5c0.1,0.1,0.2,0,0.6-0.2c0.5-0.3,0.7-0.4,0.8-1.2
				c0-0.1,0.2-0.1,0.2-0.1C110.2,107.1,110.2,107.6,110.2,107.8L110.2,107.8z M114.3,105.1c-0.5,0.3-0.9,0.4-1.3,0.1
				c-0.3-0.2-0.5-0.4-0.8-0.6c-0.1-0.1-0.2-0.1-0.4,0c-0.2,0.1-0.2,0.1-0.1,0.3l0.3,0.7c0.2,0.5,0.3,0.5,0.5,0.4l0.2-0.1
				c0,0,0.1,0.1,0.1,0.2c-0.3,0.2-0.5,0.3-0.8,0.5c-0.3,0.2-0.5,0.4-0.8,0.6c-0.1,0-0.1-0.1-0.1-0.2l0.1-0.1c0.2-0.2,0.2-0.3,0-0.8
				l-0.9-2c-0.3-0.6-0.3-0.6-0.5-0.5l-0.2,0.1c-0.1,0-0.1-0.1-0.1-0.2c0.4-0.3,0.8-0.6,1.3-1c0.5-0.3,0.9-0.5,1.2-0.5
				c0.4,0,0.7,0.2,0.9,0.5c0.2,0.5,0,0.9-0.2,1.2c0,0.1,0,0.1,0,0.1c0.7,0.5,1.1,0.8,1.4,0.8c0.2,0,0.3,0,0.4-0.1
				c0.1,0,0.1,0.1,0.1,0.1C114.6,104.9,114.4,105,114.3,105.1z M116.6,103.1l-0.6,0.6c-0.2,0.2-0.5,0.4-0.8,0.8
				c-0.1,0-0.1-0.1-0.1-0.2l0.2-0.2c0.2-0.2,0.2-0.3-0.1-0.7l-1.2-1.9c-0.3-0.5-0.3-0.5-0.6-0.3l-0.1,0.1c-0.1,0-0.1-0.1-0.1-0.2
				c0.2-0.2,0.5-0.4,0.7-0.6l1.1-1c0.3-0.3,0.6-0.6,0.7-0.6c0.1,0.1,0.3,0.4,0.6,0.8c0,0.1-0.1,0.2-0.2,0.2
				c-0.2-0.1-0.3-0.2-0.4-0.2c-0.2,0-0.3,0.1-0.6,0.3l-0.4,0.4c-0.2,0.2-0.2,0.2,0,0.4l0.6,0.9c0.1,0.1,0.1,0.1,0.2,0l0.3-0.3
				c0.3-0.2,0.3-0.3,0.2-0.6l-0.1-0.2c0-0.1,0.1-0.2,0.2-0.2c0.1,0.2,0.2,0.4,0.3,0.6c0.1,0.2,0.2,0.4,0.4,0.5
				c0,0.1-0.1,0.2-0.2,0.2l-0.1-0.1c-0.2-0.2-0.3-0.2-0.5,0.1l-0.3,0.3c-0.1,0.1-0.1,0.1,0,0.3l0.4,0.6c0.1,0.2,0.3,0.4,0.4,0.4
				c0.1,0,0.2,0,0.6-0.3c0.4-0.4,0.6-0.6,0.5-1.4c0-0.1,0.1-0.2,0.2-0.1c0.1,0.3,0.3,0.8,0.3,1C117.4,102.3,117,102.7,116.6,103.1z"
				/>
			<path class="st0" d="M80.4,55.2c0.5,0,0.8-0.4,0.8-0.9c0-0.7-0.5-1.2-1.1-1.5c-0.4,0.2-0.6,0.7-0.6,1.3
				C79.5,54.7,79.8,55.2,80.4,55.2z"/>
			<path class="st0" d="M80.7,52.1c0.3-0.2,0.6-0.7,0.6-1.3c0-0.5-0.3-1-0.8-1c-0.5,0-0.8,0.5-0.8,0.9
				C79.6,51.4,80.3,51.8,80.7,52.1z"/>
			<path class="st0" d="M92.5,59.1c-0.3-0.2-2.6-0.2-4.6-0.2V61c0,0,0.2,0.1,0.4,0.1c0,0,0-0.1,0-0.1c0-0.3,0.2-0.5,2-0.9
				c0.8-0.2,1.7-0.4,2.6-0.5c0.5-0.1,1-0.2,1.4-0.3C93.5,59.4,92.8,59.3,92.5,59.1L92.5,59.1z"/>
			<path class="st0" d="M71.2,57.7c-0.2,0.3-0.5,0.6-0.4,0.8c0.1,0.2,0.4,0.4,0.8,0.5c-0.3-0.2-0.3-0.4-0.4-0.5
				c0-0.4,0.5-0.7,0.6-0.8l0.1,0c0.1,0,6-1.1,11.5-0.7c5.4-0.3,9.5,0.3,11.5,0.7l0.1,0c0.2,0.1,0.6,0.4,0.6,0.8
				c0,0.1-0.1,0.3-0.4,0.5c0.4-0.1,0.7-0.3,0.8-0.5c0.1-0.2-0.1-0.6-0.4-0.8c-0.2-0.1-0.3-0.2-0.4-0.3c-0.1-0.3,0-0.5,0.1-0.8
				c0.1-0.3,0.2-0.7,0.1-1.1l0,0c-0.1-0.3-0.1-1.4,0-5.9v0c-0.3-0.1-0.8-0.4-2-0.8c-3.3-1.2-9.9-0.8-10-0.8c-0.1,0-6.8-0.3-10,0.8
				c-1.2,0.4-1.8,0.7-2,0.8l0,0c0.1,4.5,0,5.6,0,5.9l0,0c-0.1,0.5,0,0.8,0.1,1.1c0.1,0.3,0.2,0.5,0.1,0.8
				C71.6,57.5,71.4,57.6,71.2,57.7L71.2,57.7z M90.1,56c0.5-0.2,1-0.4,1.4-0.7c0.5-0.4,1.4-1.3,1.4-3.2c0-0.7-0.2-1.6-0.9-1.6
				c-0.4,0-0.8,0.4-0.8,1.1c0,0.7,0.4,1.4,0.9,1.4c0.1,0,0.2,0,0.3,0c0.1,0,0.1,0.1,0.1,0.2c-0.2,0.2-0.6,0.3-0.9,0.3
				c-0.8,0-1.4-0.6-1.4-1.5c0-1.1,0.9-1.9,1.9-1.9c1.3,0,1.9,0.9,1.9,2.2c0,1-0.4,2-1.5,3c-0.6,0.6-1.5,0.9-2.4,1.1
				C90.1,56.2,90,56.1,90.1,56L90.1,56z M84.6,49.4c0.2,0,0.4,0,1,0h1.6c0.5,0,1.1,0,1.3,0c0.1,0,0.1,0.1,0.1,0.1
				c-0.2,0.4-0.5,0.8-1,1.7l-2.4,4.2c0,0-0.1,0-0.1,0c-0.1,0-0.2-0.1-0.3-0.2l2.5-4.5c0.1-0.2,0.2-0.4,0.2-0.5
				c0-0.1-0.1-0.1-0.3-0.1h-1.8c-0.6,0-0.8,0.1-0.9,0.5c-0.1,0.1-0.2,0-0.3-0.1C84.4,50.2,84.5,49.8,84.6,49.4L84.6,49.4z M78.7,51
				c0-1,0.8-1.6,1.8-1.6c0.9,0,1.6,0.5,1.6,1.5c0,0.7-0.7,1.2-1.1,1.4c0.6,0.4,1.1,0.9,1.1,1.8c0,0.9-0.8,1.5-1.8,1.5
				c-0.9,0-1.7-0.5-1.7-1.4c0-0.7,0.5-1.3,1.1-1.6C79.2,52.2,78.7,51.7,78.7,51L78.7,51z M73,55.9l0.2,0c0.7-0.1,0.7-0.2,0.7-0.8
				v-3.7c0-0.6,0-0.7-0.7-0.8l-0.2,0c-0.1,0-0.1-0.3,0-0.3c0.3,0,0.8,0,1.4,0c0.6,0,1.1,0,1.4,0c0.1,0,0.1,0.2,0,0.3l-0.2,0
				c-0.6,0.1-0.7,0.2-0.7,0.8v3.7c0,0.6,0,0.7,0.7,0.8l0.3,0c0.1,0,0.1,0.3,0,0.3c-0.4,0-1,0-1.5,0c-0.7,0-1.1,0-1.5,0
				C73,56.2,73,56,73,55.9L73,55.9z"/>
			<path class="st0" d="M74.5,59.1c-0.3,0.2-1,0.3-1.7,0.2c0.5,0.1,1,0.2,1.4,0.3c0.9,0.1,1.7,0.3,2.6,0.5c0.9,0.2,1.3,0.4,1.6,0.5
				c0.2-0.2,0.5-0.3,0.7-0.4l0-1.2C77.1,58.9,74.8,58.9,74.5,59.1L74.5,59.1z"/>
			<path class="st0" d="M70.8,49.8c0,2,0.1,5,0,5.5l0,0c-0.2,0.6,0,1.2,0.2,1.5c0,0.1,0.1,0.3,0.1,0.3c0,0,0,0-0.1,0l-0.1,0
				l-0.1,0.1c-0.5,0.6-0.7,1.1-0.6,1.5c0.3,0.9,1.9,1.2,3.9,1.5c0.8,0.1,1.7,0.3,2.5,0.5c0.1,0,0.3,0.1,0.4,0.1c-0.1,0-0.1,0-0.2,0
				c-0.6,0.1-0.9,0.3-0.9,0.7c0,0.4,0.7,0.5,1,0.5c0.4-0.5,0.9-1,1.4-1.4c-0.3-0.1-0.8-0.3-1.6-0.5c-0.8-0.2-1.7-0.4-2.6-0.5
				c-0.5-0.1-1-0.2-1.4-0.3c0.7,0.1,1.4,0,1.7-0.2c0.3-0.2,2.6-0.2,4.6-0.2l0,1.2c0.2-0.1,0.4-0.2,0.6-0.3v-1.6l-0.3,0
				c-1.8-0.1-4.9-0.1-5.3,0.3c-0.3,0.2-1.8,0.1-2.1-0.1c0,0,0.1-0.1,0.2-0.2c0.6-0.1,6.1-1.1,11.2-0.7l0,0l0.1,0
				c5.3-0.3,9.3,0.3,11.3,0.7c0.1,0.1,0.2,0.1,0.2,0.2c-0.3,0.2-1.9,0.3-2.1,0.1c-0.5-0.4-3.6-0.4-5.3-0.3l-0.3,0v2.3
				c0.5,0.4,1,0.8,1.3,1.3c0.5,0.1,1,0.1,1.3,0.1c0.3,0,1.1,0,1.1-0.5c0-0.3-0.3-0.6-0.9-0.7c-0.1,0-0.1,0-0.2,0
				c0.1,0,0.2-0.1,0.4-0.1c0.8-0.2,1.7-0.4,2.5-0.5c2-0.3,3.6-0.6,3.9-1.5c0.2-0.4,0-0.9-0.6-1.5l-0.1-0.1l-0.1,0
				c-0.1,0-0.1,0-0.1,0c0-0.1,0.1-0.2,0.1-0.3c0.1-0.3,0.3-0.9,0.1-1.5l0,0c0-0.4,0-3.4,0-5.5c0.1-0.1,0.2-0.2,0.2-0.2
				c0.1-0.3,0-0.5-2.6-1.5c-3.4-1.2-10-0.9-10.2-0.9c-0.3,0-6.9-0.3-10.2,0.9c-2.6,0.9-2.7,1.1-2.6,1.5
				C70.7,49.6,70.7,49.7,70.8,49.8L70.8,49.8z M92.8,59.6c-0.9,0.1-1.7,0.3-2.6,0.5c-1.8,0.5-2,0.6-2,0.9c0,0.1,0,0.1,0,0.1
				c-0.2-0.1-0.4-0.1-0.4-0.1v-2.1c2-0.1,4.3,0,4.6,0.2c0.3,0.2,1,0.3,1.7,0.2C93.7,59.4,93.2,59.5,92.8,59.6L92.8,59.6z M71.6,56.5
				c-0.1-0.3-0.2-0.7-0.1-1.1l0,0c0.1-0.3,0.1-1.4,0-5.9l0,0c0.3-0.1,0.8-0.4,2-0.8c3.3-1.2,9.9-0.8,10-0.8c0.1,0,6.7-0.3,10,0.8
				c1.2,0.4,1.8,0.7,2,0.8v0c-0.1,4.5,0,5.6,0,5.9l0,0c0.1,0.5,0,0.8-0.1,1.1c-0.1,0.3-0.2,0.5-0.1,0.8c0.1,0.1,0.2,0.3,0.4,0.3
				c0.2,0.3,0.5,0.6,0.4,0.8c-0.1,0.2-0.4,0.4-0.8,0.5c0.3-0.2,0.3-0.4,0.4-0.5c0-0.4-0.5-0.7-0.6-0.8l-0.1,0
				c-2-0.4-6.1-0.9-11.5-0.7C78,56.6,72.1,57.7,72,57.7l-0.1,0c-0.2,0.1-0.6,0.4-0.6,0.8c0,0.1,0.1,0.3,0.4,0.5
				c-0.4-0.1-0.7-0.3-0.8-0.5c-0.1-0.2,0.1-0.6,0.4-0.8c0.2-0.1,0.3-0.2,0.4-0.3C71.8,57.1,71.7,56.8,71.6,56.5L71.6,56.5z"/>
			<path class="st1" d="M73.1,56.2c0.3,0,0.7,0,1.5,0c0.4,0,1.1,0,1.5,0c0.1,0,0.1-0.2,0-0.3l-0.3,0c-0.6-0.1-0.7-0.2-0.7-0.8v-3.7
				c0-0.6,0-0.7,0.7-0.8l0.2,0c0.1,0,0.1-0.3,0-0.3c-0.2,0-0.8,0-1.4,0c-0.5,0-1,0-1.4,0c-0.1,0-0.1,0.2,0,0.3l0.2,0
				c0.7,0.1,0.7,0.2,0.7,0.8v3.7c0,0.6,0,0.7-0.7,0.8l-0.2,0C73,56,73,56.2,73.1,56.2L73.1,56.2z"/>
			<path class="st1" d="M78.6,54.2c0,0.9,0.7,1.4,1.7,1.4c1,0,1.8-0.6,1.8-1.5c0-0.9-0.5-1.4-1.1-1.8c0.5-0.2,1.1-0.7,1.1-1.4
				c0-0.9-0.7-1.5-1.6-1.5c-1,0-1.8,0.6-1.8,1.6c0,0.7,0.5,1.3,1.1,1.6C79.2,52.9,78.6,53.5,78.6,54.2L78.6,54.2z M79.6,50.7
				c0-0.5,0.3-0.9,0.8-0.9c0.6,0,0.8,0.5,0.8,1c0,0.6-0.3,1-0.6,1.3C80.3,51.8,79.6,51.4,79.6,50.7z M80.1,52.8
				c0.6,0.3,1.1,0.9,1.1,1.5c0,0.5-0.3,0.9-0.8,0.9c-0.6,0-0.9-0.5-0.9-1C79.5,53.5,79.7,53.1,80.1,52.8z"/>
			<path class="st1" d="M84.4,50.8c0.2-0.4,0.3-0.5,0.9-0.5h1.8c0.2,0,0.3,0,0.3,0.1c0,0.1,0,0.2-0.2,0.5l-2.5,4.5
				c0,0.1,0.2,0.2,0.3,0.2c0.1,0,0.1,0,0.1,0l2.4-4.2c0.5-1,0.8-1.4,1-1.7c0-0.1,0-0.1-0.1-0.1c-0.2,0-0.8,0-1.3,0h-1.6
				c-0.5,0-0.8,0-1,0c-0.1,0.4-0.2,0.8-0.4,1.3C84.2,50.8,84.3,50.9,84.4,50.8L84.4,50.8z"/>
			<path class="st1" d="M92.6,55.2c1.1-0.9,1.5-2,1.5-3c0-1.2-0.6-2.2-1.9-2.2c-1,0-1.9,0.8-1.9,1.9c0,0.9,0.6,1.5,1.4,1.5
				c0.3,0,0.7-0.1,0.9-0.3c0-0.1,0-0.2-0.1-0.2c-0.1,0-0.1,0-0.3,0c-0.5,0-0.9-0.6-0.9-1.4c0-0.7,0.4-1.1,0.8-1.1
				c0.7,0,0.9,0.9,0.9,1.6c-0.1,1.9-0.9,2.8-1.4,3.2c-0.4,0.3-0.8,0.5-1.4,0.7c-0.1,0.1,0,0.2,0,0.3C91,56.1,91.9,55.7,92.6,55.2
				L92.6,55.2z"/>
			<path class="st1" d="M98.1,108.6c-0.2,0.1-0.5,0.1-0.8,0.2c-0.1,0.1,0,0.2,0,0.2l0.2,0c0.2,0,0.2,0,0.2,0.1c0,0,0,0.1,0,0.3
				c0,0.2-0.1,1.1-0.2,1.5l-0.1,0.7c0,0.2-0.1,0.4-0.1,0.5c-0.1-0.1-0.2-0.2-0.3-0.4l-0.9-1.3c-0.2-0.3-0.4-0.6-0.4-0.6
				c0-0.1,0-0.1,0.1-0.2l0.2-0.1c0-0.1,0-0.2-0.1-0.2c-0.4,0.1-0.7,0.2-1,0.3c-0.3,0.1-0.6,0.2-0.9,0.3c0,0,0,0.2,0,0.2l0.3,0
				c0.2,0,0.3,0,0.6,0.5l1.6,2.3c0.1,0.2,0.3,0.5,0.4,0.6c0,0,0.1,0,0.2,0c0.1,0,0.2-0.1,0.2-0.1c0.1-0.4,0.1-0.9,0.3-1.8l0.2-1.2
				c0.1-0.6,0.2-1,0.3-1.2c0.1-0.2,0.1-0.2,0.3-0.3l0.2-0.1c0-0.1,0-0.2-0.1-0.2C98.5,108.5,98.3,108.6,98.1,108.6L98.1,108.6z"/>
			<path class="st1" d="M101.7,111.6c-0.3,0.1-0.3,0-0.5-0.6l-0.6-2.3c-0.1-0.6-0.1-0.7,0.2-0.8l0.2-0.1c0-0.1,0-0.2-0.1-0.2
				c-0.3,0.1-0.6,0.3-0.9,0.4c-0.3,0.1-0.6,0.2-1,0.3c0,0.1,0,0.2,0.1,0.2l0.2,0c0.3-0.1,0.3,0,0.5,0.6l0.6,2.3
				c0.1,0.6,0.1,0.6-0.1,0.8l-0.2,0.1c0,0.1,0,0.2,0.1,0.2c0.3-0.1,0.6-0.3,0.9-0.4c0.3-0.1,0.6-0.2,0.9-0.3c0-0.1,0-0.2,0-0.2
				L101.7,111.6L101.7,111.6z"/>
			<path class="st1" d="M105.1,105.8c-0.2,0.1-0.5,0.2-0.7,0.3c-0.1,0.1,0,0.2,0,0.2l0.2,0c0.2,0,0.2,0,0.2,0c0,0,0,0.1,0,0.3
				c0,0.2-0.1,1-0.1,1.5l-0.1,0.7c0,0.2,0,0.4-0.1,0.5c-0.1-0.1-0.2-0.2-0.3-0.4l-0.9-1.1c-0.3-0.3-0.4-0.5-0.4-0.6
				c0-0.1,0-0.1,0.1-0.2l0.2-0.1c0-0.1,0-0.2-0.1-0.2c-0.4,0.2-0.6,0.3-0.9,0.4c-0.3,0.1-0.5,0.2-0.8,0.3c0,0.1,0,0.2,0,0.2l0.3,0
				c0.2,0,0.2,0,0.7,0.5l1.7,2.1c0.1,0.2,0.3,0.4,0.4,0.6c0,0,0.1,0,0.2,0c0.1,0,0.2-0.1,0.2-0.1c0-0.4,0.1-0.9,0.2-1.8l0.1-1.2
				c0.1-0.6,0.1-1,0.2-1.3c0-0.2,0.1-0.3,0.3-0.4l0.1-0.1c0-0.1,0-0.2-0.1-0.2C105.5,105.7,105.3,105.8,105.1,105.8L105.1,105.8z"/>
			<path class="st1" d="M109.9,106.8c-0.1,0.8-0.3,0.9-0.8,1.2c-0.4,0.2-0.5,0.2-0.6,0.2c-0.1-0.1-0.2-0.2-0.3-0.5L108,107
				c-0.1-0.2-0.1-0.2,0.1-0.3l0.4-0.2c0.3-0.2,0.4-0.2,0.5,0.1l0.1,0.1c0.1,0,0.2-0.1,0.2-0.1c-0.1-0.2-0.2-0.4-0.2-0.6
				c-0.1-0.2-0.1-0.4-0.2-0.6c0,0-0.2,0-0.2,0.1l0,0.2c0,0.3,0,0.4-0.3,0.6l-0.4,0.2c-0.2,0.1-0.2,0.1-0.2-0.1l-0.4-1
				c-0.1-0.2-0.1-0.2,0.1-0.3l0.5-0.3c0.3-0.2,0.5-0.2,0.6-0.1c0.1,0,0.2,0.2,0.4,0.4c0.1,0,0.2-0.1,0.2-0.1
				c-0.2-0.4-0.4-0.8-0.4-0.9c-0.1,0.1-0.4,0.2-0.8,0.4l-1.2,0.7c-0.3,0.2-0.6,0.3-0.8,0.4c0,0.1,0,0.2,0.1,0.2l0.2,0
				c0.3-0.1,0.3-0.1,0.5,0.5l0.8,2.2c0.2,0.5,0.2,0.6-0.1,0.8l-0.2,0.2c0,0.1,0,0.2,0.1,0.2c0.4-0.2,0.7-0.4,1-0.5l0.7-0.4
				c0.5-0.3,1-0.5,1.3-0.7c0-0.2,0-0.7-0.1-1.1C110.1,106.7,109.9,106.7,109.9,106.8L109.9,106.8z"/>
			<path class="st1" d="M114.6,104.7c-0.1,0-0.2,0.1-0.4,0.1c-0.4-0.1-0.8-0.3-1.4-0.8c-0.1,0-0.1-0.1,0-0.1
				c0.2-0.3,0.4-0.7,0.2-1.2c-0.2-0.4-0.5-0.5-0.9-0.5c-0.3,0-0.7,0.2-1.2,0.5c-0.5,0.4-0.9,0.7-1.3,1c-0.1,0.1,0,0.2,0.1,0.2
				l0.2-0.1c0.2-0.1,0.3-0.1,0.5,0.5l0.9,2c0.2,0.5,0.2,0.6,0,0.8l-0.1,0.1c0,0.1,0,0.2,0.1,0.2c0.3-0.2,0.5-0.4,0.8-0.6
				c0.3-0.2,0.5-0.3,0.8-0.5c0-0.1,0-0.2-0.1-0.2l-0.2,0.1c-0.3,0.1-0.3,0.1-0.5-0.4l-0.3-0.7c-0.1-0.1,0-0.1,0.1-0.3
				c0.1-0.1,0.2-0.1,0.4,0c0.3,0.2,0.5,0.4,0.8,0.6c0.4,0.2,0.8,0.2,1.3-0.1c0.2-0.1,0.3-0.2,0.4-0.3
				C114.7,104.7,114.6,104.6,114.6,104.7z M112.1,103.9c-0.1,0.2-0.1,0.3-0.3,0.4c-0.3,0.2-0.3,0.2-0.4,0l-0.5-1.1
				c-0.1-0.3-0.1-0.3,0.1-0.5c0.4-0.3,0.9-0.2,1.1,0.4C112.2,103.5,112.2,103.8,112.1,103.9L112.1,103.9z"/>
			<path class="st1" d="M117.2,101.2c0.1,0.8-0.1,1-0.5,1.4c-0.4,0.3-0.5,0.4-0.6,0.3c-0.1,0-0.2-0.2-0.4-0.4l-0.4-0.6
				c-0.1-0.2-0.1-0.2,0-0.3l0.3-0.3c0.3-0.2,0.3-0.3,0.5-0.1l0.1,0.1c0.1,0,0.2-0.1,0.2-0.2c-0.1-0.2-0.2-0.3-0.4-0.5
				c-0.1-0.2-0.2-0.4-0.3-0.6c-0.1,0-0.2,0.1-0.2,0.2l0.1,0.2c0.1,0.3,0.1,0.4-0.2,0.6l-0.3,0.3c-0.1,0.1-0.1,0.1-0.2,0l-0.6-0.9
				c-0.1-0.2-0.1-0.2,0-0.4l0.4-0.4c0.2-0.2,0.4-0.3,0.6-0.3c0.1,0,0.3,0.1,0.4,0.2c0.1,0,0.2-0.1,0.2-0.2c-0.2-0.3-0.5-0.7-0.6-0.8
				c-0.1,0.1-0.3,0.3-0.7,0.6l-1.1,1c-0.2,0.2-0.5,0.4-0.7,0.6c0,0.1,0,0.2,0.1,0.2l0.1-0.1c0.3-0.2,0.3-0.2,0.6,0.3l1.2,1.9
				c0.3,0.5,0.3,0.5,0.1,0.7l-0.2,0.2c0,0.1,0.1,0.2,0.1,0.2c0.4-0.3,0.6-0.6,0.8-0.8l0.6-0.6c0.4-0.4,0.9-0.8,1.1-1
				c0-0.2-0.1-0.7-0.3-1C117.4,101,117.2,101.1,117.2,101.2z"/>
			<path class="st1" d="M51.5,100.5c-0.3-0.4-0.6-0.7-1-1c-0.5-0.3-0.9-0.6-1.3-0.8c-0.1,0-0.1,0.1-0.1,0.2l0.1,0.1
				c0.2,0.2,0.2,0.3,0,0.9l-0.7,2.2c-0.2,0.6-0.2,0.6-0.5,0.5l-0.2-0.1c0,0-0.1,0.2-0.1,0.2c0.3,0.2,0.5,0.3,0.8,0.5
				c0.2,0.1,0.4,0.3,0.6,0.5c0.5,0.3,0.9,0.5,1.3,0.5c0.7,0,1.2-0.4,1.4-1.3C52.2,102.2,52.1,101.2,51.5,100.5z M51.2,102.5
				c-0.3,0.8-0.9,1.6-1.7,1c-0.2-0.1-0.3-0.3-0.3-0.5c0-0.2,0-0.4,0.1-0.8l0.7-2.2c0.1-0.2,0.1-0.3,0.1-0.3c0,0,0.1,0,0.3,0.1
				C51.3,100.4,51.5,101.4,51.2,102.5L51.2,102.5z"/>
			<path class="st1" d="M52.9,105.4l1-2.3c0.2-0.6,0.3-0.6,0.5-0.5l0.1,0.1c0.1,0,0.1-0.1,0.1-0.2c-0.3-0.2-0.5-0.3-0.7-0.5
				c-0.2-0.2-0.5-0.3-0.7-0.5c-0.1,0-0.1,0.1-0.1,0.2l0.1,0.1c0.2,0.2,0.2,0.3,0,0.8l-1,2.3c-0.3,0.6-0.3,0.6-0.5,0.5l-0.1-0.1
				c-0.1,0-0.1,0.2-0.1,0.2c0.3,0.2,0.5,0.4,0.7,0.5c0.2,0.2,0.5,0.3,0.7,0.6c0.1,0,0.1-0.2,0.1-0.2l-0.1-0.1
				C52.6,106,52.6,106,52.9,105.4z"/>
			<path class="st1" d="M56.4,103.6c-0.7-0.5-1.3-0.2-1.5,0.5c-0.2,0.6,0,1.3,0.3,1.7c0.2,0.4,0.5,0.9,0.3,1.5
				c-0.1,0.3-0.4,0.6-0.8,0.3c-0.4-0.3-0.5-1.1-0.5-1.6c0-0.1-0.1-0.2-0.2-0.1c-0.2,0.4-0.3,0.9-0.2,1.2c0.1,0.1,0.3,0.5,0.7,0.8
				c0.7,0.5,1.4,0.3,1.7-0.5c0.3-0.7,0-1.3-0.2-1.7l-0.2-0.4c-0.2-0.3-0.3-0.7-0.2-1c0.1-0.3,0.4-0.5,0.7-0.3
				c0.3,0.2,0.4,0.8,0.3,1.2c0,0.1,0.1,0.2,0.2,0.1c0.2-0.4,0.2-0.8,0.2-1c-0.1,0-0.1-0.1-0.1-0.2C56.8,103.9,56.6,103.7,56.4,103.6
				L56.4,103.6z"/>
			<path class="st1" d="M59.8,105.9c0.5,0.3,0.7,0.8,0.6,1.4c0,0.1,0.2,0.1,0.2,0.1c0.1-0.4,0.2-0.9,0.2-1c-0.1-0.1-0.5-0.4-0.9-0.7
				c-0.5-0.3-1.1-0.4-1.5-0.2c-0.4,0.2-0.9,0.6-1.1,1.4c-0.2,0.8-0.1,1.5,0.1,2.1c0.2,0.5,0.7,1,1.2,1.2c0.4,0.2,0.8,0.3,1.1,0.3
				c0.1-0.1,0.3-0.5,0.5-1c0-0.1-0.1-0.2-0.2-0.1c-0.3,0.4-0.7,0.8-1.3,0.5c-0.6-0.3-1-1.3-0.6-2.7C58.5,106,59.2,105.6,59.8,105.9z
				"/>
			<path class="st1" d="M62.2,107c-0.2-0.1-0.5-0.2-0.7-0.3c-0.1,0-0.1,0.2-0.1,0.2l0.1,0.1c0.2,0.2,0.2,0.2,0.1,0.8l-0.6,2.5
				c-0.1,0.6-0.2,0.7-0.4,0.6l-0.2-0.1c0,0-0.1,0.2-0.1,0.2c0.4,0.2,0.6,0.3,0.9,0.4l0.6,0.3c0.4,0.2,0.9,0.4,1.1,0.5
				c0.1-0.2,0.3-0.7,0.4-1c0-0.1-0.1-0.2-0.2-0.1c-0.4,0.7-0.6,0.6-1,0.4c-0.4-0.2-0.4-0.3-0.5-0.4c0-0.1,0-0.4,0.1-0.7l0.2-0.8
				c0-0.2,0.1-0.2,0.2-0.1l0.3,0.2c0.3,0.1,0.3,0.2,0.3,0.5l0,0.2c0,0.1,0.1,0.1,0.2,0.1c0-0.2,0.1-0.5,0.1-0.7
				c0.1-0.3,0.1-0.5,0.2-0.7c0-0.1-0.1-0.1-0.2-0.1l-0.1,0.2c-0.1,0.3-0.2,0.3-0.4,0.2l-0.3-0.2c-0.1-0.1-0.1-0.1-0.1-0.3l0.3-1.2
				c0.1-0.2,0.1-0.3,0.2-0.2l0.4,0.2c0.2,0.1,0.4,0.3,0.4,0.4c0,0.1,0.1,0.4,0.1,0.6c0,0.1,0.2,0.1,0.2,0.1c0.1-0.5,0.1-1,0.2-1.1
				c-0.1,0-0.3-0.1-0.7-0.3L62.2,107L62.2,107z"/>
			<path class="st1" d="M66.9,113.3c-0.2-0.4-0.3-1-0.5-2c0-0.1,0-0.1,0-0.1c0.2-0.1,0.6-0.2,0.7-0.8c0.1-0.4,0-0.8-0.3-1.2
				c-0.2-0.2-0.5-0.5-0.9-0.6c-0.5-0.2-0.8-0.3-1.2-0.4c-0.1,0-0.1,0.2,0,0.2l0.1,0.1c0.2,0.1,0.2,0.2,0.1,0.9l-0.4,2.4
				c-0.1,0.6-0.1,0.7-0.4,0.7l-0.1,0c0,0-0.1,0.2,0,0.2c0.3,0.1,0.5,0.2,0.7,0.2c0.2,0.1,0.5,0.2,0.7,0.3c0,0,0.1-0.2,0-0.2
				l-0.1-0.1c-0.2-0.1-0.2-0.2-0.1-0.8l0.1-0.9c0-0.1,0-0.1,0.2-0.1c0.1,0,0.2,0.1,0.2,0.3c0.1,0.4,0.1,0.8,0.2,1.2
				c0.1,0.6,0.4,0.9,0.8,1.1c0.2,0.1,0.3,0.1,0.4,0.1c0,0,0-0.1,0-0.2C67.2,113.6,67,113.5,66.9,113.3L66.9,113.3z M66.4,110.1
				c-0.1,0.4-0.2,0.6-0.3,0.7c-0.1,0.1-0.2,0.1-0.4,0.1c-0.3-0.1-0.3-0.1-0.3-0.4l0.2-1.3c0.1-0.3,0.1-0.3,0.3-0.3
				C66.3,109,66.5,109.5,66.4,110.1L66.4,110.1z"/>
			<path class="st1" d="M69,109.7c-0.2-0.1-0.5-0.2-0.7-0.2c-0.1,0-0.1,0.2,0,0.2l0.1,0.1c0.2,0.1,0.2,0.2,0.2,0.8l-0.3,2.6
				c-0.1,0.6-0.1,0.7-0.3,0.7l-0.2,0c0,0-0.1,0.2,0,0.2c0.4,0.1,0.6,0.2,0.9,0.2l0.6,0.2c0.4,0.1,0.9,0.3,1.1,0.4
				c0.1-0.2,0.3-0.7,0.3-1.1c0-0.1-0.1-0.2-0.2-0.1c-0.4,0.7-0.5,0.7-0.9,0.6c-0.4-0.1-0.4-0.2-0.5-0.3c0-0.1,0-0.4,0-0.7l0.1-0.8
				c0-0.2,0-0.2,0.2-0.2l0.3,0.1c0.3,0.1,0.3,0.2,0.3,0.5l0,0.2c0,0.1,0.1,0.1,0.2,0c0-0.2,0-0.5,0.1-0.7c0-0.3,0.1-0.5,0.1-0.7
				c0-0.1-0.1-0.1-0.2-0.1l0,0.2c-0.1,0.3-0.1,0.3-0.4,0.3l-0.3-0.1c-0.1,0-0.1-0.1-0.1-0.2l0.1-1.2c0-0.3,0-0.3,0.2-0.2l0.4,0.1
				c0.2,0.1,0.4,0.2,0.5,0.4c0.1,0.1,0.1,0.3,0.1,0.6c0,0.1,0.2,0.1,0.2,0c0-0.5,0-1,0-1.1c-0.1,0-0.3-0.1-0.6-0.2L69,109.7
				L69,109.7z"/>
			<path class="st1" d="M82,118.3c0-0.1-0.2-0.1-0.3-0.1c-0.4,0.9-0.7,0.9-1.3,0.9c-0.5,0-0.7-0.1-0.7-0.3c-0.1-0.1-0.1-0.4-0.1-0.8
				l0.1-1c0-0.2,0-0.2,0.2-0.2l0.5,0c0.4,0,0.5,0.1,0.5,0.5l0,0.2c0,0.1,0.2,0.1,0.3,0c0-0.3,0-0.6,0-0.9c0-0.3,0-0.6,0.1-0.9
				c0-0.1-0.2-0.1-0.3,0l0,0.2c-0.1,0.4-0.2,0.4-0.6,0.4l-0.5,0c-0.2,0-0.2,0-0.2-0.3l0.1-1.4c0-0.3,0-0.3,0.3-0.3l0.6,0
				c0.4,0,0.6,0.1,0.7,0.3c0.1,0.1,0.2,0.4,0.2,0.7c0.1,0.1,0.2,0.1,0.3,0c0-0.5,0-1.1,0-1.3c-0.1,0-0.5,0-1,0l-1.5-0.1
				c-0.3,0-0.7-0.1-1-0.1c-0.1,0-0.1,0.2,0,0.3l0.2,0.1c0.3,0.1,0.4,0.1,0.3,0.9l-0.2,3c0,0.7-0.1,0.8-0.4,0.8l-0.3,0
				c-0.1,0-0.1,0.2,0,0.3c0.5,0,0.9,0,1.2,0.1l0.9,0.1c0.6,0,1.3,0.1,1.7,0.1C81.8,119.3,82,118.7,82,118.3L82,118.3z"/>
			<path class="st1" d="M83.1,115.4c0.2-0.6,0.4-0.9,0.9-0.9l0.5,0c0.2,0,0.2,0,0.2,0.2l-0.1,3.6c0,0.8-0.1,0.8-0.4,0.9l-0.3,0
				c-0.1,0-0.1,0.2,0,0.3c0.5,0,0.9,0,1.2,0c0.3,0,0.7,0,1.2,0.1c0.1,0,0.1-0.2,0-0.3l-0.3,0c-0.3-0.1-0.4-0.1-0.4-0.9l0.1-3.6
				c0-0.2,0-0.2,0.2-0.2l0.4,0c0.5,0,0.6,0.4,0.8,0.9c0,0.1,0.2,0.1,0.3,0c0-0.5,0.1-1.1,0.1-1.4c0,0-0.1-0.1-0.1-0.1
				c0,0-0.1,0-0.1,0c-0.1,0.2-0.2,0.2-0.7,0.2l-2.7-0.1c-0.6,0-0.6,0-0.6-0.2c0,0-0.1,0-0.1,0c0,0-0.1,0-0.1,0
				c-0.1,0.3-0.1,0.8-0.3,1.4C82.9,115.5,83,115.5,83.1,115.4L83.1,115.4z"/>
			<path class="st0" d="M85.7,70v-1.3H84v1.5c0.4-0.1,0.7-0.1,1.1-0.2C85.1,70,85.7,70,85.7,70z"/>
			<path class="st0" d="M80.5,70H75c-2,1.7-3.2,3.4-3.9,5.1h24.5c-0.3-2.3-0.8-4.3-1.6-5.1H88v-1.3h3.8c0,0,1.4-0.9,0.1-2.2h-5.5
				v-1.7l2.4,0.1c-3.4-6.3-9.2-5-11.5,0h1.4v0.8h1.2v-0.8h4.4v1.5h-9.5c0,0-1.2,0.9,0,2.4h7.2v1.6C81.5,70.2,81,70.1,80.5,70
				L80.5,70z M83.6,61.7l0-0.4h0.4c2.3,0,3.8,2.6,3.8,2.7l0.3,0.6l-1.8-0.1l-0.1-0.1c-0.4-0.4-0.6-0.6-0.7-0.8
				c-0.2-0.1-0.6-0.2-1.1-0.5C83.7,62.8,83.6,61.8,83.6,61.7L83.6,61.7z M84,68.7h1.6V70h-0.6c-0.3,0.1-0.7,0.2-1.1,0.2
				C84,70.2,84,68.7,84,68.7z"/>
			<path class="st1" d="M85.4,63.6c0.1,0.2,0.4,0.4,0.7,0.8l0.1,0.1l1.8,0.1L87.8,64c-0.1-0.1-1.5-2.7-3.8-2.7h-0.4l0,0.4
				c0,0.1,0.1,1.1,0.8,1.4C84.9,63.3,85.2,63.5,85.4,63.6L85.4,63.6z"/>
			<path class="st0" d="M57.1,53.2c4.2-6.2-2.2-8.5-2.2-8.5s1.1,1.1,0.3,4.8C54.4,53.2,57.1,53.2,57.1,53.2z"/>
			<path class="st0" d="M29.3,93.1l0.1,0.4c0.2,0.1,0.6,0.1,0.7-0.1c-0.1-0.8-0.2-1.7-0.2-2.3c0-0.5-0.1-1.1,0-2.1
				c-1.5-0.3-3.3-1.1-4.1-1.5c-1.3-0.6-2.5-1.1-3.5-1.7c1-0.7,2.4-1.4,3.7-2.1c1.1-0.6,2.4-1.4,3.6-1.4c-0.1-0.6-0.2-1.4-0.2-2.2
				c0-0.9-0.1-1.5,0-2.4c-0.1-0.2-0.6-0.2-0.7,0l-0.1,0.4c-0.1,0.7-0.5,1-1.3,1.1c-0.9,0.1-2.2,0.1-3.4,0.1c-2.2,0-3.5,0-3.9-0.1
				c-1.1-0.1-1.3-0.2-1.5-1.4c-0.1-0.2-0.6-0.2-0.7,0c0.1,1,0.2,1.7,0.2,2.3c0,0.7,0,1.3,0,2c0.2,0.1,0.6,0.2,0.7,0l0.1-0.8
				c0.1-0.7,0.4-0.7,1.6-0.7c1-0.1,2.6-0.2,3.6-0.1c0.7,0,1.5,0,2.6-0.1l0,0.1c-1.8,0.9-3.5,1.8-5.3,2.8c-0.8,0.4-2.4,1.3-3.3,1.6
				c0,0.1-0.1,0.2-0.1,0.3c0,0.1,0,0.2,0.1,0.3c0.8,0.3,2.7,1,3.9,1.5l1,0.4c2,0.9,3,1.3,4.1,1.9l0,0.1l-6.4,0.4
				c-1.2,0.1-1.4,0-1.6-0.8l-0.1-0.5c-0.1-0.2-0.6-0.1-0.7,0.1c0.1,1,0.2,1.7,0.2,2.7c0.1,1,0.1,1.9,0.1,2.8c0.1,0.2,0.6,0.2,0.7,0
				l0.1-0.7c0.1-0.7,0.5-0.8,1.4-0.9c1.3-0.2,4.8-0.4,6.7-0.5C28.5,91.9,29,91.9,29.3,93.1L29.3,93.1z"/>
			<path class="st0" d="M33.5,102.2c-1.4-3.7-4.9-5.3-8.2-4c-3,1.2-4.6,4.3-3.1,8.3c1.4,3.6,4.7,5.1,8.1,3.9
				C33.2,109.3,35.1,106.2,33.5,102.2z M23.2,106.2c-0.9-2.4,1.3-4.3,3.7-5.3c3.2-1.2,5-0.1,5.6,1.3c0.9,2.3-1.1,4.3-3.9,5.3
				C25.6,108.8,23.9,107.9,23.2,106.2z"/>
			<path class="st0" d="M42.2,121.2c0.8-0.5,1.2-0.6,1.7-0.1l0.4,0.4c0.3,0.1,0.6-0.3,0.6-0.5c-0.6-0.8-1-1.1-1.4-1.7
				c-0.5-0.6-0.8-1.1-1.3-1.8c-0.3-0.1-0.6,0.2-0.6,0.4l0.4,0.6c0.4,0.6,0.2,1-0.5,1.6c-0.2,0.2-0.9,0.8-1.8,1.5l-1.7,1.3
				c-1.9,1.5-3.7,1.8-5.1,0c-1.3-1.7-0.5-3.4,1.4-4.8l2.9-2.3c1.4-1.1,1.7-1.2,2.4-0.5l0.4,0.4c0.3,0.1,0.6-0.3,0.6-0.5
				c-0.6-0.7-1.2-1.5-1.9-2.3c-0.6-0.8-1.2-1.6-1.8-2.4c-0.2-0.1-0.6,0.2-0.6,0.4l0.3,0.4c0.5,0.8,0.2,1.1-1.1,2.2l-3.1,2.4
				c-1.6,1.2-2.2,2.3-2.2,3.6c0,1.1,0.7,2.3,1.6,3.5c0.8,1.1,2,2,3.1,2.1c1.1,0.2,2.5-0.3,3.8-1.3l1.8-1.4
				C41.2,121.9,41.9,121.4,42.2,121.2L42.2,121.2z"/>
			<path class="st0" d="M55.4,129c-0.7-0.5-1.1-0.8-1.8-1.4c-0.3,0-0.6,0.3-0.5,0.6l0.5,0.5c0.5,0.5,0.5,0.9-0.1,1.7
				c-0.2,0.3-0.6,1-1.3,1.9l-0.9,1.2c-0.3,0.5-0.5,0.6-0.6,0.8c-0.1-0.4-0.3-1.8-0.4-2.6l-0.4-3.5c-0.2-1.8-0.2-2.7-0.1-3.3
				c-0.6-0.4-1-0.6-1.4-0.9c-0.6-0.4-1.3-0.9-2-1.6c-0.2-0.1-0.6,0.3-0.5,0.6l0.1,0.2c0.2,0.2,0.7,0.8,0.7,1.1c0,0.4-0.1,0.7-1,1.9
				l-2.1,2.9c-0.7,0.9-1.2,1.6-1.4,1.8c-0.6,0.7-1,0.9-1.6,0.6l-0.5-0.3c-0.3,0-0.5,0.4-0.4,0.6c0.8,0.5,1.3,0.8,1.9,1.3
				c0.6,0.4,1.1,0.8,1.8,1.4c0.3,0,0.6-0.3,0.5-0.6l-0.5-0.4c-0.6-0.5-0.5-0.9,0-1.8c0.2-0.3,0.6-1,1.3-1.9l1-1.4
				c0.5-0.7,1-1.4,1.3-1.8c0.1,0.4,0.2,1.4,0.4,2.7l0.7,5.8c0.3,2.3,0.4,3,0.3,3.4c0.1,0.1,0.1,0.1,0.2,0.2c0.1,0.1,0.4,0.1,0.5,0.1
				c0.2-0.4,1.4-2.1,1.8-2.5l2.3-3.2c0.7-0.9,1.2-1.6,1.4-1.8c0.6-0.7,1-0.9,1.6-0.6l0.5,0.3c0.3,0,0.5-0.4,0.4-0.6
				C56.4,129.7,56,129.5,55.4,129L55.4,129z"/>
			<path class="st0" d="M69.8,134.6c-0.3,0.4-0.6,0.3-1.4,0l-7.1-2.6c-0.8-0.3-1.1-0.4-1-0.8c0-0.2-0.4-0.3-0.5-0.2
				c-0.3,0.5-1.1,1.8-1.7,2.6c0,0.2,0.4,0.5,0.6,0.3c0.5-0.5,0.7-0.7,1.1-0.9c0.6-0.3,1.2-0.1,1.8,0.1l0.8,0.3
				c0.6,0.2,0.6,0.2,0.3,0.9l-2.3,6.3c-0.6,1.6-0.8,1.9-1.7,1.7l-0.8-0.2c-0.2,0.1-0.4,0.6-0.2,0.7c1.2,0.4,2.1,0.7,3.1,1.1
				c0.9,0.3,1.9,0.7,2.9,1.2c0.2,0,0.4-0.5,0.3-0.7l-0.6-0.3c-0.9-0.4-0.8-0.8-0.2-2.4l2.3-6.3c0.2-0.7,0.3-0.7,0.7-0.5l0.6,0.2
				c0.9,0.3,1.4,0.7,1.6,1c0.2,0.4,0.2,0.9,0.1,1.5c0.1,0.2,0.5,0.3,0.7,0.2c0.4-1,1-2.3,1.3-2.9C70.3,134.7,69.9,134.6,69.8,134.6
				L69.8,134.6z"/>
			<path class="st0" d="M95.2,146.3c-1,0-1.1-0.4-1.2-2.1l-0.5-5.4c-0.2-1.7-0.1-2.1,0.8-2.3l0.4-0.1c0.2-0.2,0.1-0.7-0.1-0.8
				c-0.8,0.1-1.8,0.2-2.8,0.3c-1,0.1-2,0.2-2.9,0.2c-0.2,0.1-0.2,0.6,0,0.8l0.4,0c1,0,1.1,0.4,1.2,2.1l0.1,1.3
				c0.1,0.6-0.1,0.6-0.9,0.7l-3.5,0.3c-0.8,0.1-0.9,0.1-1-0.5l-0.1-1.3c-0.2-1.7-0.1-2.1,0.8-2.3l0.4-0.1c0.2-0.2,0.1-0.7-0.1-0.8
				c-0.8,0.1-1.8,0.2-2.8,0.3c-1,0.1-2,0.2-3,0.2c-0.2,0.1-0.2,0.6,0,0.8l0.5,0c1,0,1.1,0.4,1.2,2.1l0.5,5.4
				c0.2,1.7,0.1,2.1-0.8,2.3l-0.4,0.1c-0.2,0.2-0.1,0.7,0.1,0.8c0.8-0.1,1.8-0.2,2.8-0.3c1-0.1,2-0.1,2.9-0.2c0.2-0.1,0.2-0.6,0-0.8
				l-0.5,0c-1,0-1.1-0.4-1.2-2.1l-0.2-1.8c0-0.6,0-0.6,0.9-0.7l3.5-0.3c0.9-0.1,0.9-0.1,1,0.5l0.2,1.8c0.2,1.7,0.1,2.1-0.8,2.3
				l-0.4,0.1c-0.2,0.2-0.1,0.7,0.1,0.8c0.8-0.1,1.8-0.2,2.8-0.3c1-0.1,2-0.1,2.9-0.2c0.2-0.1,0.2-0.6,0-0.8
				C95.7,146.3,95.2,146.3,95.2,146.3z"/>
			<path class="st0" d="M110.2,139c-0.1,1.5-0.3,2.2-2.3,2.9c-1.5,0.6-2.1,0.7-2.4,0.5c-0.3-0.2-0.6-0.8-0.9-1.6l-0.6-1.5
				c-0.2-0.5-0.2-0.5,0.4-0.7l0.9-0.3c1.3-0.5,1.6-0.6,2,0.1l0.4,0.5c0.2,0.1,0.6-0.1,0.7-0.3c-0.2-0.6-0.5-1.1-0.8-1.8
				c-0.2-0.6-0.4-1.2-0.6-1.8c-0.2-0.1-0.6,0-0.7,0.2l0.1,0.6c0.1,0.8-0.1,0.9-1.5,1.4l-0.9,0.3c-0.5,0.2-0.6,0.2-0.7-0.2l-0.8-2
				c-0.5-1.2-0.5-1.3,0.2-1.5l1.3-0.5c1.2-0.5,1.9-0.6,2.3-0.2c0.2,0.2,0.5,0.5,0.8,0.9c0.2,0.1,0.6-0.1,0.7-0.3
				c-0.5-1.1-1.1-2.2-1.2-2.4c-0.2,0.1-1.2,0.5-2.2,0.9l-3.9,1.5c-1,0.4-1.9,0.7-2.6,0.9c-0.1,0.2,0,0.6,0.2,0.7l0.3-0.1
				c1-0.2,1.2,0.1,1.8,1.7l1.9,5.1c0.6,1.6,0.7,2-0.2,2.4l-0.7,0.4c-0.1,0.2,0.1,0.7,0.3,0.7c1.1-0.5,2-0.9,3-1.2l2.6-1
				c1.3-0.5,2.6-1,4.2-1.5c0-0.5-0.1-1.9-0.3-3C110.7,138.7,110.3,138.8,110.2,139L110.2,139z"/>
			<path class="st0" d="M126.8,130.8c-0.3,0.2-0.7,0.3-1.3,0.3c-1,0-2.7-0.5-4.7-1.4c-0.4-0.2-0.5-0.3-0.3-0.5
				c0.6-0.9,0.9-2.1,0.1-3.3c-0.8-1-1.8-1.3-3-1.1c-1.1,0.2-2.2,0.9-3.5,1.9c-1.5,1.1-3,2.3-3.7,2.9c-0.2,0.2,0.2,0.7,0.4,0.6
				l0.3-0.1c0.8-0.4,1-0.4,2.2,1.3l3,4.1c1,1.4,1.2,1.8,0.5,2.4l-0.4,0.4c-0.1,0.2,0.3,0.6,0.5,0.6c0.7-0.6,1.5-1.2,2.4-1.8
				c0.8-0.6,1.6-1.1,2.4-1.7c0.1-0.2-0.2-0.6-0.4-0.6l-0.5,0.3c-0.8,0.5-1.1,0.2-2.2-1.2l-0.9-1.3c-0.2-0.3-0.2-0.4,0.1-0.7
				c0.4-0.3,0.7-0.4,1.2-0.2c0.7,0.3,2,0.9,2.9,1.2c1.7,0.5,2.8,0.3,4.1-0.7c0.7-0.5,1-0.8,1.2-1.1
				C127.2,131.1,127,130.8,126.8,130.8z M117.8,130.9c-0.5,0.4-0.9,0.6-1,0.6c-0.1,0-0.3-0.1-0.5-0.4l-2-2.7
				c-0.4-0.5-0.3-0.6,0.4-1.1c1.2-0.8,2.5-0.6,3.4,0.6C118.9,128.8,119,130,117.8,130.9L117.8,130.9z"/>
			<path class="st0" d="M139.4,114.9l-0.5,0.5c-0.5,0.5-0.9,0.3-1.7-0.2c-1.1-0.7-3.9-2.8-5.4-3.9c-0.8-0.6-1.2-0.9-0.6-2l0.2-0.4
				c-0.1-0.2-0.4-0.5-0.6-0.4c-0.4,0.7-1,1.5-1.3,1.9c-0.3,0.4-0.7,0.9-1.3,1.6c1,1.2,1.8,2.9,2.2,3.8c0.6,1.3,1.2,2.5,1.7,3.5
				c-1.2-0.1-2.7-0.4-4.2-0.7c-1.2-0.2-2.7-0.4-3.7-1.2c-0.3,0.6-0.8,1.2-1.2,1.8c-0.6,0.8-0.9,1.2-1.5,1.9c0,0.2,0.3,0.5,0.6,0.5
				l0.3-0.3c0.5-0.5,1-0.5,1.7,0c0.7,0.5,1.8,1.4,2.7,2.1c1.7,1.4,2.7,2.3,2.9,2.5c0.8,0.8,0.9,1,0.2,2c0,0.3,0.4,0.5,0.6,0.4
				c0.6-0.9,1-1.5,1.3-1.9c0.4-0.5,0.8-1,1.3-1.6c0-0.2-0.4-0.5-0.6-0.5l-0.6,0.5c-0.5,0.5-0.7,0.3-1.7-0.5
				c-0.8-0.6-2.1-1.5-2.9-2.2c-0.6-0.5-1.2-1-2.1-1.6l0,0c1.9,0.4,3.9,0.8,5.8,1.2c0.9,0.2,2.7,0.5,3.6,0.9c0.1,0,0.2-0.1,0.3-0.2
				c0.1-0.1,0.1-0.2,0.1-0.3c-0.4-0.7-1.5-2.5-2.1-3.6l-0.5-1c-1-1.9-1.4-2.9-2-4.1l0,0l5.2,3.8c1,0.7,1.1,0.9,0.7,1.6l-0.2,0.4
				c0,0.2,0.4,0.5,0.6,0.4c0.5-0.8,0.9-1.4,1.6-2.2c0.6-0.8,1.1-1.5,1.7-2.2C140,115.1,139.7,114.8,139.4,114.9L139.4,114.9z"/>
			<path class="st0" d="M141.3,95.3c-3-1-6.3,0.2-7.7,4.3c-1.2,3.8,0.5,7.2,3.8,8.3c3.1,1,6.3-0.4,7.6-4.5
				C146.3,99.7,144.7,96.4,141.3,95.3z M144.2,103c-0.8,2.4-3.7,2.5-6.2,1.7c-3.3-1.1-3.9-3.1-3.4-4.6c0.8-2.3,3.5-2.6,6.4-1.6
				C143.9,99.5,144.8,101.3,144.2,103z"/>
			<path class="st0" d="M141.5,86.4l4.3-3.9c1.7-1.5,2.3-2,2.7-2.2c0-0.1,0-0.2,0-0.3c0-0.1-0.1-0.4-0.2-0.5c-0.4,0-2.5,0-3.1,0
				l-3.9-0.1c-1.1,0-2-0.1-2.3-0.1c-0.9-0.1-1.3-0.3-1.4-1l-0.1-0.6c-0.2-0.2-0.6-0.2-0.8,0c0,1,0,1.5,0,2.3c0,0.8-0.1,1.4-0.1,2.2
				c0.1,0.3,0.6,0.3,0.8,0.1l0.1-0.7c0.1-0.7,0.4-0.9,1.5-0.9c0.3,0,1.2-0.1,2.3,0l1.5,0c0.6,0,0.8,0,1,0.1
				c-0.2,0.3-1.3,1.3-1.9,1.8l-2.6,2.3c-1.4,1.2-2.1,1.7-2.7,1.9c0,0.8,0,1.2,0,1.7c0,0.7,0,1.6-0.1,2.6c0.1,0.2,0.6,0.3,0.8,0.1
				l0.1-0.2c0.1-0.3,0.3-1,0.5-1.2c0.3-0.3,0.6-0.3,2.1-0.3l3.5,0.1c1.1,0,2,0.1,2.3,0.1c0.9,0.1,1.3,0.3,1.4,1l0.1,0.6
				c0.2,0.2,0.6,0.2,0.8,0c0-1,0-1.5,0-2.3c0-0.8,0.1-1.4,0.1-2.2c-0.1-0.3-0.6-0.3-0.8-0.1l-0.1,0.6c-0.1,0.8-0.5,1-1.5,1
				c-0.3,0-1.2,0.1-2.3,0l-1.8,0c-0.8,0-1.7,0-2.2-0.1C139.7,87.9,140.4,87.3,141.5,86.4L141.5,86.4z"/>
		</g>
	</g>
</g>
</svg>
